<?xml version="1.0" encoding="iso-8859-1"?>
<!-- Generator: Adobe Illustrator 19.0.0, SVG Export Plug-In . SVG Version: 6.00 Build 0)  -->
<svg version="1.1" id="Capa_1" xmlns="http://www.w3.org/2000/svg" xmlns:xlink="http://www.w3.org/1999/xlink" x="0px" y="0px"
	 viewBox="0 0 512 512" style="enable-background:new 0 0 512 512;" xml:space="preserve">
<polygon style="fill:#D25229;" points="331.036,93.818 331.036,270.094 361.059,250.062 361.059,153.506 406.505,187.252 
	406.505,326.134 436.529,306.103 436.529,209.546 481.977,243.292 481.977,382.174 512,362.142 512,228.19 "/>
<polygon style="fill:#FFD3A1;" points="105.06,250.062 85.029,326.134 361.059,306.103 361.059,250.062 "/>
<polygon style="fill:#FEB562;" points="180.531,306.102 160.499,382.174 436.53,362.142 436.53,306.102 "/>
<polygon style="fill:#D25229;" points="75.037,270.094 105.06,250.062 105.06,153.506 150.506,187.253 150.506,326.134 
	180.53,306.102 180.53,209.546 225.977,243.292 225.977,382.174 256,362.142 256,228.19 75.037,93.818 "/>
<polygon style="fill:#FFD3A1;" points="256,362.142 235.969,390.162 256,418.182 512,418.182 512,362.142 "/>
<polygon style="fill:#FE844A;" points="180.531,362.142 180.531,306.102 105.06,306.102 105.06,250.062 0,250.062 0,418.182 
	256,418.182 256,418.182 256,362.142 "/>
<g>
</g>
<g>
</g>
<g>
</g>
<g>
</g>
<g>
</g>
<g>
</g>
<g>
</g>
<g>
</g>
<g>
</g>
<g>
</g>
<g>
</g>
<g>
</g>
<g>
</g>
<g>
</g>
<g>
</g>
</svg>
