<svg id="Capa_1" enable-background="new 0 0 512 512" height="512" viewBox="0 0 512 512" width="512" xmlns="http://www.w3.org/2000/svg"><g><path d="m11.818 161.499c-6.527 0-11.818 5.291-11.818 11.818v229.869c0 22.485 18.227 40.712 40.712 40.712h170.691c5.12 0 9.633 3.357 11.107 8.26l2.069 4.825c1.474 4.903 5.988 8.26 11.107 8.26h40.626c5.12 0 9.633-3.357 11.107-8.26l2.069-4.825c1.474-4.903 5.988-8.26 11.107-8.26h170.691c22.485 0 40.712-18.227 40.712-40.712v-229.869c0-6.527-5.291-11.818-11.818-11.818h-184.424l-60.338 82.148-67.696-82.148z" fill="#9dc6fb"/><g><path d="m500.182 161.499h-25.592c6.527 0 11.818 5.291 11.818 11.818v229.869c0 22.485-18.227 40.712-40.712 40.712h25.592c22.485 0 40.712-18.227 40.712-40.712v-229.869c0-6.527-5.291-11.818-11.818-11.818z" fill="#8993da"/></g><path d="m462.264 399.18h-179.765c-14.635 0-26.499-11.864-26.499-26.499l-30.905-12.032v-169.299l30.905-13.126c0-30.926 25.071-55.997 55.997-55.997h150.268c3.879 0 7.024 3.145 7.024 7.024v262.906c-.001 3.879-3.146 7.023-7.025 7.023z" fill="#fff6f4"/><path d="m462.264 122.227h-23.592c3.879 0 7.024 3.145 7.024 7.024v262.906c0 3.879-3.145 7.024-7.024 7.024h23.592c3.879 0 7.024-3.145 7.024-7.024v-262.906c0-3.879-3.145-7.024-7.024-7.024z" fill="#d8e2f1"/><path d="m229.501 399.18h-179.765c-3.879 0-7.024-3.145-7.024-7.024v-262.905c0-3.879 3.145-7.024 7.024-7.024h150.268c30.926 0 55.997 25.071 55.997 55.997v194.457c-.001 14.635-11.865 26.499-26.5 26.499z" fill="#fff6f4"/><path d="m200.003 122.227h-24.231c30.926 0 55.997 25.071 55.997 55.997v194.457c0 14.635-11.864 26.499-26.499 26.499h24.231c14.635 0 26.499-11.864 26.499-26.499v-194.457c0-30.926-25.071-55.997-55.997-55.997z" fill="#d8e2f1"/><g><g><path d="m422.092 189.226h-118.896c-4.268 0-7.726-3.459-7.726-7.726s3.459-7.726 7.726-7.726h118.896c4.268 0 7.726 3.459 7.726 7.726s-3.458 7.726-7.726 7.726z" fill="#d8e2f1"/></g><g><path d="m422.092 242.029h-118.896c-4.268 0-7.726-3.459-7.726-7.726s3.459-7.726 7.726-7.726h118.896c4.268 0 7.726 3.459 7.726 7.726s-3.458 7.726-7.726 7.726z" fill="#d8e2f1"/></g><g><path d="m422.092 294.831h-118.896c-4.268 0-7.726-3.459-7.726-7.726s3.459-7.726 7.726-7.726h118.896c4.268 0 7.726 3.459 7.726 7.726s-3.458 7.726-7.726 7.726z" fill="#d8e2f1"/></g><g><path d="m422.092 347.634h-118.896c-4.268 0-7.726-3.459-7.726-7.726s3.459-7.726 7.726-7.726h118.896c4.268 0 7.726 3.459 7.726 7.726s-3.458 7.726-7.726 7.726z" fill="#d8e2f1"/></g></g><g><g><path d="m208.804 242.029h-118.896c-4.268 0-7.726-3.459-7.726-7.726s3.459-7.726 7.726-7.726h118.896c4.268 0 7.726 3.459 7.726 7.726s-3.458 7.726-7.726 7.726z" fill="#d8e2f1"/></g><g><path d="m208.804 294.831h-118.896c-4.268 0-7.726-3.459-7.726-7.726s3.459-7.726 7.726-7.726h118.896c4.268 0 7.726 3.459 7.726 7.726s-3.458 7.726-7.726 7.726z" fill="#d8e2f1"/></g><g><path d="m208.804 347.634h-118.896c-4.268 0-7.726-3.459-7.726-7.726s3.459-7.726 7.726-7.726h118.896c4.268 0 7.726 3.459 7.726 7.726s-3.458 7.726-7.726 7.726z" fill="#d8e2f1"/></g></g><g><path d="m256 440.517c-4.268 0-7.726-3.459-7.726-7.726v-4.644c0-4.268 3.459-7.726 7.726-7.726s7.726 3.459 7.726 7.726v4.644c0 4.267-3.459 7.726-7.726 7.726z" fill="#8993da"/></g><path d="m342.01 46.758h-244.64c-7.119 0-12.89 5.771-12.89 12.89v115.589c0 7.119 5.771 12.89 12.89 12.89h199.031c1.735 0 3.339.926 4.207 2.429l11.109 19.242c1.87 3.238 6.544 3.238 8.414 0l11.109-19.242c.868-1.503 2.471-2.429 4.207-2.429h6.564c7.119 0 12.89-5.771 12.89-12.89v-115.589c0-7.119-5.771-12.89-12.891-12.89z" fill="#dd636e"/><path d="m342.01 46.758h-22.436c7.119 0 12.89 5.771 12.89 12.89v115.589c0 7.119-5.771 12.89-12.89 12.89h-6.564c-1.736 0-3.339.926-4.207 2.429l-4.098 7.098 7.011 12.144c1.87 3.238 6.544 3.238 8.413 0l11.109-19.242c.868-1.503 2.471-2.429 4.207-2.429h6.564c7.119 0 12.89-5.771 12.89-12.89v-115.589c.002-7.119-5.769-12.89-12.889-12.89z" fill="#c63d4f"/><g><g><g><path d="m167.625 153.555c-3.122 0-6.062-1.906-7.229-5l-14.787-39.182-14.932 39.204c-1.519 3.988-5.984 5.99-9.971 4.47-3.987-1.519-5.989-5.983-4.47-9.971l21.006-55.153c.022-.057.044-.114.067-.171 1.385-3.392 4.649-5.588 8.314-5.593h.013c3.66 0 6.923 2.185 8.317 5.569.029.07.057.142.084.213l20.815 55.156c1.507 3.993-.508 8.451-4.5 9.957-.898.34-1.82.501-2.727.501z" fill="#fff6f4"/></g><g><path d="m161.179 139.817h-31.17c-4.268 0-7.726-3.459-7.726-7.726 0-4.268 3.459-7.726 7.726-7.726h31.17c4.268 0 7.726 3.459 7.726 7.726s-3.459 7.726-7.726 7.726z" fill="#fff6f4"/></g></g><g><g><path d="m201.334 122.586c-2.043 0-4.003-.809-5.452-2.251-1.456-1.451-2.275-3.421-2.275-5.476v-25.801c0-4.268 3.459-7.726 7.726-7.726h16.249c11.358 0 20.599 9.24 20.599 20.599s-9.24 20.599-20.599 20.599c-3.517 0-16.213.056-16.215.056-.01 0-.022 0-.033 0zm7.726-25.801v10.316c3.368-.012 6.908-.024 8.523-.024 2.837 0 5.146-2.309 5.146-5.146s-2.309-5.146-5.146-5.146z" fill="#fff6f4"/></g><g><path d="m201.334 152.726c-2.043 0-4.003-.809-5.452-2.251-1.456-1.451-2.275-3.421-2.275-5.476v-30.182c0-4.268 3.459-7.726 7.726-7.726h19.088c12.563 0 22.784 10.22 22.784 22.784 0 12.563-10.22 22.785-22.784 22.785-4.118 0-19.053.066-19.053.066-.011 0-.023 0-.034 0zm7.726-30.182v14.697c4.326-.017 9.255-.034 11.361-.034 4.042 0 7.331-3.289 7.331-7.332 0-4.042-3.289-7.331-7.331-7.331z" fill="#fff6f4"/></g></g><g><g><path d="m298.302 152.726c-19.683 0-35.697-16.014-35.697-35.697s16.014-35.697 35.697-35.697c7.151 0 14.053 2.11 19.963 6.1 3.536 2.388 4.467 7.191 2.079 10.727-2.389 3.535-7.191 4.467-10.727 2.079-3.346-2.26-7.259-3.454-11.315-3.454-11.163 0-20.244 9.081-20.244 20.244s9.081 20.244 20.244 20.244c4.096 0 7.532-1.21 10.212-3.598.524-.467 1.024-.983 1.486-1.535 2.741-3.27 7.615-3.699 10.885-.96 3.271 2.741 3.7 7.615.96 10.885-.944 1.125-1.971 2.184-3.053 3.149-5.518 4.916-12.602 7.513-20.49 7.513z" fill="#fff6f4"/></g></g></g></g></svg>