<svg id="Capa_1" enable-background="new 0 0 512 512" height="512" viewBox="0 0 512 512" width="512" xmlns="http://www.w3.org/2000/svg"><g><path d="m484.322 372.813h-456.644v-280.987c0-6.308 5.114-11.421 11.421-11.421h433.8c6.308 0 11.422 5.114 11.422 11.421v280.987z" fill="#4a80aa"/><path d="m484.322 91.826c0-6.308-5.114-11.421-11.421-11.421h-18.776c6.308 0 11.422 5.114 11.422 11.421v236.68c0 14.647-11.874 26.52-26.52 26.52h-411.349v17.786h437.867 18.776v-17.786-263.2z" fill="#407093"/><path d="m58.584 372.813v-258.767c0-1.511 1.225-2.736 2.736-2.736h389.36c1.511 0 2.736 1.225 2.736 2.736v258.767z" fill="#d3effb"/><path d="m428.395 111.31v224.919c0 10.382-8.416 18.798-18.798 18.798h-351.013v17.786h369.811 25.021v-17.786-240.981c0-1.511-1.225-2.736-2.736-2.736z" fill="#b1e4f9"/><path d="m498.121 431.595h-484.242c-7.665 0-13.879-6.214-13.879-13.879v-31.025c0-7.665 6.214-13.879 13.879-13.879h484.242c7.665 0 13.879 6.214 13.879 13.879v31.025c0 7.665-6.214 13.879-13.879 13.879z" fill="#365e7d"/><path d="m498.121 372.813h-24.268c7.665 0 13.879 6.214 13.879 13.879v31.025c0 7.665-6.214 13.879-13.879 13.879h24.268c7.665 0 13.879-6.214 13.879-13.879v-31.025c0-7.666-6.214-13.879-13.879-13.879z" fill="#2b4d66"/><path d="m293.267 402.204h-74.533c-3.045 0-5.818-1.751-7.128-4.5l-11.857-24.891h112.502l-11.857 24.891c-1.309 2.749-4.083 4.5-7.127 4.5z" fill="#4a80aa"/><path d="m262.898 323.791c-43.715 18.295-87.429 18.295-131.144 0-4.217-1.765-6.976-5.88-6.976-10.452v-105.06h145.095v105.06c0 4.572-2.758 8.687-6.975 10.452z" fill="#4a80aa"/><path d="m254.086 208.279v98.328c0 4.572-2.758 8.687-6.976 10.452-39.486 16.525-78.971 18.119-118.457 4.791.908.795 1.947 1.458 3.1 1.941 43.715 18.295 87.429 18.295 131.144 0 4.217-1.765 6.976-5.88 6.976-10.452v-105.06z" fill="#407093"/><path d="m309.724 212.536-126.961 53.837-97.836-53.837c-1.747-.961-1.747-3.472 0-4.433l111.179-61.18c.759-.418 1.68-.418 2.439 0l111.179 61.18c1.747.962 1.747 3.472 0 4.433z" fill="#365e7d"/><path d="m309.724 208.103-111.179-61.18c-.759-.418-1.68-.418-2.439 0l-13.343 7.342 97.836 53.837c1.747.961 1.747 3.472 0 4.433l-97.836 53.837 13.343 7.342c.759.418 1.68.418 2.439 0l111.179-61.18c1.747-.959 1.747-3.469 0-4.431z" fill="#2b4d66"/><g><path d="m240.188 312.787c-4.268 0-7.726-3.459-7.726-7.726v-50.93l-40.441-38.194c-3.103-2.93-3.242-7.82-.312-10.922 2.93-3.105 7.821-3.241 10.922-.312l42.862 40.481c1.545 1.459 2.422 3.491 2.422 5.617v54.26c-.001 4.267-3.46 7.726-7.727 7.726z" fill="#407093"/></g><g><path d="m130.229 151.81h-31.349c-4.268 0-7.726-3.459-7.726-7.726 0-4.268 3.459-7.726 7.726-7.726h31.349c4.268 0 7.726 3.459 7.726 7.726s-3.458 7.726-7.726 7.726z" fill="#fff6f4"/></g><path d="m416.972 310.786h-99.818c-2.291 0-4.148-1.857-4.148-4.148v-36.188c0-2.291 1.857-4.148 4.148-4.148h99.818c2.291 0 4.148 1.857 4.148 4.148v36.188c0 2.291-1.857 4.148-4.148 4.148z" fill="#80e29d"/><path d="m416.972 266.302h-17.754c2.291 0 4.148 1.857 4.148 4.148v36.188c0 2.291-1.857 4.148-4.148 4.148h17.754c2.291 0 4.148-1.857 4.148-4.148v-36.188c0-2.291-1.857-4.148-4.148-4.148z" fill="#66b49d"/></g></svg>