<svg id="Capa_1" enable-background="new 0 0 511.989 511.989" height="512" viewBox="0 0 511.989 511.989" width="512" xmlns="http://www.w3.org/2000/svg"><g><g><path d="m257.934 382.217c33.871-57.936 53.4-15.401 100.336-58.67 30.336-27.966 67.712-21.621 90.359-13.635.072 1.525.128 3.053.166 4.587-2.467-104.366-87.839-188.213-192.799-188.213-20.881 0-43.776 4.811-35.458 3.265 2.3 3.019 58.501 77.865 20.895 134.049-38.386 57.349-70.128 44.458-57.985 132.107 4.685 33.814-8.24 64.435-25.882 89.304 30.573 18.182 66.463 28.107 104.743 26.877-12.65-37.171-25.534-93.479-4.375-129.671z" fill="#d3effb"/></g><g fill="#b1e4f9"><path d="m238.78 127.059c93.178 8.245 167.306 82.746 174.973 176.087 13.155.335 25.327 3.399 34.877 6.766.072 1.525.128 3.053.166 4.587-2.628-111.103-98.475-197.311-210.016-187.44z"/><path d="m262.31 511.886c-.439-1.29-.878-2.607-1.316-3.942-7.242 1.505-14.631 2.607-22.146 3.275.527.047 1.055.094 1.583.136 11.811.95 19.133.54 21.879.531z"/></g><path d="m63.139 319.143c0 70.552 37.892 132.245 94.427 165.867 17.643-24.869 30.567-55.49 25.882-89.304-12.144-87.649 19.599-74.758 57.985-132.107 37.606-56.183-18.596-131.03-20.895-134.049-89.573 16.649-157.399 95.194-157.399 189.593z" fill="#80e29d"/><path d="m220.538 129.55c-8.014 1.489-15.85 3.483-23.483 5.93 12.886 19.173 48.657 80.378 16.703 128.119-38.386 57.349-70.128 44.458-57.985 132.107 3.894 28.108-4.384 54.006-17.421 76.231 6.127 4.724 12.535 9.101 19.214 13.073 17.643-24.869 30.567-55.49 25.882-89.304-12.144-87.649 19.599-74.758 57.985-132.107 37.606-56.183-18.595-131.03-20.895-134.049z" fill="#66b49d"/><path d="m358.27 323.547c-46.936 43.269-66.465.733-100.336 58.67-21.159 36.192-8.275 92.501 4.376 129.67 106.413-3.424 191.444-93.234 186.319-201.974-22.647-7.987-60.023-14.332-90.359 13.634z" fill="#80e29d"/><path d="m448.629 309.912c-9.549-3.367-21.72-6.431-34.875-6.766 8.143 99.152-59.519 185.437-152.756 204.812.437 1.33.874 2.643 1.312 3.928 106.413-3.424 191.444-93.234 186.319-201.974z" fill="#66b49d"/><path d="m321.568 177.181c-43.715 18.295-87.429 18.295-131.144 0-4.217-1.765-6.976-5.88-6.976-10.452v-105.06h145.095v105.06c.001 4.572-2.757 8.687-6.975 10.452z" fill="#4a80aa"/><path d="m312.757 61.669v98.328c0 4.572-2.758 8.687-6.976 10.452-39.486 16.525-78.971 18.119-118.457 4.791.908.795 1.947 1.458 3.1 1.941 43.715 18.295 87.429 18.295 131.144 0 4.217-1.765 6.976-5.88 6.976-10.452v-105.06z" fill="#407093"/><path d="m368.395 65.926c-59.64 32.819-126.961 53.837-126.961 53.837l-97.836-53.837c-1.747-.961-1.747-3.472 0-4.433l111.179-61.18c.759-.418 1.68-.418 2.439 0l111.179 61.18c1.747.961 1.747 3.472 0 4.433z" fill="#365e7d"/><path d="m368.395 61.493-111.179-61.18c-.759-.418-1.68-.418-2.439 0l-13.343 7.342 97.836 53.837c1.747.961 1.747 3.472 0 4.433l-97.836 53.837c12.911 6.669 13.646 8.518 15.782 7.342l111.179-61.18c1.747-.959 1.747-3.47 0-4.431z" fill="#2b4d66"/><g><path d="m293.707 166.176c-4.268 0-7.726-3.459-7.726-7.726v-50.929l-40.441-38.195c-3.103-2.93-3.242-7.82-.312-10.922 2.93-3.105 7.82-3.241 10.922-.312l42.862 40.482c1.545 1.459 2.422 3.491 2.422 5.617v54.259c0 4.267-3.459 7.726-7.727 7.726z" fill="#407093"/></g></g></svg>