<svg id="Capa_1" enable-background="new 0 0 512 512" height="512" viewBox="0 0 512 512" width="512" xmlns="http://www.w3.org/2000/svg"><g><path d="m407.163 512h-302.326c-7.195 0-13.028-5.833-13.028-13.028v-485.944c-.001-7.195 5.832-13.028 13.028-13.028h302.327c7.195 0 13.028 5.833 13.028 13.028v485.943c0 7.196-5.833 13.029-13.029 13.029z" fill="#365e7d"/><path d="m407.163 0h-20.926c7.196 0 13.029 5.833 13.029 13.028v485.943c0 7.195-5.833 13.029-13.029 13.029h20.926c7.195 0 13.028-5.833 13.028-13.029v-485.943c.001-7.195-5.832-13.028-13.028-13.028z" fill="#2b4d66"/><path d="m127.865 447.561v-406.012c0-3.034 2.459-5.493 5.493-5.493h245.285c3.034 0 5.493 2.459 5.493 5.493v406.011c0 3.034-2.459 5.493-5.493 5.493h-245.285c-3.034 0-5.493-2.459-5.493-5.492z" fill="#d3effb"/><path d="m378.642 36.057h-22.32c3.033 0 5.493 2.459 5.493 5.493v406.011c0 3.034-2.459 5.493-5.493 5.493h22.32c3.034 0 5.493-2.459 5.493-5.493v-406.012c0-3.033-2.459-5.492-5.493-5.492z" fill="#b1e4f9"/><g><path d="m269.062 491.482h-26.124c-4.143 0-7.5-3.357-7.5-7.5s3.357-7.5 7.5-7.5h26.124c4.143 0 7.5 3.357 7.5 7.5s-3.357 7.5-7.5 7.5z" fill="#2b4d66"/></g><path d="m312.672 266.967c-37.781 15.812-75.563 15.812-113.344 0-3.645-1.525-6.029-5.082-6.029-9.033v-90.801h125.402v90.801c0 3.951-2.384 7.508-6.029 9.033z" fill="#4a80aa"/><path d="m302.253 167.134v83.634c0 3.951-2.384 7.508-6.029 9.033-33.412 13.983-66.825 15.59-100.237 4.841.925.979 2.049 1.785 3.341 2.325 37.781 15.812 75.563 15.812 113.344 0 3.645-1.525 6.029-5.082 6.029-9.033v-90.801h-16.448z" fill="#407093"/><path d="m353.143 170.813-113.591 44.405-80.695-44.405c-1.51-.831-1.51-3 0-3.831l96.089-52.876c.656-.361 1.452-.361 2.108 0l96.089 52.876c1.51.83 1.51 3 0 3.831z" fill="#365e7d"/><path d="m353.143 166.981-96.089-52.876c-.656-.361-1.452-.361-2.108 0l-15.394 8.471 80.695 44.405c1.51.831 1.51 3.001 0 3.831l-80.695 44.405 15.394 8.471c.656.361 1.452.361 2.108 0l96.089-52.876c1.51-.83 1.51-3 0-3.831z" fill="#2b4d66"/><g><path d="m284.802 255.415c-4.268 0-7.726-3.459-7.726-7.726v-43.565l-34.623-32.7c-3.103-2.93-3.242-7.82-.312-10.922 2.93-3.104 7.82-3.241 10.922-.312l37.044 34.987c1.545 1.459 2.422 3.491 2.422 5.617v46.895c0 4.267-3.459 7.726-7.727 7.726z" fill="#407093"/></g><g><path d="m203.601 85.733h-39.025c-4.268 0-7.726-3.459-7.726-7.726 0-4.268 3.459-7.726 7.726-7.726h39.025c4.268 0 7.726 3.459 7.726 7.726.001 4.267-3.458 7.726-7.726 7.726z" fill="#2b4d66"/></g><path d="m322.48 397.444h-132.96c-3.513 0-6.361-2.848-6.361-6.361v-40.391c0-3.513 2.848-6.361 6.361-6.361h132.96c3.513 0 6.361 2.848 6.361 6.361v40.391c0 3.513-2.848 6.361-6.361 6.361z" fill="#80e29d"/><path d="m322.48 344.331h-21.628c3.513 0 6.361 2.848 6.361 6.361v40.391c0 3.513-2.848 6.361-6.361 6.361h21.628c3.513 0 6.361-2.848 6.361-6.361v-40.391c0-3.513-2.848-6.361-6.361-6.361z" fill="#66b49d"/></g></svg>