<svg id="Capa_1" enable-background="new 0 0 512 512" height="512" viewBox="0 0 512 512" width="512" xmlns="http://www.w3.org/2000/svg"><g><path d="m480.018 512h-448.036c-7.906 0-14.316-6.409-14.316-14.316v-262.55l23.214-20.619h427.011l26.442 20.619v262.55c0 7.907-6.409 14.316-14.315 14.316z" fill="#fff6f4"/><path d="m466.526 214.515v283.169c0 7.906-6.409 14.316-14.316 14.316h27.807c7.906 0 14.316-6.409 14.316-14.316v-262.55z" fill="#d8e2f1"/><path d="m480.018 167.953h-448.036c-7.906 0-14.316 6.409-14.316 14.316v52.865h476.667v-52.865c0-7.907-6.409-14.316-14.315-14.316z" fill="#9dc6fb"/><path d="m480.018 167.953h-27.808c7.906 0 14.316 6.409 14.316 14.316v52.865h27.807v-52.865c0-7.907-6.409-14.316-14.315-14.316z" fill="#8993da"/><g><g><path d="m57.869 209.275h-6.621c-4.27 0-7.732-3.461-7.732-7.732s3.462-7.732 7.732-7.732h6.621c4.27 0 7.732 3.461 7.732 7.732s-3.462 7.732-7.732 7.732z" fill="#fff6f4"/></g><g><path d="m91.581 209.275h-6.621c-4.27 0-7.732-3.461-7.732-7.732s3.462-7.732 7.732-7.732h6.621c4.27 0 7.732 3.461 7.732 7.732s-3.462 7.732-7.732 7.732z" fill="#fff6f4"/></g><g><path d="m125.294 209.275h-6.621c-4.27 0-7.732-3.461-7.732-7.732s3.462-7.732 7.732-7.732h6.621c4.27 0 7.732 3.461 7.732 7.732s-3.462 7.732-7.732 7.732z" fill="#fff6f4"/></g></g><g><g><g><path d="m70.929 319.249c-1.902 0-3.808-.698-5.301-2.105l-16.372-15.427c-1.55-1.461-2.429-3.496-2.429-5.627 0-2.13.879-4.166 2.429-5.627l16.372-15.427c3.108-2.931 8.001-2.783 10.93.324 2.929 3.108 2.783 8.002-.325 10.929l-10.4 9.8 10.4 9.8c3.108 2.928 3.253 7.822.325 10.929-1.522 1.616-3.574 2.431-5.629 2.431z" fill="#2b4d66"/></g><g><path d="m126.585 319.249c-2.056 0-4.108-.815-5.629-2.429-2.929-3.108-2.783-8.002.325-10.929l10.4-9.8-10.4-9.8c-3.108-2.928-3.253-7.822-.325-10.929s7.823-3.253 10.93-.324l16.372 15.427c1.55 1.461 2.429 3.496 2.429 5.627 0 2.13-.879 4.166-2.429 5.627l-16.372 15.427c-1.493 1.406-3.399 2.103-5.301 2.103z" fill="#2b4d66"/></g><g><path d="m91.01 319.251c-1.215 0-2.447-.288-3.597-.893-3.778-1.99-5.228-6.666-3.238-10.444l16.251-30.853c1.99-3.777 6.667-5.226 10.444-3.238 3.778 1.99 5.228 6.666 3.238 10.444l-16.251 30.853c-1.384 2.629-4.07 4.131-6.847 4.131z" fill="#2b4d66"/></g></g><g><path d="m214.763 319.249h-36.945c-4.27 0-7.732-3.461-7.732-7.732s3.462-7.732 7.732-7.732h36.945c4.27 0 7.732 3.461 7.732 7.732s-3.462 7.732-7.732 7.732z" fill="#9dc6fb"/></g><g><path d="m301.922 319.249h-57.563c-4.27 0-7.732-3.461-7.732-7.732s3.462-7.732 7.732-7.732h57.563c4.271 0 7.732 3.461 7.732 7.732s-3.461 7.732-7.732 7.732z" fill="#dd636e"/></g><g><path d="m153.663 359.986h-99.104c-4.27 0-7.732-3.461-7.732-7.732s3.462-7.732 7.732-7.732h99.105c4.27 0 7.732 3.461 7.732 7.732s-3.463 7.732-7.733 7.732z" fill="#dd636e"/></g><g><path d="m102.117 398.058h-47.558c-4.27 0-7.732-3.461-7.732-7.732s3.462-7.732 7.732-7.732h47.558c4.27 0 7.732 3.461 7.732 7.732s-3.462 7.732-7.732 7.732z" fill="#dd636e"/></g><g><path d="m133.045 436.13h-78.486c-4.27 0-7.732-3.461-7.732-7.732s3.462-7.732 7.732-7.732h78.486c4.27 0 7.732 3.461 7.732 7.732s-3.462 7.732-7.732 7.732z" fill="#9dc6fb"/></g><g><path d="m81.498 474.202h-26.94c-4.27 0-7.732-3.461-7.732-7.732s3.462-7.732 7.732-7.732h26.94c4.27 0 7.732 3.461 7.732 7.732s-3.462 7.732-7.732 7.732z" fill="#2b4d66"/></g><g><path d="m231.903 359.986h-47.558c-4.27 0-7.732-3.461-7.732-7.732s3.462-7.732 7.732-7.732h47.558c4.27 0 7.732 3.461 7.732 7.732s-3.462 7.732-7.732 7.732z" fill="#2b4d66"/></g><g><path d="m286.349 359.986h-26.939c-4.27 0-7.732-3.461-7.732-7.732s3.462-7.732 7.732-7.732h26.939c4.271 0 7.732 3.461 7.732 7.732s-3.462 7.732-7.732 7.732z" fill="#9dc6fb"/></g><g><path d="m391.652 359.986h-78.487c-4.271 0-7.732-3.461-7.732-7.732s3.461-7.732 7.732-7.732h78.487c4.271 0 7.732 3.461 7.732 7.732s-3.461 7.732-7.732 7.732z" fill="#dd636e"/></g><g><path d="m231.903 398.058h-104.548c-4.27 0-7.732-3.461-7.732-7.732s3.462-7.732 7.732-7.732h104.548c4.27 0 7.732 3.461 7.732 7.732s-3.462 7.732-7.732 7.732z" fill="#9dc6fb"/></g><g><path d="m324.489 398.058h-65.079c-4.27 0-7.732-3.461-7.732-7.732s3.462-7.732 7.732-7.732h65.079c4.271 0 7.732 3.461 7.732 7.732s-3.461 7.732-7.732 7.732z" fill="#dd636e"/></g><g><path d="m250.929 436.13h-90.049c-4.27 0-7.732-3.461-7.732-7.732s3.462-7.732 7.732-7.732h90.049c4.27 0 7.732 3.461 7.732 7.732s-3.462 7.732-7.732 7.732z" fill="#2b4d66"/></g><g><path d="m352.41 436.13h-74.115c-4.271 0-7.732-3.461-7.732-7.732s3.461-7.732 7.732-7.732h74.115c4.271 0 7.732 3.461 7.732 7.732s-3.462 7.732-7.732 7.732z" fill="#dd636e"/></g><g><path d="m227.793 474.202h-120.526c-4.27 0-7.732-3.461-7.732-7.732s3.462-7.732 7.732-7.732h120.526c4.27 0 7.732 3.461 7.732 7.732s-3.462 7.732-7.732 7.732z" fill="#dd636e"/></g><g><path d="m384.998 474.202h-130.744c-4.27 0-7.732-3.461-7.732-7.732s3.462-7.732 7.732-7.732h130.743c4.271 0 7.732 3.461 7.732 7.732.001 4.271-3.461 7.732-7.731 7.732z" fill="#9dc6fb"/></g></g><path d="m328.144 194.938c-48.096 20.128-96.192 20.128-144.288 0-4.64-1.942-7.675-6.469-7.675-11.499v-115.589h159.637v115.59c.001 5.029-3.034 9.556-7.674 11.498z" fill="#4a80aa"/><path d="m318.449 67.85v108.183c0 5.03-3.035 9.557-7.675 11.499-43.443 18.181-86.886 19.935-130.329 5.272.999.875 2.142 1.604 3.411 2.135 48.096 20.128 96.192 20.128 144.288 0 4.64-1.942 7.675-6.469 7.675-11.499v-115.59z" fill="#407093"/><path d="m379.664 72.533c-63.716 35.062-94.531 52.19-109.621 60.411-3.537 1.927-30.065-1.179-30.065-1.179l-107.642-59.232c-1.922-1.058-1.922-3.82 0-4.877l122.322-67.311c.836-.46 1.848-.46 2.684 0l122.322 67.311c1.922 1.058 1.922 3.82 0 4.877z" fill="#365e7d"/><path d="m379.664 67.656-122.322-67.311c-.836-.46-1.848-.46-2.684 0l-14.68 8.078 107.641 59.233c1.922 1.058 1.922 3.82 0 4.877l-107.641 59.233c14.205 7.338 15.014 9.372 17.364 8.078l122.322-67.311c1.922-1.057 1.922-3.819 0-4.877z" fill="#2b4d66"/><g><path d="m301.096 182.062c-4.271 0-7.732-3.461-7.732-7.732v-56.365l-44.735-42.25c-3.104-2.932-3.244-7.826-.312-10.929 2.931-3.107 7.825-3.245 10.93-.312l47.157 44.538c1.546 1.46 2.423 3.493 2.423 5.621v59.697c.001 4.271-3.461 7.732-7.731 7.732z" fill="#407093"/></g></g></svg>