<svg id="Capa_1" enable-background="new 0 0 512 512" height="512" viewBox="0 0 512 512" width="512" xmlns="http://www.w3.org/2000/svg"><g><path d="m429.467 45.336h-80.87v-37.13c0-4.532 3.674-8.206 8.206-8.206h64.459c4.532 0 8.206 3.674 8.206 8.206v37.13z" fill="#365e7d"/><path d="m386.813 512h-327.448c-6.861 0-12.422-5.562-12.422-12.422v-420.084c0-6.861 5.562-12.422 12.422-12.422h327.448c6.861 0 12.422 5.562 12.422 12.422v420.084c.001 6.86-5.561 12.422-12.422 12.422z" fill="#fff6f4"/><path d="m386.813 67.072h-20.943c6.861 0 12.422 5.562 12.422 12.422v420.084c0 6.861-5.562 12.422-12.422 12.422h20.943c6.861 0 12.422-5.562 12.422-12.422v-420.084c.001-6.861-5.561-12.422-12.422-12.422z" fill="#d8e2f1"/><g><g><path d="m336.961 135.508h-227.744c-4.268 0-7.726-3.459-7.726-7.726 0-4.268 3.459-7.726 7.726-7.726h227.744c4.268 0 7.726 3.459 7.726 7.726.001 4.268-3.458 7.726-7.726 7.726z" fill="#365e7d"/></g><g><circle cx="140.276" cy="193.858" fill="#dd636e" r="19.913"/><circle cx="223.089" cy="193.858" fill="#dd636e" r="19.913"/><circle cx="305.903" cy="193.858" fill="#365e7d" r="19.913"/></g><g><path d="m336.961 267.66h-227.744c-4.268 0-7.726-3.459-7.726-7.726s3.459-7.726 7.726-7.726h227.744c4.268 0 7.726 3.459 7.726 7.726s-3.458 7.726-7.726 7.726z" fill="#365e7d"/></g><g><circle cx="140.276" cy="326.01" fill="#365e7d" r="19.913"/><g fill="#dd636e"><circle cx="223.089" cy="326.01" r="19.913"/><circle cx="305.903" cy="326.01" r="19.913"/></g></g><g><path d="m336.961 399.812h-227.744c-4.268 0-7.726-3.459-7.726-7.726 0-4.268 3.459-7.726 7.726-7.726h227.744c4.268 0 7.726 3.459 7.726 7.726.001 4.267-3.458 7.726-7.726 7.726z" fill="#365e7d"/></g><g><circle cx="140.276" cy="458.162" fill="#365e7d" r="19.913"/><g fill="#dd636e"><circle cx="223.089" cy="458.162" r="19.913"/><circle cx="305.903" cy="458.162" r="19.913"/></g></g></g><circle cx="389.031" cy="103.509" fill="#f6e266" r="76.026"/><path d="m389.031 27.483c-4.031 0-7.986.32-11.848.924 36.36 5.691 64.178 37.145 64.178 75.102s-27.818 69.411-64.178 75.102c3.861.604 7.817.924 11.848.924 41.988 0 76.026-34.038 76.026-76.026s-34.038-76.026-76.026-76.026z" fill="#ecbe6b"/><g><path d="m389.032 63.391c-4.268 0-7.726-3.459-7.726-7.726v-4.486c0-4.268 3.459-7.726 7.726-7.726s7.726 3.459 7.726 7.726v4.486c0 4.267-3.459 7.726-7.726 7.726z" fill="#365e7d"/></g><g><path d="m441.362 111.236h-4.486c-4.268 0-7.726-3.459-7.726-7.726 0-4.268 3.459-7.726 7.726-7.726h4.486c4.268 0 7.726 3.459 7.726 7.726s-3.459 7.726-7.726 7.726z" fill="#365e7d"/></g><g><path d="m389.032 163.566c-4.268 0-7.726-3.459-7.726-7.726v-4.486c0-4.268 3.459-7.726 7.726-7.726s7.726 3.459 7.726 7.726v4.486c0 4.267-3.459 7.726-7.726 7.726z" fill="#365e7d"/></g><g><path d="m341.187 111.236h-4.486c-4.268 0-7.726-3.459-7.726-7.726 0-4.268 3.459-7.726 7.726-7.726h4.486c4.268 0 7.726 3.459 7.726 7.726s-3.459 7.726-7.726 7.726z" fill="#365e7d"/></g><g><path d="m403.84 111.236h-14.808c-4.268 0-7.726-3.459-7.726-7.726v-25.298c0-4.268 3.459-7.726 7.726-7.726s7.726 3.459 7.726 7.726v17.571h7.081c4.268 0 7.726 3.459 7.726 7.726.001 4.268-3.458 7.727-7.725 7.727z" fill="#365e7d"/></g></g></svg>