<svg id="Capa_1" enable-background="new 0 0 512 512" height="512" viewBox="0 0 512 512" width="512" xmlns="http://www.w3.org/2000/svg"><g><path d="m511.113 440.021-30.265-155.39c-.002-.011-.003-.022-.005-.033l-.058-.362-.002.001c-7.289-46.495-46.285-82.448-94.165-85.096v-.172h-246.906v.365c-2.367-.203-4.755-.329-7.165-.365-51.115-.743-93.68 36.471-101.33 85.268l-.002-.001-.058.362c-.002.011-.003.022-.005.033l-30.265 155.39c-5.681 29.17 16.657 56.279 46.375 56.279 13.601 0 26.542-5.861 35.513-16.084l41.336-47.106c11.177-12.737 30.334-15.055 43.936-4.949 6.079 4.516 13.61 7.188 21.767 7.188 17.065 0 30.635-11.428 35.055-26.155 3.99-13.294 15.845-22.66 29.724-22.66h2.829c13.874 0 25.723 9.363 29.709 22.652 4.417 14.727 17.98 26.163 35.055 26.163 8.157 0 15.688-2.672 21.767-7.188 13.603-10.105 32.76-7.787 43.936 4.949l41.336 47.106c8.971 10.223 21.912 16.084 35.513 16.084 29.718 0 52.056-27.109 46.375-56.279z" fill="#fff6f4"/><path d="m511.113 440.021-30.265-155.39c-.002-.011-.003-.022-.005-.033l-.058-.362-.002.001c-7.289-46.495-46.285-82.448-94.165-85.096v-.172h-25.906v.172c47.88 2.648 86.876 38.6 94.165 85.096l.002-.001.058.362c.002.011.003.022.005.033l30.265 155.39c4.815 24.724-10.502 47.96-33.378 54.471 4.159 1.182 8.498 1.808 12.909 1.808 29.718 0 52.056-27.109 46.375-56.279z" fill="#d8e2f1"/><g fill="#365e7d"><path d="m143.361 275.902h-23.261c-2.816 0-5.241-1.987-5.794-4.748l-5.54-27.655c-.733-3.657 2.064-7.07 5.794-7.07h34.34c3.73 0 6.526 3.413 5.794 7.07l-5.54 27.655c-.552 2.76-2.977 4.748-5.793 4.748z"/><path d="m149.498 305.299v-23.261c0-2.816 1.987-5.241 4.748-5.794l27.655-5.54c3.657-.733 7.07 2.064 7.07 5.794v34.34c0 3.73-3.413 6.526-7.07 5.794l-27.655-5.54c-2.761-.552-4.748-2.977-4.748-5.793z"/><path d="m120.1 311.437h23.261c2.816 0 5.241 1.987 5.794 4.748l5.54 27.655c.733 3.657-2.064 7.07-5.794 7.07h-34.34c-3.73 0-6.526-3.413-5.794-7.07l5.54-27.655c.552-2.761 2.977-4.748 5.793-4.748z"/><path d="m113.963 282.039v23.261c0 2.816-1.987 5.241-4.748 5.794l-27.655 5.54c-3.657.733-7.07-2.064-7.07-5.794v-34.34c0-3.73 3.413-6.526 7.07-5.794l27.655 5.54c2.761.552 4.748 2.977 4.748 5.793z"/></g><g><circle cx="383.392" cy="253.319" fill="#80e29d" r="21.664"/></g><g><circle cx="344.106" cy="292.605" fill="#dd636e" r="21.664"/></g><g><circle cx="383.392" cy="331.891" fill="#9dc6fb" r="21.664"/></g><g><circle cx="422.678" cy="292.605" fill="#f6e266" r="21.664"/></g><circle cx="184.778" cy="383.644" fill="#365e7d" r="20.761"/><circle cx="326.642" cy="383.644" fill="#365e7d" r="20.761"/><g><path d="m235.737 305.927h-11.286c-4.268 0-7.726-3.459-7.726-7.726s3.459-7.726 7.726-7.726h11.286c4.268 0 7.726 3.459 7.726 7.726s-3.458 7.726-7.726 7.726z" fill="#dd636e"/></g><g><path d="m287.549 305.927h-11.286c-4.268 0-7.726-3.459-7.726-7.726s3.459-7.726 7.726-7.726h11.286c4.268 0 7.726 3.459 7.726 7.726s-3.459 7.726-7.726 7.726z" fill="#dd636e"/></g><g><path d="m290.264 270.847h-68.528c-4.268 0-7.726-3.459-7.726-7.726s3.459-7.726 7.726-7.726h68.528c4.268 0 7.726 3.459 7.726 7.726s-3.458 7.726-7.726 7.726z" fill="#2b4d66"/></g><path d="m328.091 210.497c-48.061 20.114-96.122 20.114-144.183 0-4.637-1.94-7.669-6.464-7.669-11.491v-115.506h159.521v115.506c.001 5.026-3.032 9.55-7.669 11.491z" fill="#4a80aa"/><path d="m318.404 83.5v108.104c0 5.026-3.033 9.55-7.669 11.491-43.411 18.168-86.823 19.92-130.234 5.268.999.874 2.141 1.603 3.408 2.134 48.061 20.114 96.122 20.114 144.183 0 4.637-1.94 7.669-6.464 7.669-11.491v-115.506z" fill="#407093"/><path d="m379.574 88.181c-77.068 42.409-139.584 59.19-139.584 59.19l-107.563-59.19c-1.921-1.057-1.921-3.817 0-4.874l122.233-67.262c.835-.459 1.847-.459 2.682 0l122.233 67.262c1.919 1.057 1.919 3.817-.001 4.874z" fill="#365e7d"/><path d="m379.574 83.307-122.233-67.262c-.835-.459-1.847-.459-2.682 0l-14.67 8.072 107.563 59.19c1.921 1.057 1.921 3.817 0 4.874l-107.563 59.19c14.194 7.332 15.003 9.365 17.352 8.072l122.233-67.262c1.92-1.057 1.92-3.817 0-4.874z" fill="#2b4d66"/><g><path d="m297.972 194.539c-4.268 0-7.726-3.459-7.726-7.726v-53.233l-44.702-42.22c-3.103-2.93-3.242-7.82-.312-10.922 2.93-3.104 7.821-3.241 10.922-.312l47.124 44.506c1.545 1.459 2.422 3.491 2.422 5.617v56.563c-.001 4.269-3.46 7.727-7.728 7.727z" fill="#407093"/></g></g></svg>