<svg id="Capa_1" enable-background="new 0 0 512 512" height="512" viewBox="0 0 512 512" width="512" xmlns="http://www.w3.org/2000/svg"><g><path d="m374.461 397.319-329.52 45.484-11.268-15.021v-403.931c0-13.173 10.678-23.851 23.85-23.851h293.087c13.172 0 23.851 10.678 23.851 23.851z" fill="#dd636e"/><path d="m374.461 23.851c0-13.173-10.678-23.851-23.851-23.851h-29.017c13.173 0 23.851 10.678 23.851 23.851v373.468l-311.771 43.033v4.005l340.788-47.039z" fill="#c63d4f"/><path d="m374.461 397.319h-310.326c-16.824 0-30.462 13.638-30.462 30.462v33.153c0 16.824 13.638 30.462 30.462 30.462h286.475c13.172 0 23.851-10.678 23.851-23.851z" fill="#fff6f4"/><path d="m345.444 397.319v70.227c0 13.172-10.678 23.851-23.851 23.851h29.017c13.172 0 23.851-10.678 23.851-23.851v-70.227z" fill="#d8e2f1"/><path d="m316.419 133.022c0 1.807-1.465 3.272-3.272 3.272h-218.16c-1.807 0-3.272-1.465-3.272-3.272v-77.585c0-1.807 1.465-3.272 3.272-3.272h218.16c1.807 0 3.272 1.465 3.272 3.272z" fill="#fff6f4"/><path d="m313.147 52.165h-22.924c1.807 0 3.272 1.465 3.272 3.272v77.585c0 1.807-1.465 3.272-3.272 3.272h22.924c1.807 0 3.272-1.465 3.272-3.272v-77.585c0-1.807-1.465-3.272-3.272-3.272z" fill="#d8e2f1"/><g><path d="m259.877 101.956h-111.62c-4.268 0-7.726-3.459-7.726-7.726s3.459-7.726 7.726-7.726h111.62c4.268 0 7.726 3.459 7.726 7.726s-3.458 7.726-7.726 7.726z" fill="#2b4d66"/></g><g><g><path d="m244.377 209.301h-80.621c-4.268 0-7.726-3.459-7.726-7.726 0-4.268 3.459-7.726 7.726-7.726h80.621c4.268 0 7.726 3.459 7.726 7.726s-3.458 7.726-7.726 7.726z" fill="#c63d4f"/></g><g><path d="m273.618 255.365h-139.102c-4.268 0-7.726-3.459-7.726-7.726s3.459-7.726 7.726-7.726h139.103c4.268 0 7.726 3.459 7.726 7.726s-3.459 7.726-7.727 7.726z" fill="#c63d4f"/></g></g><path d="m249.551 511.75-20.217-6.183c-1.073-.328-2.219-.328-3.292 0l-20.217 6.183c-3.617 1.106-7.273-1.599-7.273-5.381v-47.126h58.271v47.126c.001 3.782-3.655 6.487-7.272 5.381z" fill="#dd636e"/><g><path d="m240.731 459.243v47.126c0 .911-.216 1.756-.588 2.504l9.408 2.877c3.617 1.106 7.273-1.599 7.273-5.381v-47.126z" fill="#c63d4f"/></g><circle cx="399.961" cy="354.274" fill="#9dc6fb" r="78.367"/><path d="m399.961 275.907c-4.524 0-8.951.405-13.265 1.141 36.96 6.305 65.102 38.469 65.102 77.226s-28.142 70.922-65.102 77.226c4.314.736 8.741 1.141 13.265 1.141 43.281 0 78.367-35.086 78.367-78.367s-35.087-78.367-78.367-78.367z" fill="#8993da"/><path d="m397.298 390.268-32.7-18.564c-2.137-1.213-3.457-3.481-3.457-5.938v-22.983c0-2.457 1.32-4.725 3.457-5.938l32.7-18.564c1.203-.683 2.696.186 2.696 1.569v68.848c0 1.384-1.493 2.253-2.696 1.57z" fill="#fff6f4"/><g><g><path d="m422.969 378.717c-2.083 0-4.161-.838-5.684-2.491-2.891-3.139-2.691-8.027.447-10.919 3.124-2.877 4.844-6.796 4.844-11.033s-1.72-8.156-4.844-11.033c-3.138-2.891-3.338-7.78-.447-10.919 2.89-3.137 7.778-3.337 10.918-.448 6.244 5.754 9.826 13.917 9.826 22.399s-3.581 16.646-9.826 22.399c-1.485 1.368-3.362 2.045-5.234 2.045z" fill="#8993da"/></g></g><g><g><path d="m327.799 437.198h-247.465c-4.268 0-7.726-3.459-7.726-7.726s3.459-7.726 7.726-7.726h247.466c4.268 0 7.726 3.459 7.726 7.726s-3.459 7.726-7.727 7.726z" fill="#d8e2f1"/></g><g><path d="m327.799 466.969h-247.465c-4.268 0-7.726-3.459-7.726-7.726s3.459-7.726 7.726-7.726h247.466c4.268 0 7.726 3.459 7.726 7.726s-3.459 7.726-7.727 7.726z" fill="#d8e2f1"/></g></g></g></svg>