<svg id="Capa_1" enable-background="new 0 0 512 512" height="512" viewBox="0 0 512 512" width="512" xmlns="http://www.w3.org/2000/svg"><g><path d="m476.32 370.699c0 7.901-6.405 14.305-14.305 14.305h-447.71c-7.9 0-14.305-6.404-14.305-14.305v-303.567l23.197-20.604h426.701l26.423 20.604v303.567z" fill="#fff6f4"/><path d="m448.534 46.528v324.171c0 7.901-6.405 14.305-14.305 14.305h27.787c7.9 0 14.305-6.405 14.305-14.305v-303.567z" fill="#d8e2f1"/><path d="m462.015 0h-447.71c-7.9 0-14.305 6.405-14.305 14.305v52.827h476.32v-52.827c0-7.9-6.404-14.305-14.305-14.305z" fill="#9dc6fb"/><path d="m462.015 0h-27.787c7.901 0 14.305 6.405 14.305 14.305v52.827h27.787v-52.827c.001-7.9-6.404-14.305-14.305-14.305z" fill="#8993da"/><g><g><path d="m40.173 41.292h-6.616c-4.268 0-7.726-3.459-7.726-7.726 0-4.268 3.459-7.726 7.726-7.726h6.616c4.268 0 7.726 3.459 7.726 7.726 0 4.268-3.459 7.726-7.726 7.726z" fill="#fff6f4"/></g><g><path d="m73.861 41.292h-6.616c-4.268 0-7.726-3.459-7.726-7.726 0-4.268 3.459-7.726 7.726-7.726h6.616c4.268 0 7.726 3.459 7.726 7.726 0 4.268-3.459 7.726-7.726 7.726z" fill="#fff6f4"/></g><g><path d="m107.549 41.292h-6.617c-4.268 0-7.726-3.459-7.726-7.726 0-4.268 3.459-7.726 7.726-7.726h6.617c4.268 0 7.726 3.459 7.726 7.726 0 4.268-3.458 7.726-7.726 7.726z" fill="#fff6f4"/></g></g><g><g><g><path d="m249.065 176.933c-3.122 0-6.062-1.906-7.229-5l-19.629-52.013-19.819 52.035c-1.519 3.988-5.984 5.989-9.971 4.47s-5.989-5.983-4.47-9.971l25.634-67.303c.022-.057.044-.115.067-.171 1.43-3.499 4.795-5.763 8.573-5.767h.011c3.776 0 7.141 2.255 8.576 5.747.028.069.056.139.083.209l25.4 67.306c1.507 3.993-.508 8.451-4.5 9.957-.897.34-1.82.501-2.726.501z" fill="#2b4d66"/></g><g><path d="m241.199 160.17h-38.036c-4.268 0-7.726-3.459-7.726-7.726 0-4.268 3.459-7.726 7.726-7.726h38.036c4.268 0 7.726 3.459 7.726 7.726s-3.459 7.726-7.726 7.726z" fill="#2b4d66"/></g></g><g><g><path d="m108.71 202.181h-69.997c-4.268 0-7.726-3.459-7.726-7.726 0-4.268 3.459-7.726 7.726-7.726h69.997c4.268 0 7.726 3.459 7.726 7.726s-3.458 7.726-7.726 7.726z" fill="#2b4d66"/></g><g><path d="m54.91 265.458c-3.329 0-6.402-2.169-7.401-5.523-1.218-4.09 1.11-8.392 5.199-9.61 44.724-13.323 37.809-52.729 37.492-54.4-.791-4.18 1.943-8.229 6.119-9.039 4.178-.811 8.218 1.893 9.045 6.064.112.564 2.686 13.989-1.992 29.524-4.358 14.474-15.921 33.625-46.254 42.66-.735.22-1.478.324-2.208.324z" fill="#2b4d66"/></g><g><path d="m90.049 262.081c-1.77 0-3.548-.605-5.002-1.841l-30.373-25.84c-3.251-2.766-3.644-7.642-.879-10.891s7.642-3.643 10.891-.879l30.373 25.84c3.251 2.766 3.644 7.642.879 10.891-1.528 1.797-3.702 2.72-5.889 2.72z" fill="#2b4d66"/></g><g><path d="m73.711 202.181c-4.268 0-7.726-3.459-7.726-7.726v-13.875c0-4.268 3.459-7.726 7.726-7.726 4.268 0 7.726 3.459 7.726 7.726v13.874c0 4.268-3.458 7.727-7.726 7.727z" fill="#2b4d66"/></g></g><g><g><path d="m99.584 155.725c-1.064 0-2.147-.221-3.18-.689-3.887-1.759-5.614-6.337-3.854-10.224 10.796-23.86 33.769-39.537 59.954-40.914 4.254-.254 7.897 3.047 8.121 7.31.224 4.261-3.048 7.897-7.31 8.121-20.392 1.073-38.282 13.279-46.686 31.854-1.292 2.853-4.103 4.542-7.045 4.542z" fill="#2b4d66"/></g><g><path d="m94.542 163.758c-1.576 0-3.134-.483-4.45-1.409-1.882-1.326-3.075-3.423-3.254-5.718l-1.395-17.965c-.33-4.255 2.85-7.971 7.105-8.302 4.259-.34 7.971 2.851 8.302 7.105l.672 8.654 8.35-2.274c4.116-1.121 8.363 1.307 9.485 5.425 1.122 4.117-1.307 8.363-5.425 9.485l-17.36 4.728c-.668.182-1.351.271-2.03.271z" fill="#2b4d66"/></g><g><path d="m148.994 131.219c-1.807 0-3.621-.63-5.088-1.913-3.21-2.812-3.533-7.693-.722-10.903l5.783-6.602-6.409-6.138c-3.083-2.951-3.189-7.842-.237-10.924 2.951-3.085 7.842-3.188 10.924-.237l11.747 11.248c2.986 2.859 3.193 7.561.47 10.671l-10.651 12.162c-1.53 1.744-3.668 2.636-5.817 2.636z" fill="#2b4d66"/></g></g><g><g><path d="m143.936 253.225c-4.08 0-7.492-3.197-7.708-7.321-.224-4.261 3.048-7.897 7.31-8.121 20.392-1.073 38.282-13.279 46.686-31.854 1.76-3.886 6.336-5.614 10.224-3.854 3.887 1.759 5.614 6.337 3.854 10.224-10.796 23.86-33.769 39.537-59.954 40.914-.137.009-.275.012-.412.012z" fill="#2b4d66"/></g><g><path d="m203.698 226.77c-3.996 0-7.38-3.077-7.695-7.128l-.672-8.654-8.35 2.274c-4.114 1.118-8.363-1.308-9.485-5.425s1.307-8.363 5.425-9.485l17.36-4.728c2.217-.606 4.597-.188 6.48 1.138 1.882 1.326 3.075 3.423 3.254 5.718l1.395 17.965c.33 4.255-2.85 7.971-7.105 8.302-.204.016-.407.023-.607.023z" fill="#2b4d66"/></g><g><path d="m148.951 264.755c-1.922 0-3.845-.712-5.342-2.146l-11.747-11.248c-2.986-2.859-3.193-7.561-.47-10.671l10.651-12.162c2.813-3.209 7.692-3.533 10.903-.722 3.21 2.812 3.533 7.693.722 10.903l-5.783 6.602 6.409 6.138c3.083 2.951 3.189 7.842.237 10.924-1.515 1.584-3.546 2.382-5.58 2.382z" fill="#2b4d66"/></g></g></g><path d="m429.423 256.13h-115.481c-8.157 0-14.769-6.612-14.769-14.769v-37.062c0-8.157 6.612-14.769 14.769-14.769h115.482c8.157 0 14.769 6.613 14.769 14.769v37.062c0 8.157-6.613 14.769-14.77 14.769z" fill="#9dc6fb"/><path d="m429.423 189.529h-22.879c8.157 0 14.769 6.613 14.769 14.77v37.062c0 8.157-6.612 14.769-14.769 14.769h22.879c8.157 0 14.77-6.612 14.77-14.769v-37.062c0-8.157-6.613-14.77-14.77-14.77z" fill="#8993da"/><g><path d="m480.576 512c2.983 0 5.402-2.418 5.402-5.402v-38.064c0-6.43 1.774-12.707 5.088-18l14.54-23.225c6.743-10.772 8.256-24.504 4.048-36.741l-6.888-20.026-13.312-28.196h-98.386l-18.872 23.541c-2.182 2.722-5.958 3.57-9.095 2.043l-28.47-13.861c-6.14-2.99-13.319-1.475-18.022 3.803-6.236 6.998-6.144 18.24.205 25.114l43.863 47.488c4.982 5.394 7.788 12.767 7.788 20.462v55.66c0 2.983 2.418 5.402 5.402 5.402h106.709z" fill="#f1d0a5"/></g><g><path d="m509.653 390.569-6.888-20.025-13.312-28.196-15.479-.544 12.004 28.74 5.38 20.025c4.209 12.236 2.696 25.969-4.048 36.741l-14.54 23.225c-3.313 5.293-5.088 11.57-5.088 18v43.465h12.893c2.983 0 5.402-2.418 5.402-5.402v-38.064c0-6.43 1.774-12.707 5.088-18l14.54-23.225c6.744-10.771 8.257-24.503 4.048-36.74z" fill="#f1b986"/></g><g fill="#f1d0a5"><path d="m402.04 370.544v-125.267c0-10.215-7.516-18.495-16.788-18.495-9.272 0-16.788 8.281-16.788 18.495v125.267z"/><path d="m435.615 370.544v-54.151c0-6.198-5.633-11.222-12.582-11.222h-8.412c-6.949 0-12.582 5.024-12.582 11.222v54.151z"/><path d="m469.19 370.544v-54.151c0-6.198-5.633-11.222-12.582-11.222h-8.412c-6.949 0-12.582 5.024-12.582 11.222v54.151z"/><path d="m502.766 370.544v-54.151c0-6.198-5.633-11.222-12.582-11.222h-8.412c-6.949 0-12.582 5.024-12.582 11.222v54.151z"/></g><path d="m490.184 305.171h-8.412c-1.471 0-2.876.237-4.188.65 4.886 1.54 8.394 5.685 8.394 10.572v54.151h16.788v-54.151c0-6.198-5.633-11.222-12.582-11.222z" fill="#f1b986"/><g><path d="m402.04 378.27c-4.268 0-7.726-3.459-7.726-7.726v-54.151c0-4.268 3.459-7.726 7.726-7.726s7.726 3.459 7.726 7.726v54.151c0 4.267-3.459 7.726-7.726 7.726z" fill="#f1b986"/></g><g><path d="m435.615 378.27c-4.268 0-7.726-3.459-7.726-7.726v-54.151c0-4.268 3.459-7.726 7.726-7.726s7.726 3.459 7.726 7.726v54.151c.001 4.267-3.458 7.726-7.726 7.726z" fill="#f1b986"/></g><g><path d="m469.191 378.27c-4.268 0-7.726-3.459-7.726-7.726v-54.151c0-4.268 3.459-7.726 7.726-7.726s7.726 3.459 7.726 7.726v54.151c0 4.267-3.459 7.726-7.726 7.726z" fill="#f1b986"/></g><g><path d="m194.329 315.12h-127.084c-4.268 0-7.726-3.459-7.726-7.726s3.459-7.726 7.726-7.726h127.083c4.268 0 7.726 3.459 7.726 7.726s-3.458 7.726-7.725 7.726z" fill="#9dc6fb"/></g><g><path d="m142.82 352.04h-75.575c-4.268 0-7.726-3.459-7.726-7.726s3.459-7.726 7.726-7.726h75.574c4.268 0 7.726 3.459 7.726 7.726s-3.458 7.726-7.725 7.726z" fill="#9dc6fb"/></g></g></svg>