<svg id="Capa_1" enable-background="new 0 0 512 512" height="512" viewBox="0 0 512 512" width="512" xmlns="http://www.w3.org/2000/svg"><g><path d="m11.818 88.877c-6.527 0-11.818 5.291-11.818 11.818v229.869c0 22.485 18.227 40.712 40.712 40.712h170.691c5.12 0 9.633 3.357 11.107 8.26l2.069 4.825c1.474 4.903 5.988 8.26 11.107 8.26h40.626c5.12 0 9.633-3.357 11.107-8.26l2.069-4.825c1.474-4.903 5.988-8.26 11.107-8.26h170.691c22.485 0 40.712-18.227 40.712-40.712v-229.869c0-6.527-5.291-11.818-11.818-11.818h-184.424l-60.338 82.148-67.696-82.148z" fill="#9dc6fb"/><g><path d="m500.182 88.877h-25.592c6.527 0 11.818 5.291 11.818 11.818v229.869c0 22.485-18.227 40.712-40.712 40.712h25.592c22.485 0 40.712-18.227 40.712-40.712v-229.869c0-6.527-5.291-11.818-11.818-11.818z" fill="#8993da"/></g><path d="m462.264 326.558h-179.765c-14.635 0-26.499-11.864-26.499-26.499l-30.905-12.032v-169.299l30.905-13.126c0-30.926 25.071-55.997 55.997-55.997h150.268c3.879 0 7.024 3.145 7.024 7.024v262.906c-.001 3.879-3.146 7.023-7.025 7.023z" fill="#fff6f4"/><path d="m462.264 49.606h-23.592c3.879 0 7.024 3.145 7.024 7.024v262.906c0 3.879-3.145 7.024-7.024 7.024h23.592c3.879 0 7.024-3.145 7.024-7.024v-262.907c0-3.879-3.145-7.023-7.024-7.023z" fill="#d8e2f1"/><path d="m229.501 326.558h-179.765c-3.879 0-7.024-3.145-7.024-7.024v-262.905c0-3.879 3.145-7.024 7.024-7.024h150.268c30.926 0 55.997 25.071 55.997 55.997v194.457c-.001 14.635-11.865 26.499-26.5 26.499z" fill="#fff6f4"/><path d="m200.003 49.606h-24.231c30.926 0 55.997 25.071 55.997 55.997v194.457c0 14.635-11.864 26.499-26.499 26.499h24.231c14.635 0 26.499-11.864 26.499-26.499v-194.458c0-30.926-25.071-55.996-55.997-55.996z" fill="#d8e2f1"/><g><g><path d="m422.092 116.604h-118.896c-4.268 0-7.726-3.459-7.726-7.726s3.459-7.726 7.726-7.726h118.896c4.268 0 7.726 3.459 7.726 7.726.001 4.267-3.458 7.726-7.726 7.726z" fill="#d8e2f1"/></g><g><path d="m422.092 169.407h-118.896c-4.268 0-7.726-3.459-7.726-7.726s3.459-7.726 7.726-7.726h118.896c4.268 0 7.726 3.459 7.726 7.726s-3.458 7.726-7.726 7.726z" fill="#d8e2f1"/></g><g><path d="m422.092 222.21h-118.896c-4.268 0-7.726-3.459-7.726-7.726s3.459-7.726 7.726-7.726h118.896c4.268 0 7.726 3.459 7.726 7.726s-3.458 7.726-7.726 7.726z" fill="#d8e2f1"/></g><g><path d="m422.092 275.012h-118.896c-4.268 0-7.726-3.459-7.726-7.726s3.459-7.726 7.726-7.726h118.896c4.268 0 7.726 3.459 7.726 7.726s-3.458 7.726-7.726 7.726z" fill="#d8e2f1"/></g></g><g><g><path d="m208.804 116.604h-118.896c-4.267 0-7.726-3.459-7.726-7.726s3.459-7.726 7.726-7.726h118.896c4.267 0 7.726 3.459 7.726 7.726s-3.459 7.726-7.726 7.726z" fill="#d8e2f1"/></g><g><path d="m208.804 169.407h-118.896c-4.267 0-7.726-3.459-7.726-7.726s3.459-7.726 7.726-7.726h118.896c4.267 0 7.726 3.459 7.726 7.726s-3.459 7.726-7.726 7.726z" fill="#d8e2f1"/></g><g><path d="m208.804 222.21h-118.896c-4.267 0-7.726-3.459-7.726-7.726s3.459-7.726 7.726-7.726h118.896c4.267 0 7.726 3.459 7.726 7.726s-3.459 7.726-7.726 7.726z" fill="#d8e2f1"/></g><g><path d="m208.804 275.012h-118.896c-4.267 0-7.726-3.459-7.726-7.726s3.459-7.726 7.726-7.726h118.896c4.267 0 7.726 3.459 7.726 7.726s-3.459 7.726-7.726 7.726z" fill="#d8e2f1"/></g></g><path d="m337.441 445.353c-54.294 22.722-108.588 22.722-162.882 0-5.238-2.192-8.664-7.303-8.664-12.981v-130.486h180.209v130.486c.001 5.678-3.425 10.789-8.663 12.981z" fill="#4a80aa"/><path d="m326.497 301.886v122.124c0 5.678-3.426 10.789-8.664 12.981-49.041 20.524-98.083 22.504-147.124 5.951 1.128.987 2.418 1.811 3.85 2.41 54.294 22.722 108.588 22.722 162.882 0 5.238-2.192 8.664-7.303 8.664-12.981v-130.485z" fill="#407093"/><path d="m395.6 307.174-138.085 75.986c-.943.519-2.086.519-3.03 0l-138.085-75.986c-2.17-1.194-2.17-4.312 0-5.506l138.085-75.986c.943-.519 2.086-.519 3.03 0l138.085 75.986c2.17 1.194 2.17 4.312 0 5.506z" fill="#365e7d"/><path d="m395.6 301.668-138.085-75.986c-.943-.519-2.086-.519-3.03 0l-16.572 9.119 121.513 66.866c2.17 1.194 2.17 4.312 0 5.506l-121.513 66.867 16.572 9.119c.943.519 2.086.519 3.03 0l138.085-75.985c2.17-1.194 2.17-4.312 0-5.506z" fill="#2b4d66"/><g><path d="m309.234 429.815c-4.268 0-7.726-3.459-7.726-7.726v-64.06l-50.813-47.991c-3.102-2.93-3.242-7.82-.312-10.922 2.929-3.104 7.82-3.243 10.923-.312l53.233 50.278c1.545 1.459 2.422 3.491 2.422 5.617v67.39c-.001 4.267-3.459 7.726-7.727 7.726z" fill="#407093"/></g></g></svg>