<svg id="Capa_1" enable-background="new 0 0 512 512" height="512" viewBox="0 0 512 512" width="512" xmlns="http://www.w3.org/2000/svg"><g><g><path d="m11.818 39.271c-6.527 0-11.818 5.292-11.818 11.819v229.869c0 22.485 18.227 40.712 40.712 40.712h170.691c5.12 0 9.633 3.357 11.107 8.26l2.069 4.825c1.474 4.903 5.988 8.26 11.107 8.26h40.626c5.12 0 9.633-3.357 11.107-8.26l2.069-4.825c1.474-4.903 5.987-8.26 11.107-8.26h170.691c22.485 0 40.712-18.227 40.712-40.712v-229.869c0-6.527-5.291-11.818-11.818-11.818h-184.424l-60.338 82.148-67.696-82.148h-175.904z" fill="#dd636e"/><g><path d="m500.182 39.271h-25.592c6.527 0 11.818 5.291 11.818 11.818v229.869c0 22.485-18.227 40.712-40.712 40.712h25.592c22.485 0 40.712-18.227 40.712-40.712v-229.868c0-6.527-5.291-11.819-11.818-11.819z" fill="#c63d4f"/></g><path d="m462.264 276.953h-179.765c-14.635 0-26.499-11.864-26.499-26.499l-30.905-12.032v-169.3l30.905-13.125c0-30.926 25.071-55.997 55.997-55.997h150.268c3.879 0 7.024 3.145 7.024 7.024v262.906c-.001 3.878-3.146 7.023-7.025 7.023z" fill="#fff6f4"/><path d="m462.264 0h-23.592c3.879 0 7.024 3.145 7.024 7.024v262.906c0 3.879-3.145 7.024-7.024 7.024h23.592c3.879 0 7.024-3.145 7.024-7.024v-262.906c0-3.879-3.145-7.024-7.024-7.024z" fill="#d8e2f1"/><path d="m229.501 276.953h-179.765c-3.879 0-7.024-3.145-7.024-7.024v-262.905c0-3.879 3.145-7.024 7.024-7.024h150.268c30.925 0 55.996 25.071 55.996 55.997v194.457c0 14.635-11.864 26.499-26.499 26.499z" fill="#fff6f4"/><path d="m200.003 0h-24.231c30.926 0 55.997 25.071 55.997 55.997v194.457c0 14.635-11.864 26.499-26.499 26.499h24.231c14.635 0 26.499-11.864 26.499-26.499v-194.457c0-30.926-25.071-55.997-55.997-55.997z" fill="#d8e2f1"/><g><g><path d="m422.092 66.999h-118.896c-4.268 0-7.726-3.459-7.726-7.726s3.459-7.726 7.726-7.726h118.896c4.268 0 7.726 3.459 7.726 7.726s-3.458 7.726-7.726 7.726z" fill="#d8e2f1"/></g><g><path d="m422.092 119.801h-118.896c-4.268 0-7.726-3.459-7.726-7.726s3.459-7.726 7.726-7.726h118.896c4.268 0 7.726 3.459 7.726 7.726s-3.458 7.726-7.726 7.726z" fill="#d8e2f1"/></g><g><path d="m422.092 172.604h-118.896c-4.268 0-7.726-3.459-7.726-7.726s3.459-7.726 7.726-7.726h118.896c4.268 0 7.726 3.459 7.726 7.726s-3.458 7.726-7.726 7.726z" fill="#d8e2f1"/></g><g><path d="m422.092 225.407h-118.896c-4.268 0-7.726-3.459-7.726-7.726 0-4.268 3.459-7.726 7.726-7.726h118.896c4.268 0 7.726 3.459 7.726 7.726.001 4.267-3.458 7.726-7.726 7.726z" fill="#d8e2f1"/></g></g><g><g><path d="m208.804 66.999h-118.896c-4.268 0-7.726-3.459-7.726-7.726s3.459-7.726 7.726-7.726h118.896c4.268 0 7.726 3.459 7.726 7.726s-3.458 7.726-7.726 7.726z" fill="#d8e2f1"/></g><g><path d="m208.804 119.801h-118.896c-4.268 0-7.726-3.459-7.726-7.726s3.459-7.726 7.726-7.726h118.896c4.268 0 7.726 3.459 7.726 7.726s-3.458 7.726-7.726 7.726z" fill="#d8e2f1"/></g><g><path d="m208.804 172.604h-118.896c-4.268 0-7.726-3.459-7.726-7.726s3.459-7.726 7.726-7.726h118.896c4.268 0 7.726 3.459 7.726 7.726s-3.458 7.726-7.726 7.726z" fill="#d8e2f1"/></g><g><path d="m208.804 225.407h-118.896c-4.268 0-7.726-3.459-7.726-7.726 0-4.268 3.459-7.726 7.726-7.726h118.896c4.268 0 7.726 3.459 7.726 7.726.001 4.267-3.458 7.726-7.726 7.726z" fill="#d8e2f1"/></g></g></g><g><path d="m236.025 373.429h39.951v95.074h-39.951z" fill="#4a80aa"/><path d="m256 398.772c-34.572 0-62.597-28.026-62.597-62.597v-79.993c0-34.571 28.026-62.597 62.597-62.597 34.571 0 62.597 28.026 62.597 62.597v79.993c0 34.572-28.025 62.597-62.597 62.597z" fill="#365e7d"/><path d="m256 193.586c-4.169 0-8.24.417-12.18 1.194 28.739 5.669 50.417 31.001 50.417 61.403v79.993c0 30.402-21.677 55.733-50.417 61.403 3.941.777 8.011 1.194 12.18 1.194 34.571 0 62.597-28.025 62.597-62.597v-79.993c0-34.572-28.026-62.597-62.597-62.597z" fill="#2b4d66"/><path d="m330.139 512h-148.278c-2.505 0-4.536-2.031-4.536-4.536v-13.77c0-13.912 11.278-25.19 25.19-25.19h106.969c13.912 0 25.19 11.278 25.19 25.19v13.77c.001 2.505-2.03 4.536-4.535 4.536z" fill="#365e7d"/><path d="m309.485 468.503h-23.066c13.912 0 25.191 11.278 25.191 25.191v18.306h18.53c2.505 0 4.536-2.031 4.536-4.536v-13.77c-.001-13.913-11.279-25.191-25.191-25.191z" fill="#2b4d66"/><g><path d="m280.565 431.744h-49.13c-43.166 0-78.284-35.118-78.284-78.284v-4.779c0-4.268 3.459-7.726 7.726-7.726 4.268 0 7.726 3.459 7.726 7.726v4.779c0 34.645 28.186 62.831 62.831 62.831h49.13c34.645 0 62.831-28.186 62.831-62.831v-4.779c0-4.268 3.459-7.726 7.726-7.726s7.726 3.459 7.726 7.726v4.779c.002 43.166-35.116 78.284-78.282 78.284z" fill="#2b4d66"/></g><g><path d="m256.001 370.072c-4.268 0-7.726-3.459-7.726-7.726v-27.26c0-4.268 3.459-7.726 7.726-7.726s7.726 3.459 7.726 7.726v27.26c0 4.267-3.459 7.726-7.726 7.726z" fill="#4a80aa"/></g></g></g></svg>