<svg id="Capa_1" enable-background="new 0 0 512 512" height="512" viewBox="0 0 512 512" width="512" xmlns="http://www.w3.org/2000/svg"><g><path d="m506.739 512h-501.478c-2.906 0-5.261-2.355-5.261-5.261v-43.227c0-6.021 4.881-10.901 10.901-10.901h490.197c6.021 0 10.901 4.881 10.901 10.901v43.227c.001 2.906-2.355 5.261-5.26 5.261z" fill="#365e7d"/><path d="m501.099 452.611h-27.3c6.021 0 10.901 4.881 10.901 10.901v48.488h22.039c2.906 0 5.261-2.355 5.261-5.261v-43.227c0-6.021-4.881-10.901-10.901-10.901z" fill="#2b4d66"/><path d="m460.161 452.611h-320.322c-31.246 0-56.576-25.33-56.576-56.576 0-31.246 25.33-56.576 56.576-56.576h308.451c3.238 0 5.863 2.625 5.863 5.863z" fill="#f6e266"/><path d="m432.141 339.458v113.153h28.021v-33.114l-7.618-22.748 7.618-24.348v-27.08c0-3.238-2.625-5.863-5.863-5.863z" fill="#ecbe6b"/><path d="m116.203 396.034c0-13.054 10.582-23.636 23.636-23.636h320.322v47.271h-320.322c-13.054.001-23.636-10.581-23.636-23.635z" fill="#fff6f4"/><path d="m432.141 372.399h28.021v47.272h-28.021z" fill="#d8e2f1"/><path d="m449.339 226.305h-309.5c-31.246 0-56.576-25.33-56.576-56.576 0-31.246 25.33-56.576 56.576-56.576h309.499c3.238 0 5.863 2.625 5.863 5.863v101.427c.001 3.237-2.624 5.862-5.862 5.862z" fill="#80e29d"/><path d="m432.141 113.153v113.153h22.158c3.238 0 5.863-2.625 5.863-5.863v-27.08l-10.124-23.42 10.124-23.849v-27.078c0-3.238-2.625-5.863-5.863-5.863z" fill="#66b49d"/><path d="m116.203 169.729c0-13.054 10.582-23.636 23.636-23.636h320.322v47.271h-320.322c-13.054.001-23.636-10.581-23.636-23.635z" fill="#fff6f4"/><path d="m432.141 146.093h28.021v47.272h-28.021z" fill="#d8e2f1"/><path d="m67.166 339.458h314.459c31.246 0 56.576-25.33 56.576-56.576 0-31.246-25.33-56.576-56.576-56.576h-314.459c-3.238 0-5.863 2.625-5.863 5.863v27.185l19.879 25.024-19.879 22.104v27.113c0 3.238 2.625 5.863 5.863 5.863z" fill="#dd636e"/><path d="m381.625 226.305h-32.94c31.246 0 56.576 25.33 56.576 56.576 0 31.246-25.33 56.576-56.576 56.576h32.94c31.246 0 56.576-25.33 56.576-56.576 0-31.246-25.33-56.576-56.576-56.576z" fill="#c63d4f"/><path d="m405.261 282.882c0-13.054-10.582-23.636-23.636-23.636h-320.322v47.271h320.322c13.054.001 23.636-10.582 23.636-23.635z" fill="#fff6f4"/><path d="m381.626 259.246h-24.158c13.054 0 23.636 10.582 23.636 23.636s-10.582 23.636-23.636 23.636h24.158c13.053 0 23.636-10.582 23.636-23.636s-10.583-23.636-23.636-23.636z" fill="#d8e2f1"/><path d="m23.245 113.153h314.459c31.246 0 56.576-25.33 56.576-56.576.001-31.247-25.329-56.577-56.576-56.577h-314.459c-3.238 0-5.863 2.625-5.863 5.863v27.089l6.725 22.448-6.725 24.687v27.202c0 3.239 2.625 5.864 5.863 5.864z" fill="#9dc6fb"/><path d="m337.704 0h-32.94c31.246 0 56.576 25.33 56.576 56.576 0 31.246-25.33 56.576-56.576 56.576h32.94c31.246 0 56.576-25.33 56.576-56.576.001-31.246-25.329-56.576-56.576-56.576z" fill="#8993da"/><path d="m361.34 56.577c0-13.054-10.582-23.636-23.636-23.636h-320.322v47.272h320.322c13.054-.001 23.636-10.583 23.636-23.636z" fill="#fff6f4"/><path d="m337.705 32.941h-24.158c13.054 0 23.636 10.582 23.636 23.636s-10.583 23.635-23.637 23.635h24.158c13.053 0 23.636-10.582 23.636-23.636s-10.582-23.635-23.635-23.635z" fill="#d8e2f1"/></g></svg>