<svg id="Capa_1" enable-background="new 0 0 512 512" height="512" viewBox="0 0 512 512" width="512" xmlns="http://www.w3.org/2000/svg"><g><path d="m138.197 395.097h-84.49c-9.926 0-17.972-8.046-17.972-17.972v-299.736c0-9.926 8.046-17.972 17.972-17.972h84.491c9.926 0 17.972 8.046 17.972 17.972v299.736c-.001 9.925-8.047 17.972-17.973 17.972z" fill="#9dc6fb"/><path d="m138.197 59.417h-25.691c9.926 0 17.972 8.046 17.972 17.972v299.736c0 9.926-8.046 17.972-17.972 17.972h25.691c9.926 0 17.972-8.046 17.972-17.972v-299.736c0-9.926-8.046-17.972-17.972-17.972z" fill="#8993da"/><g><path d="m95.951 270.659c-4.268 0-7.726-3.459-7.726-7.726v-140.358c0-4.268 3.459-7.726 7.726-7.726 4.268 0 7.726 3.459 7.726 7.726v140.358c.001 4.267-3.458 7.726-7.726 7.726z" fill="#8993da"/></g><path d="m458.293 395.097h-63.887c-9.926 0-17.972-8.046-17.972-17.972v-299.736c0-9.926 8.046-17.972 17.972-17.972h63.887c9.926 0 17.972 8.046 17.972 17.972v299.736c0 9.925-8.046 17.972-17.972 17.972z" fill="#f6e266"/><path d="m458.293 59.417h-25.691c9.926 0 17.972 8.046 17.972 17.972v299.736c0 9.926-8.046 17.972-17.972 17.972h25.691c9.926 0 17.972-8.046 17.972-17.972v-299.736c0-9.926-8.046-17.972-17.972-17.972z" fill="#ecbe6b"/><path d="m358.462 395.097h-84.491c-9.926 0-17.972-8.046-17.972-17.972v-299.736c0-9.926 8.046-17.972 17.972-17.972h84.491c9.926 0 17.972 8.046 17.972 17.972v299.736c0 9.925-8.046 17.972-17.972 17.972z" fill="#dd636e"/><path d="m358.462 59.417h-25.691c9.926 0 17.972 8.046 17.972 17.972v299.736c0 9.926-8.046 17.972-17.972 17.972h25.691c9.926 0 17.972-8.046 17.972-17.972v-299.736c0-9.926-8.046-17.972-17.972-17.972z" fill="#c63d4f"/><path d="m238.028 395.097h-63.887c-9.926 0-17.972-8.046-17.972-17.972v-258.529c0-9.926 8.046-17.972 17.972-17.972h63.887c9.926 0 17.972 8.046 17.972 17.972v258.529c0 9.925-8.046 17.972-17.972 17.972z" fill="#80e29d"/><path d="m238.028 100.624h-25.691c9.926 0 17.972 8.046 17.972 17.972v258.529c0 9.926-8.046 17.972-17.972 17.972h25.691c9.926 0 17.972-8.046 17.972-17.972v-258.529c0-9.925-8.046-17.972-17.972-17.972z" fill="#66b49d"/><path d="m317.866 316.857-2.248 12.914c-2.631 15.111-15.748 26.141-31.086 26.141h-57.063c-15.338 0-28.455-11.03-31.086-26.141l-2.248-12.914c-.981-5.636-5.873-9.75-11.594-9.75h-174.672c-4.346 0-7.869 3.523-7.869 7.869v104.105c0 18.503 14.999 33.502 33.502 33.502h444.995c18.503 0 33.503-15 33.503-33.503v-104.104c0-4.346-3.523-7.869-7.869-7.869h-174.671c-5.721 0-10.613 4.114-11.594 9.75z" fill="#365e7d"/><g fill="#2b4d66"><path d="m158.077 316.857 2.248 12.914c2.631 15.111 15.748 26.141 31.086 26.141h36.056c-15.338 0-28.455-11.03-31.086-26.141l-2.248-12.914c-.981-5.636-5.873-9.75-11.594-9.75h-36.056c5.721 0 10.613 4.114 11.594 9.75z"/><path d="m504.131 307.107h-36.056c4.346 0 7.869 3.523 7.869 7.869v104.104c0 18.503-14.999 33.503-33.503 33.503h36.056c18.503 0 33.503-15 33.503-33.503v-104.104c0-4.346-3.523-7.869-7.869-7.869z"/></g><g><path d="m294.436 413.037h-76.872c-4.268 0-7.726-3.459-7.726-7.726s3.459-7.726 7.726-7.726h76.872c4.268 0 7.726 3.459 7.726 7.726s-3.458 7.726-7.726 7.726z" fill="#2b4d66"/></g><g><path d="m317.658 270.659c-4.268 0-7.726-3.459-7.726-7.726v-140.358c0-4.268 3.459-7.726 7.726-7.726s7.726 3.459 7.726 7.726v140.358c0 4.267-3.459 7.726-7.726 7.726z" fill="#c63d4f"/></g></g></svg>