<svg id="Capa_1" enable-background="new 0 0 512 512" height="512" viewBox="0 0 512 512" width="512" xmlns="http://www.w3.org/2000/svg"><g><path d="m67.126 196.803-54.713 53.171c-14.286 13.883-16.51 36.033-5.269 52.479l25.86 37.837c3.103 4.54 4.763 9.91 4.763 15.409v28.819h40.965v-123.429-55.063z" fill="#f1d0a5"/><path d="m444.874 196.803 54.713 53.171c14.286 13.883 16.51 36.033 5.269 52.479l-25.86 37.837c-3.103 4.54-4.763 9.91-4.763 15.409v28.819h-40.965v-123.429-55.063z" fill="#f1d0a5"/><path d="m499.587 249.974-54.713-53.171-9.648 7.668 46.823 45.503c14.286 13.883 16.51 36.033 5.269 52.479l-25.86 37.837c-3.103 4.54-4.763 9.91-4.763 15.409v28.819h17.538v-28.819c0-5.499 1.66-10.87 4.763-15.409l25.86-37.837c11.241-16.446 9.017-38.596-5.269-52.479z" fill="#f1b986"/><path d="m72.704 103.742c-4.9 0-8.872 3.972-8.872 8.872v172.552c0 16.878 13.682 30.561 30.561 30.561h128.13c3.843 0 7.231 2.52 8.338 6.2l1.553 3.622c1.106 3.68 4.495 6.2 8.338 6.2h30.496c3.843 0 7.231-2.52 8.338-6.2l1.553-3.622c1.106-3.68 4.495-6.2 8.338-6.2h128.13c16.878 0 30.561-13.682 30.561-30.561v-172.553c0-4.9-3.972-8.872-8.872-8.872h-138.44l-45.293 61.665-50.816-61.665h-132.043z" fill="#9dc6fb"/><g><path d="m439.296 103.742h-19.211c4.9 0 8.872 3.972 8.872 8.872v172.552c0 16.878-13.682 30.561-30.561 30.561h19.211c16.878 0 30.561-13.682 30.561-30.561v-172.553c-.001-4.899-3.973-8.871-8.872-8.871z" fill="#8993da"/></g><path d="m410.833 282.158h-134.941c-10.986 0-19.892-8.906-19.892-19.892l-23.199-9.032v-127.085l23.199-9.853c0-23.215 18.819-42.034 42.034-42.034h112.799c2.912 0 5.272 2.36 5.272 5.272v197.351c0 2.912-2.36 5.273-5.272 5.273z" fill="#fff6f4"/><path d="m410.833 74.262h-17.709c2.912 0 5.272 2.36 5.272 5.272v197.351c0 2.912-2.361 5.272-5.272 5.272h17.709c2.912 0 5.272-2.361 5.272-5.272v-197.35c0-2.912-2.36-5.273-5.272-5.273z" fill="#d8e2f1"/><path d="m236.108 282.158h-134.941c-2.912 0-5.272-2.361-5.272-5.272v-197.351c0-2.912 2.36-5.272 5.272-5.272h112.799c23.215 0 42.034 18.819 42.034 42.034v145.97c0 10.985-8.906 19.891-19.892 19.891z" fill="#fff6f4"/><path d="m213.966 74.262h-18.189c23.215 0 42.034 18.819 42.034 42.034v145.97c0 10.986-8.906 19.892-19.892 19.892h18.189c10.986 0 19.892-8.906 19.892-19.892v-145.97c0-23.214-18.819-42.034-42.034-42.034z" fill="#d8e2f1"/><g><g><path d="m370.376 126.482h-73.798c-4.268 0-7.726-3.459-7.726-7.726s3.459-7.726 7.726-7.726h73.798c4.268 0 7.726 3.459 7.726 7.726s-3.459 7.726-7.726 7.726z" fill="#d8e2f1"/></g><g><path d="m370.376 166.118h-73.798c-4.268 0-7.726-3.459-7.726-7.726s3.459-7.726 7.726-7.726h73.798c4.268 0 7.726 3.459 7.726 7.726s-3.459 7.726-7.726 7.726z" fill="#d8e2f1"/></g><g><path d="m370.376 205.755h-73.798c-4.268 0-7.726-3.459-7.726-7.726s3.459-7.726 7.726-7.726h73.798c4.268 0 7.726 3.459 7.726 7.726 0 4.266-3.459 7.726-7.726 7.726z" fill="#d8e2f1"/></g><g><path d="m370.376 245.391h-73.798c-4.268 0-7.726-3.459-7.726-7.726s3.459-7.726 7.726-7.726h73.798c4.268 0 7.726 3.459 7.726 7.726s-3.459 7.726-7.726 7.726z" fill="#d8e2f1"/></g></g><g><g><path d="m215.421 126.482h-73.797c-4.268 0-7.726-3.459-7.726-7.726s3.459-7.726 7.726-7.726h73.797c4.268 0 7.726 3.459 7.726 7.726s-3.458 7.726-7.726 7.726z" fill="#d8e2f1"/></g><g><path d="m215.421 166.118h-73.797c-4.268 0-7.726-3.459-7.726-7.726s3.459-7.726 7.726-7.726h73.797c4.268 0 7.726 3.459 7.726 7.726s-3.458 7.726-7.726 7.726z" fill="#d8e2f1"/></g><g><path d="m215.421 205.755h-73.797c-4.268 0-7.726-3.459-7.726-7.726s3.459-7.726 7.726-7.726h73.797c4.268 0 7.726 3.459 7.726 7.726.001 4.266-3.458 7.726-7.726 7.726z" fill="#d8e2f1"/></g><g><path d="m215.421 245.391h-73.797c-4.268 0-7.726-3.459-7.726-7.726s3.459-7.726 7.726-7.726h73.797c4.268 0 7.726 3.459 7.726 7.726s-3.458 7.726-7.726 7.726z" fill="#d8e2f1"/></g></g><path d="m418.435 384.518-.653-31.483c-.104-4.481-.91-8.917-2.387-13.149-4.151-11.886-1.8-25.076 6.201-34.796 1.684-2.046 1.948-4.914.664-7.232l-25.516-49.324c-2.619-5.064-1.623-11.244 2.454-15.229 5.149-5.032 13.412-4.903 18.403.285l47.584 49.47-12.338 49.429-6.421 52.028h-27.991z" fill="#f1d0a5"/><path d="m93.565 384.518.653-31.483c.104-4.481.91-8.917 2.387-13.149 4.151-11.886 1.8-25.076-6.201-34.796-1.684-2.046-1.948-4.914-.664-7.232l25.516-49.324c2.619-5.064 1.623-11.244-2.454-15.229-5.149-5.032-13.412-4.903-18.403.285l-47.584 49.47 12.338 49.429 6.421 52.028h27.991z" fill="#f1d0a5"/><path d="m115.257 248.535c2.619-5.064 1.624-11.244-2.454-15.229-4.505-4.403-11.394-4.855-16.39-1.423.613.42 1.205.886 1.755 1.423 4.078 3.984 5.074 10.165 2.454 15.229l-25.516 49.324c-1.283 2.319-1.02 5.186.664 7.233 8.001 9.72 10.352 22.91 6.201 34.796-1.478 4.231-2.283 8.668-2.387 13.149l-.653 31.483h14.635l.653-31.483c.104-4.481.91-8.917 2.387-13.149 4.151-11.886 1.8-25.076-6.201-34.796-1.684-2.046-1.948-4.914-.664-7.233z" fill="#f1b986"/><path d="m487.835 437.738h-80.117c-3.543 0-6.415-2.872-6.415-6.415v-40.389c0-3.543 2.872-6.415 6.415-6.415h80.117c3.543 0 6.415 2.872 6.415 6.415v40.389c0 3.543-2.872 6.415-6.415 6.415z" fill="#365e7d"/><path d="m487.683 384.518h-17.586c3.627 0 6.567 2.806 6.567 6.266v40.687c0 3.461-2.94 6.266-6.567 6.266h17.586c3.627 0 6.567-2.806 6.567-6.266v-40.687c0-3.46-2.94-6.266-6.567-6.266z" fill="#2b4d66"/><path d="m104.282 437.738h-80.117c-3.543 0-6.415-2.872-6.415-6.415v-40.389c0-3.543 2.872-6.415 6.415-6.415h80.117c3.543 0 6.415 2.872 6.415 6.415v40.389c0 3.543-2.872 6.415-6.415 6.415z" fill="#365e7d"/><path d="m104.13 384.518h-17.587c3.627 0 6.567 2.806 6.567 6.266v40.687c0 3.461-2.94 6.266-6.567 6.266h17.586c3.627 0 6.567-2.806 6.567-6.266v-40.687c.001-3.46-2.939-6.266-6.566-6.266z" fill="#2b4d66"/></g></svg>