<svg id="Capa_1" enable-background="new 0 0 512 512" height="512" viewBox="0 0 512 512" width="512" xmlns="http://www.w3.org/2000/svg"><g><g><path d="m92.11 88.4c-.121 0-.241-.003-.362-.008-3.158-.148-5.908-2.204-6.942-5.192l-16.27-47.037c-1.395-4.033.743-8.433 4.776-9.828 4.034-1.397 8.433.743 9.827 4.776l9.94 28.735 13.35-29.403c1.764-3.885 6.344-5.605 10.229-3.841s5.605 6.344 3.841 10.229l-21.355 47.037c-1.258 2.768-4.016 4.532-7.034 4.532z" fill="#2b4d66"/></g><path d="m500.545 0h-147.39c-6.326 0-11.455 5.129-11.455 11.455v107.684c0 6.327 5.129 11.455 11.456 11.455h13.434c2.595 0 4.98 1.424 6.211 3.709l11.553 21.443c.939 1.743 3.44 1.743 4.379 0l11.554-21.443c1.231-2.284 3.616-3.709 6.211-3.709h94.046c6.327 0 11.455-5.129 11.455-11.455v-107.684c.001-6.326-5.128-11.455-11.454-11.455z" fill="#80e29d"/><g fill="#66b49d"><path d="m377.889 134.303-2.544 4.722 9.009 16.721c.939 1.743 3.44 1.743 4.379 0l11.554-21.443c1.231-2.284 3.616-3.709 6.211-3.709h-22.398c-2.594 0-4.98 1.425-6.211 3.709z"/><path d="m500.545 0h-22.398c6.327 0 11.455 5.129 11.455 11.455v107.684c0 6.326-5.129 11.455-11.455 11.455h22.398c6.327 0 11.455-5.129 11.455-11.455v-107.684c0-6.326-5.129-11.455-11.455-11.455z"/></g><path d="m294.023 233.404-22.79-30.785c-3.386-4.574-5.214-10.115-5.214-15.806v-56.219h-215.138v295.598h122.449v-80.46h19.39c40.482 0 73.299-32.817 73.299-73.299 0-8.101 4.563-15.512 11.797-19.16l13.051-6.581c4.944-2.492 6.451-8.838 3.156-13.288z" fill="#f1d0a5"/><path d="m294.023 233.404-22.79-30.785c-3.386-4.574-5.214-10.115-5.214-15.806v-18.094-38.125h-25.482-189.656l38.02 48.912c0-5.958 4.83-10.787 10.787-10.787h122.755c9.993 0 18.094 8.101 18.094 18.094 0 5.691 1.828 11.232 5.214 15.806l14.094 19.038c7.839 10.588 4.252 25.685-7.511 31.616-7.234 3.648-11.797 11.058-11.797 19.16 0 40.482-32.817 73.299-73.299 73.299h-19.39v80.46h25.482v-80.46h19.39c40.482 0 73.299-32.817 73.299-73.299 0-8.102 4.563-15.512 11.797-19.16l13.051-6.581c4.944-2.492 6.451-8.837 3.156-13.288z" fill="#f1b986"/><g><path d="m204.08 211.342c-4.267 0-7.726-3.459-7.726-7.726v-13.278c0-4.268 3.459-7.726 7.726-7.726s7.726 3.459 7.726 7.726v13.278c0 4.267-3.459 7.726-7.726 7.726z" fill="#2b4d66"/></g><g><path d="m241.472 316.392c-22.443 0-41.517-8.415-54.559-16.4-3.639-2.227-4.783-6.984-2.555-10.624 2.228-3.639 6.984-4.782 10.624-2.555 13.94 8.533 35.806 17.671 60.829 12.721 4.184-.835 8.251 1.894 9.078 6.082.827 4.186-1.895 8.25-6.081 9.077-5.96 1.178-11.752 1.699-17.336 1.699z" fill="#c63d4f"/></g><path d="m198.998 488.529-74.819 22.876c-2.593.793-5.363.793-7.955 0l-74.819-22.876c-5.72-1.749-9.626-7.028-9.626-13.009v-42.731c0-3.643 2.953-6.596 6.596-6.596h163.653c3.643 0 6.596 2.953 6.596 6.596v42.731c0 5.981-3.906 11.26-9.626 13.009z" fill="#dd636e"/><path d="m208.624 475.52v-42.731c0-3.643-2.953-6.596-6.596-6.596h-40.706c-7.824 24.781-23.351 59.142-52.971 82.806l7.873 2.407c2.593.793 5.363.793 7.955 0l74.819-22.876c5.72-1.75 9.626-7.029 9.626-13.01z" fill="#c63d4f"/><g><path d="m173.33 353.459h-50.964c-4.267 0-7.726-3.459-7.726-7.726s3.459-7.726 7.726-7.726h50.964c4.267 0 7.726 3.459 7.726 7.726s-3.459 7.726-7.726 7.726z" fill="#f1b986"/></g><path d="m251.445 60.07h-182.933c-37.838 0-68.512 30.673-68.512 68.511v20.389 82.347c0 37.887 30.713 68.601 68.601 68.601 11.211 0 20.3-9.089 20.3-20.3v-119.86c0-5.958 4.83-10.787 10.787-10.787h173.085c18.66 0 33.786-15.127 33.786-33.786.001-30.44-24.675-55.115-55.114-55.115z" fill="#365e7d"/><path d="m55.823 159.758v119.861c0 6.98-3.525 13.134-8.889 16.787 6.813 2.267 14.092 3.513 21.667 3.513 11.211 0 20.3-9.089 20.3-20.3v-119.861c0-5.958 4.83-10.787 10.787-10.787h-33.078c-5.958 0-10.787 4.829-10.787 10.787z" fill="#2b4d66"/><path d="m251.445 60.07h-33.078c30.439 0 55.115 24.676 55.115 55.115 0 18.66-15.126 33.786-33.786 33.786h33.078c18.66 0 33.786-15.127 33.786-33.786 0-30.44-24.676-55.115-55.115-55.115z" fill="#2b4d66"/><g><path d="m144.281 476.823h-48.159c-4.267 0-7.726-3.459-7.726-7.726s3.459-7.726 7.726-7.726h48.159c4.267 0 7.726 3.459 7.726 7.726s-3.459 7.726-7.726 7.726z" fill="#2b4d66"/></g><g><g><g><path d="m426.85 92.017c-4.268 0-7.726-3.459-7.726-7.726v-20.252c0-4.268 3.459-7.726 7.726-7.726 3.221 0 6.218-1.289 8.441-3.63 2.22-2.338 3.351-5.406 3.183-8.64-.314-6.05-5.312-10.885-11.379-11.008-.079-.001-.159-.002-.237-.002-5.797 0-10.732 4.263-11.534 10.007-.074.537-.113 1.089-.113 1.633 0 4.268-3.459 7.726-7.726 7.726-4.268 0-7.726-3.459-7.726-7.726 0-1.254.088-2.52.261-3.765 1.895-13.572 13.648-23.613 27.387-23.322 14.129.285 25.769 11.554 26.501 25.656.389 7.507-2.242 14.639-7.409 20.08-3.28 3.455-7.417 5.961-11.921 7.308v13.66c-.002 4.268-3.461 7.727-7.728 7.727z" fill="#fff6f4"/></g></g><g><path d="m426.85 113.014c-4.268 0-7.726-3.459-7.726-7.726v-.525c0-4.268 3.459-7.726 7.726-7.726s7.726 3.459 7.726 7.726v.525c0 4.267-3.459 7.726-7.726 7.726z" fill="#fff6f4"/></g></g></g></svg>