<svg id="Capa_1" enable-background="new 0 0 512 512" height="512" viewBox="0 0 512 512" width="512" xmlns="http://www.w3.org/2000/svg"><g><g><path d="m443.391 198.443c-3.16 0-6.016-1.93-7.185-4.889l-15.906-40.292c-1.566-3.969.381-8.457 4.35-10.024 3.972-1.568 8.456.381 10.023 4.35l7.733 19.588 5.707-18.976c1.229-4.087 5.536-6.402 9.625-5.174 4.087 1.229 6.402 5.538 5.173 9.624l-12.119 40.292c-.949 3.151-3.788 5.356-7.075 5.494-.109.005-.218.007-.326.007z" fill="#2b4d66"/></g><g><path d="m68.608 198.443c-.109 0-.217-.002-.326-.007-3.288-.138-6.127-2.343-7.075-5.494l-12.119-40.292c-1.228-4.087 1.088-8.395 5.174-9.624 4.082-1.23 8.395 1.086 9.625 5.174l5.706 18.975 7.733-19.587c1.566-3.97 6.056-5.913 10.023-4.35 3.969 1.567 5.916 6.055 4.35 10.024l-15.906 40.292c-1.169 2.959-4.025 4.889-7.185 4.889z" fill="#2b4d66"/></g><path d="m216.651 309.119c3.683-1.857 4.805-6.583 2.351-9.898l-16.975-22.93c-2.522-3.407-3.884-7.534-3.884-11.773v-41.874h-160.245v220.175h91.205v-58.507c0-.786.637-1.424 1.424-1.424h13.019c30.153 0 54.597-24.444 54.597-54.597 0-6.034 3.399-11.554 8.787-14.271z" fill="#f1d0a5"/><path d="m216.651 309.119c3.683-1.857 4.805-6.583 2.351-9.898l-16.975-22.93c-2.522-3.407-3.884-7.534-3.884-11.773v-13.478-28.397h-18.98-141.265l28.319 36.432c0-4.438 3.597-8.035 8.035-8.035h91.433c7.443 0 13.477 6.034 13.477 13.477 0 4.239 1.361 8.366 3.884 11.773l10.498 14.18c5.839 7.887 3.167 19.131-5.595 23.549-5.388 2.717-8.787 8.237-8.787 14.271 0 30.153-24.444 54.597-54.597 54.597h-14.443v59.93h18.98v-58.507c0-.786.637-1.424 1.424-1.424h13.019c30.153 0 54.597-24.444 54.597-54.597 0-6.034 3.399-11.554 8.787-14.271z" fill="#f1b986"/><g><path d="m152.008 284.759c-4.268 0-7.726-3.459-7.726-7.726v-9.889c0-4.268 3.459-7.726 7.726-7.726s7.726 3.459 7.726 7.726v9.889c0 4.267-3.459 7.726-7.726 7.726z" fill="#2b4d66"/></g><g><path d="m179.911 362.998c-29.621 0-51.127-19.106-52.152-20.034-3.165-2.862-3.409-7.749-.546-10.912 2.859-3.16 7.734-3.407 10.897-.56.303.269 23.575 20.675 52.047 15.052 4.183-.836 8.25 1.895 9.077 6.081.828 4.186-1.894 8.251-6.081 9.077-4.555.901-8.984 1.296-13.242 1.296z" fill="#c63d4f"/></g><path d="m148.223 489.25-55.729 17.04c-1.931.59-3.994.59-5.926 0l-55.728-17.04c-4.26-1.303-7.17-5.235-7.17-9.69v-31.828c0-2.713 2.2-4.913 4.913-4.913h121.897c2.713 0 4.913 2.2 4.913 4.913v31.828c0 4.455-2.91 8.388-7.17 9.69z" fill="#dd636e"/><path d="m155.393 479.56v-31.828c0-2.713-2.2-4.913-4.913-4.913h-30.32c-5.828 18.458-17.393 44.051-39.455 61.678l5.864 1.793c1.931.59 3.994.59 5.926 0l55.728-17.039c4.26-1.303 7.17-5.236 7.17-9.691z" fill="#c63d4f"/><path d="m187.288 170.114h-136.257c-28.184 0-51.031 22.847-51.031 51.031v15.187 61.336c0 28.22 22.877 51.097 51.097 51.097 8.351 0 15.12-6.77 15.12-15.12v-89.278c0-4.438 3.597-8.035 8.035-8.035h128.922c13.899 0 25.165-11.267 25.165-25.165.001-22.674-18.379-41.053-41.051-41.053z" fill="#365e7d"/><path d="m41.579 244.366v89.278c0 5.199-2.625 9.783-6.621 12.504 5.075 1.689 10.497 2.617 16.139 2.617 8.351 0 15.12-6.77 15.12-15.12v-89.278c0-4.438 3.597-8.035 8.035-8.035h-24.638c-4.437-.001-8.035 3.597-8.035 8.034z" fill="#2b4d66"/><path d="m187.288 170.114h-24.638c22.673 0 41.052 18.38 41.052 41.052 0 13.899-11.267 25.165-25.165 25.165h24.638c13.899 0 25.165-11.267 25.165-25.165 0-22.673-18.38-41.052-41.052-41.052z" fill="#2b4d66"/><path d="m292.998 299.221 16.975-22.93c2.522-3.407 3.884-7.534 3.884-11.773v-41.874h160.245v220.175h-91.205v-59.93h-14.443c-30.153 0-54.597-24.444-54.597-54.597 0-6.034-3.399-11.554-8.787-14.271l-9.721-4.902c-3.683-1.857-4.805-6.583-2.351-9.898z" fill="#f1d0a5"/><path d="m454.288 222.644h19.814v220.175h-19.814z" fill="#f1b986"/><path d="m454.288 222.644h-140.431v31.201h102.94c6.336 0 11.473 5.137 11.473 11.473v68.327c0 12.779 7.384 23.866 18.109 29.219 4.78 2.385 7.909 7.146 7.909 12.488v67.468h19.814v-77.828-142.348z" fill="#f1b986"/><g><path d="m359.992 284.759c-4.268 0-7.726-3.459-7.726-7.726v-9.889c0-4.268 3.459-7.726 7.726-7.726 4.268 0 7.726 3.459 7.726 7.726v9.889c0 4.267-3.459 7.726-7.726 7.726z" fill="#2b4d66"/></g><g><path d="m332.089 362.998c-4.26 0-8.685-.394-13.242-1.296-4.186-.827-6.909-4.891-6.081-9.077.827-4.187 4.898-6.912 9.077-6.081 28.52 5.638 51.815-14.845 52.047-15.053 3.173-2.839 8.054-2.58 10.903.585 2.847 3.167 2.605 8.032-.553 10.889-1.025.927-22.534 20.033-52.151 20.033z" fill="#c63d4f"/></g><path d="m481.16 489.25-55.728 17.039c-1.931.59-3.994.59-5.926 0l-55.728-17.039c-4.26-1.303-7.17-5.235-7.17-9.69v-31.828c0-2.713 2.2-4.913 4.913-4.913h121.896c2.713 0 4.913 2.2 4.913 4.913v31.828c0 4.455-2.91 8.388-7.17 9.69z" fill="#80e29d"/><path d="m488.33 479.56v-31.828c0-2.713-2.2-4.913-4.913-4.913h-30.319c-5.828 18.458-17.393 44.051-39.456 61.678l5.864 1.793c1.931.59 3.994.59 5.926 0l55.728-17.039c4.26-1.303 7.17-5.236 7.17-9.691z" fill="#66b49d"/><g><path d="m420.856 390.615h-37.96c-4.268 0-7.726-3.459-7.726-7.726s3.459-7.726 7.726-7.726h37.96c4.268 0 7.726 3.459 7.726 7.726s-3.459 7.726-7.726 7.726z" fill="#f1b986"/></g><g><path d="m128.582 390.615h-37.96c-4.268 0-7.726-3.459-7.726-7.726s3.459-7.726 7.726-7.726h37.96c4.268 0 7.726 3.459 7.726 7.726s-3.459 7.726-7.726 7.726z" fill="#f1b986"/></g><path d="m324.712 170.114h136.257c28.184 0 51.031 22.847 51.031 51.031v15.187 61.336c0 28.22-22.877 51.097-51.097 51.097-8.351 0-15.12-6.77-15.12-15.12v-89.278c0-4.438-3.597-8.035-8.035-8.035h-128.922c-13.899 0-25.165-11.267-25.165-25.165-.001-22.674 18.379-41.053 41.051-41.053z" fill="#365e7d"/><path d="m460.969 170.114h-23.67c28.184 0 51.031 22.847 51.031 51.031v15.187 61.336c0 22.812-14.951 42.126-35.587 48.693 2.355 1.515 5.152 2.404 8.16 2.404 28.22 0 51.097-22.877 51.097-51.097v-61.336-15.187c0-28.184-22.848-51.031-51.031-51.031z" fill="#2b4d66"/><path d="m295.251 44.519c0-22.186-18.407-40.073-40.782-39.222-20.187.767-36.702 17.103-37.674 37.281-.587 12.183 4.384 23.219 12.597 30.795 5.198 4.795 8.018 11.642 8.018 18.714v9.693h37.18v-9.693c0-7.263 3.148-14.091 8.418-19.088 7.54-7.153 12.243-17.266 12.243-28.48z" fill="#f6e266"/><path d="m254.469 5.297c-2.699.103-5.33.492-7.87 1.123 17.122 4.224 29.823 19.673 29.823 38.099 0 11.214-4.703 21.327-12.244 28.479-5.27 4.998-8.418 11.826-8.418 19.088v9.693h18.829v-9.693c0-7.263 3.148-14.091 8.418-19.088 7.541-7.152 12.244-17.266 12.244-28.479 0-22.186-18.407-40.073-40.782-39.222z" fill="#ecbe6b"/><path d="m260.407 145.969h-8.815c-14.844 0-26.878-12.034-26.878-26.878v-11.701c0-3.098 2.512-5.61 5.61-5.61h51.351c3.098 0 5.61 2.512 5.61 5.61v11.701c0 14.844-12.033 26.878-26.878 26.878z" fill="#365e7d"/><path d="m281.675 101.78h-13.885c3.099 0 5.61 2.512 5.61 5.61v11.701c0 13.989-10.688 25.477-24.343 26.756.835.078 1.68.123 2.535.123h8.815c14.844 0 26.878-12.034 26.878-26.878v-11.702c0-3.099-2.511-5.61-5.61-5.61z" fill="#2b4d66"/><g><path d="m256 73.035c-4.268 0-7.726-3.459-7.726-7.726v-10.86c0-4.267 3.459-7.726 7.726-7.726s7.726 3.459 7.726 7.726v10.859c0 4.267-3.459 7.727-7.726 7.727z" fill="#ecbe6b"/></g><g><g><path d="m107.548 210.95c-2.38 0-4.728-1.096-6.241-3.164-2.52-3.444-1.771-8.278 1.673-10.798l90.742-66.399c3.443-2.52 8.279-1.772 10.798 1.673 2.52 3.444 1.771 8.278-1.673 10.798l-90.742 66.399c-1.376 1.006-2.974 1.491-4.557 1.491z" fill="#f6e266"/></g><g><path d="m404.452 210.95c-1.583 0-3.181-.485-4.556-1.491l-90.742-66.399c-3.444-2.52-4.193-7.354-1.673-10.798 2.52-3.445 7.355-4.193 10.798-1.673l90.742 66.399c3.444 2.52 4.193 7.354 1.673 10.798-1.513 2.067-3.861 3.164-6.242 3.164z" fill="#f6e266"/></g></g></g></svg>