<svg id="Capa_1" enable-background="new 0 0 512 512" height="512" viewBox="0 0 512 512" width="512" xmlns="http://www.w3.org/2000/svg"><g><path d="m256 364.02c19.661 0 37.442 11.679 45.252 29.722 4.056 9.371 13.291 15.436 23.502 15.436h155.552l-22.252-107.071c-6.119-29.445-32.064-50.553-62.139-50.553h-279.83c-30.074 0-56.019 21.108-62.139 50.553l-22.251 107.071h155.551c10.211 0 19.446-6.066 23.502-15.436 7.81-18.043 25.591-29.722 45.252-29.722z" fill="#365e7d"/><g fill="#2b4d66"><path d="m229.832 364.02c-19.661 0-37.442 11.68-45.252 29.722-4.056 9.371-13.291 15.437-23.502 15.437h26.168c10.211 0 19.446-6.066 23.502-15.437 6.025-13.92 17.988-24.046 32.168-27.95-4.199-1.156-8.591-1.772-13.084-1.772z"/><path d="m458.054 302.108c-6.119-29.445-32.065-50.553-62.139-50.553h-26.168c30.074 0 56.019 21.108 62.139 50.553l22.252 107.071h26.168z"/></g><path d="m335.061 268.104c-52.707 22.058-105.415 22.058-158.122 0-5.085-2.128-8.411-7.089-8.411-12.602v-126.672h174.943v126.673c.001 5.511-3.325 10.473-8.41 12.601z" fill="#4a80aa"/><path d="m324.437 128.83v118.556c0 5.512-3.326 10.474-8.411 12.602-47.608 19.924-95.217 21.846-142.825 5.777 1.095.959 2.348 1.758 3.738 2.34 52.707 22.058 105.415 22.058 158.122 0 5.085-2.128 8.411-7.089 8.411-12.602v-126.673z" fill="#407093"/><path d="m391.521 133.962-134.05 73.765c-.916.504-2.025.504-2.941 0l-134.05-73.765c-2.106-1.159-2.106-4.186 0-5.345l134.05-73.765c.916-.504 2.025-.504 2.941 0l134.05 73.765c2.106 1.16 2.106 4.186 0 5.345z" fill="#365e7d"/><path d="m391.521 128.618-134.05-73.765c-.916-.504-2.026-.504-2.941 0l-16.088 8.853 117.962 64.912c2.106 1.159 2.106 4.186 0 5.345l-117.962 64.912 16.088 8.853c.916.504 2.026.504 2.941 0l134.05-73.765c2.106-1.16 2.106-4.186 0-5.345z" fill="#2b4d66"/><g><path d="m303.558 241.914c-4.268 0-7.726-3.459-7.726-7.726v-50.759l-49.258-46.522c-3.103-2.93-3.242-7.82-.312-10.922 2.93-3.104 7.82-3.241 10.922-.312l51.679 48.809c1.545 1.459 2.422 3.491 2.422 5.617v54.089c-.001 4.267-3.459 7.726-7.727 7.726z" fill="#407093"/></g><circle cx="93.505" cy="364.02" fill="#4a80aa" r="93.505"/><path d="m159.624 297.902c-20.825-20.824-49.026-29.753-76.192-26.826 20.47 2.206 40.353 11.134 56.045 26.826 36.516 36.516 36.516 95.721 0 132.237-15.692 15.691-35.575 24.62-56.045 26.825 27.166 2.928 55.367-6.001 76.192-26.825 36.516-36.517 36.516-95.721 0-132.237z" fill="#407093"/><circle cx="93.505" cy="364.02" fill="#d3effb" r="59.212"/><path d="m135.375 322.151c-14.429-14.429-34.452-19.853-53.088-16.275 11.23 2.156 21.956 7.579 30.651 16.275 23.124 23.124 23.124 60.615 0 83.739-8.695 8.695-19.421 14.118-30.651 16.274 18.636 3.578 38.659-1.845 53.088-16.274 23.124-23.124 23.124-60.616 0-83.739z" fill="#b1e4f9"/><circle cx="418.495" cy="364.02" fill="#4a80aa" r="93.505"/><path d="m484.613 297.902c-20.825-20.824-49.026-29.753-76.192-26.826 20.47 2.206 40.353 11.134 56.045 26.826 36.516 36.516 36.516 95.721 0 132.237-15.692 15.691-35.575 24.62-56.045 26.825 27.166 2.928 55.367-6.001 76.192-26.825 36.516-36.517 36.516-95.721 0-132.237z" fill="#407093"/><circle cx="418.495" cy="364.02" fill="#d3effb" r="59.212"/><path d="m460.364 322.151c-14.429-14.429-34.452-19.853-53.088-16.275 11.23 2.156 21.956 7.579 30.651 16.275 23.124 23.124 23.124 60.615 0 83.739-8.695 8.695-19.421 14.118-30.651 16.274 18.636 3.578 38.659-1.845 53.088-16.274 23.124-23.124 23.124-60.616 0-83.739z" fill="#b1e4f9"/><g><path d="m269.645 330.989h-27.289c-4.268 0-7.726-3.459-7.726-7.726s3.459-7.726 7.726-7.726h27.289c4.268 0 7.726 3.459 7.726 7.726s-3.459 7.726-7.726 7.726z" fill="#2b4d66"/></g></g></svg>