<svg id="Capa_1" enable-background="new 0 0 512 512" height="512" viewBox="0 0 512 512" width="512" xmlns="http://www.w3.org/2000/svg"><g><path d="m484.322 372.813h-456.644v-280.987c0-6.308 5.114-11.421 11.421-11.421h433.8c6.308 0 11.422 5.114 11.422 11.421v280.987z" fill="#4a80aa"/><path d="m484.322 91.826c0-6.308-5.114-11.421-11.421-11.421h-18.776c6.308 0 11.422 5.114 11.422 11.421v236.68c0 14.647-11.874 26.52-26.52 26.52h-411.349v17.786h437.867 18.776v-17.786-263.2z" fill="#407093"/><path d="m58.584 372.813v-258.638c0-1.583 1.283-2.865 2.865-2.865h389.101c1.582 0 2.865 1.283 2.865 2.865v258.638z" fill="#d3effb"/><path d="m428.395 111.31v224.919c0 10.382-8.416 18.798-18.798 18.798h-351.013v17.786h369.811 25.021v-17.786-240.852c0-1.583-1.283-2.865-2.865-2.865z" fill="#b1e4f9"/><path d="m498.121 431.595h-484.242c-7.665 0-13.879-6.214-13.879-13.879v-31.025c0-7.665 6.214-13.879 13.879-13.879h484.242c7.665 0 13.879 6.214 13.879 13.879v31.025c0 7.665-6.214 13.879-13.879 13.879z" fill="#365e7d"/><path d="m498.121 372.813h-24.268c7.665 0 13.879 6.214 13.879 13.879v31.025c0 7.665-6.214 13.879-13.879 13.879h24.268c7.665 0 13.879-6.214 13.879-13.879v-31.025c0-7.666-6.214-13.879-13.879-13.879z" fill="#2b4d66"/><path d="m293.267 402.204h-74.533c-3.045 0-5.818-1.751-7.128-4.5l-11.857-24.891h112.502l-11.857 24.891c-1.309 2.749-4.083 4.5-7.127 4.5z" fill="#4a80aa"/><path d="m243.473 372.813h-142.866v-60.25c0-30.028 24.342-54.37 54.37-54.37h34.125c30.028 0 54.37 24.342 54.37 54.37v60.25z" fill="#dd636e"/><path d="m189.103 258.192h-22.351c30.028 0 54.37 24.342 54.37 54.37v26.184c0 8.992-7.289 16.281-16.281 16.281h-104.234v17.786h120.515 22.351v-17.786-42.464c0-30.029-24.342-54.371-54.37-54.371z" fill="#c63d4f"/><path d="m172.04 275.816c-24.438 0-44.249-19.811-44.249-44.249v-44.153h88.499v44.153c0 24.438-19.811 44.249-44.25 44.249z" fill="#f1d0a5"/><path d="m197.18 187.414v44.153c0 21.156-14.851 38.834-34.695 43.203 3.078.678 6.273 1.046 9.555 1.046 24.438 0 44.249-19.811 44.249-44.249v-44.153z" fill="#f1b986"/><path d="m224.47 203.658h-92.234c-10.389 0-18.81-8.422-18.81-18.81 0-10.389 8.422-18.81 18.81-18.81h66.982c17.362 0 31.436 14.074 31.436 31.436 0 3.415-2.768 6.184-6.184 6.184z" fill="#365e7d"/><path d="m199.218 166.037h-23.664c17.362 0 31.436 14.074 31.436 31.436 0 3.415-2.769 6.184-6.184 6.184h23.664c3.415 0 6.184-2.769 6.184-6.184 0-17.361-14.074-31.436-31.436-31.436z" fill="#2b4d66"/><path d="m408.74 283.189h-134.357c-3.74 0-6.772-3.032-6.772-6.772v-117.025c0-3.74 3.032-6.772 6.772-6.772h134.357c3.74 0 6.772 3.032 6.772 6.772v117.025c0 3.74-3.032 6.772-6.772 6.772z" fill="#f6e266"/><path d="m408.74 152.62h-20.294c3.74 0 6.772 3.032 6.772 6.772v117.025c0 3.74-3.032 6.772-6.772 6.772h20.294c3.74 0 6.772-3.032 6.772-6.772v-117.025c0-3.741-3.032-6.772-6.772-6.772z" fill="#ecbe6b"/><g><g><path d="m383.931 196.732h-84.739c-4.268 0-7.726-3.459-7.726-7.726s3.459-7.726 7.726-7.726h84.739c4.268 0 7.726 3.459 7.726 7.726s-3.458 7.726-7.726 7.726z" fill="#2b4d66"/></g><g><path d="m383.931 225.63h-84.739c-4.268 0-7.726-3.459-7.726-7.726s3.459-7.726 7.726-7.726h84.739c4.268 0 7.726 3.459 7.726 7.726s-3.458 7.726-7.726 7.726z" fill="#2b4d66"/></g><g><path d="m383.931 254.529h-84.739c-4.268 0-7.726-3.459-7.726-7.726s3.459-7.726 7.726-7.726h84.739c4.268 0 7.726 3.459 7.726 7.726s-3.458 7.726-7.726 7.726z" fill="#2b4d66"/></g></g></g></svg>