<svg id="Capa_1" enable-background="new 0 0 512 512" height="512" viewBox="0 0 512 512" width="512" xmlns="http://www.w3.org/2000/svg"><g><path d="m15.448 212.772c-6.43 0-11.643 5.213-11.643 11.643v226.451c0 22.15 17.956 40.107 40.107 40.107h168.154c5.043 0 9.49 3.307 10.942 8.137l2.039 4.753c1.452 4.83 5.898 8.137 10.942 8.137h40.022c5.043 0 9.49-3.307 10.942-8.137l2.039-4.753c1.452-4.83 5.898-8.137 10.942-8.137h168.154c22.15 0 40.107-17.956 40.107-40.107v-226.451c0-6.43-5.213-11.643-11.643-11.643h-181.684l-59.441 80.927-66.689-80.927z" fill="#80e29d"/><g><path d="m496.551 212.772h-25.211c6.43 0 11.643 5.213 11.643 11.643v226.451c0 22.15-17.956 40.107-40.107 40.107h25.212c22.15 0 40.107-17.956 40.107-40.107v-226.451c-.001-6.431-5.214-11.643-11.644-11.643z" fill="#66b49d"/></g><path d="m459.198 446.92h-177.093c-14.417 0-26.105-11.688-26.105-26.105l-30.446-11.853v-166.783l30.446-12.931c0-30.466 24.698-55.164 55.164-55.164h148.034c3.821 0 6.919 3.098 6.919 6.919v258.997c0 3.822-3.098 6.92-6.919 6.92z" fill="#fff6f4"/><path d="m459.198 174.084h-23.241c3.821 0 6.919 3.098 6.919 6.919v258.997c0 3.821-3.098 6.919-6.919 6.919h23.241c3.821 0 6.919-3.098 6.919-6.919v-258.997c0-3.821-3.098-6.919-6.919-6.919z" fill="#d8e2f1"/><path d="m229.895 446.92h-177.093c-3.821 0-6.919-3.098-6.919-6.919v-258.998c0-3.821 3.098-6.919 6.919-6.919h148.034c30.466 0 55.164 24.698 55.164 55.164v191.566c0 14.418-11.688 26.106-26.105 26.106z" fill="#fff6f4"/><path d="m200.836 174.084h-23.871c30.466 0 55.164 24.698 55.164 55.164v191.566c0 14.417-11.688 26.105-26.105 26.105h23.871c14.417 0 26.105-11.688 26.105-26.105v-191.566c0-30.466-24.698-55.164-55.164-55.164z" fill="#d8e2f1"/><g><path d="m256 487.642c-4.204 0-7.611-3.407-7.611-7.612v-4.576c0-4.204 3.408-7.612 7.611-7.612s7.612 3.407 7.612 7.612v4.576c0 4.205-3.408 7.612-7.612 7.612z" fill="#66b49d"/></g><g><g><path d="m205.269 235.474h-108.656c-4.204 0-7.611-3.407-7.611-7.611s3.408-7.611 7.611-7.611h108.656c4.204 0 7.611 3.407 7.611 7.611s-3.407 7.611-7.611 7.611z" fill="#d8e2f1"/></g><g><path d="m205.269 276.794h-108.656c-4.204 0-7.611-3.407-7.611-7.611s3.408-7.612 7.611-7.612h108.656c4.204 0 7.611 3.407 7.611 7.612s-3.407 7.611-7.611 7.611z" fill="#d8e2f1"/></g><g><path d="m205.269 318.113h-108.656c-4.204 0-7.611-3.407-7.611-7.611s3.408-7.612 7.611-7.612h108.656c4.204 0 7.611 3.407 7.611 7.612s-3.407 7.611-7.611 7.611z" fill="#d8e2f1"/></g><g><path d="m205.269 359.433h-108.656c-4.204 0-7.611-3.407-7.611-7.611s3.408-7.612 7.611-7.612h108.656c4.204 0 7.611 3.407 7.611 7.612s-3.407 7.611-7.611 7.611z" fill="#d8e2f1"/></g><g><path d="m205.269 400.753h-108.656c-4.204 0-7.611-3.407-7.611-7.612s3.408-7.611 7.611-7.611h108.656c4.204 0 7.611 3.407 7.611 7.611s-3.407 7.612-7.611 7.612z" fill="#d8e2f1"/></g></g><g><g><path d="m415.387 235.474h-108.656c-4.204 0-7.612-3.407-7.612-7.611s3.407-7.611 7.612-7.611h108.656c4.204 0 7.611 3.407 7.611 7.611s-3.407 7.611-7.611 7.611z" fill="#d8e2f1"/></g><g><path d="m415.387 276.794h-108.656c-4.204 0-7.612-3.407-7.612-7.611s3.407-7.612 7.612-7.612h108.656c4.204 0 7.611 3.407 7.611 7.612s-3.407 7.611-7.611 7.611z" fill="#d8e2f1"/></g><g><path d="m415.387 318.113h-108.656c-4.204 0-7.612-3.407-7.612-7.611s3.407-7.612 7.612-7.612h108.656c4.204 0 7.611 3.407 7.611 7.612s-3.407 7.611-7.611 7.611z" fill="#d8e2f1"/></g><g><path d="m415.387 359.433h-108.656c-4.204 0-7.612-3.407-7.612-7.611s3.407-7.612 7.612-7.612h108.656c4.204 0 7.611 3.407 7.611 7.612s-3.407 7.611-7.611 7.611z" fill="#d8e2f1"/></g><g><path d="m415.387 400.753h-108.656c-4.204 0-7.612-3.407-7.612-7.612s3.407-7.611 7.612-7.611h108.656c4.204 0 7.611 3.407 7.611 7.611s-3.407 7.612-7.611 7.612z" fill="#d8e2f1"/></g></g><g><path d="m256 199.649c23.947 12.3 56.88 8.067 81.68 1.764.52 2.162.951 4.359 1.301 6.582-4.126-26.283-20.43-48.522-42.966-60.752-9.556-5.186-15.53-15.16-15.53-26.033v-44.657h-48.969v44.658c0 10.872-5.974 20.847-15.53 26.033-20.108 10.912-35.253 29.794-41.216 52.405.001-.002 37.68-22.369 81.23 0z" fill="#d3effb"/></g><g><path d="m280.485 76.553h-19.142v44.658c0 10.873 5.974 20.847 15.53 26.033 21.754 11.805 37.7 32.937 42.493 58.029 6.394-1.057 12.567-2.4 18.303-3.857-5.66-23.541-21.204-43.077-41.654-54.172-2.986-1.62-5.623-3.709-7.836-6.146-4.427-4.874-7.163-11.144-7.624-17.86-.046-.672-.069-1.348-.069-2.027v-44.658z" fill="#b1e4f9"/></g><path d="m292.456 76.553h-72.912c-4.014 0-7.268-3.254-7.268-7.268v-17.32c0-4.014 3.254-7.268 7.268-7.268h72.912c4.014 0 7.268 3.254 7.268 7.268v17.321c0 4.013-3.254 7.267-7.268 7.267z" fill="#b1e4f9"/><path d="m174.769 199.649c-1.808 6.855-2.782 14.049-2.782 21.473 0 25.419 11.289 48.2 29.126 63.606 2.763 2.386 6.295 3.698 9.946 3.698h89.882c3.651 0 7.183-1.312 9.946-3.698 23.951-20.686 34.139-52.772 26.793-83.315-24.8 6.303-57.733 10.536-81.68-1.764-43.551-22.369-81.23-.001-81.231 0z" fill="#80e29d"/><path d="m337.68 201.413c-5.739 1.459-11.917 2.802-18.315 3.86 5.706 29.872-5.013 59.929-27.621 79.455-2.763 2.386-6.295 3.698-9.946 3.698h19.142c3.651 0 7.183-1.312 9.946-3.698 23.952-20.686 34.14-52.772 26.794-83.315z" fill="#66b49d"/><g><g><path d="m229.638 29.944c-4.204 0-7.611-3.407-7.611-7.611v-14.722c0-4.204 3.408-7.611 7.611-7.611 4.204 0 7.611 3.407 7.611 7.611v14.721c.001 4.204-3.407 7.612-7.611 7.612z" fill="#d8e2f1"/></g><g><path d="m256 29.944c-4.204 0-7.611-3.407-7.611-7.611v-14.722c0-4.204 3.407-7.611 7.611-7.611s7.612 3.407 7.612 7.611v14.721c0 4.204-3.408 7.612-7.612 7.612z" fill="#d8e2f1"/></g><g><path d="m282.361 29.944c-4.204 0-7.611-3.407-7.611-7.611v-14.722c0-4.204 3.407-7.611 7.611-7.611s7.612 3.407 7.612 7.611v14.721c0 4.204-3.408 7.612-7.612 7.612z" fill="#d8e2f1"/></g></g><g><g><path d="m212.773 225.425c-2.71 0-5.333-1.45-6.708-4.003l-1.188-2.205c-1.994-3.701-.61-8.317 3.092-10.31 3.7-1.994 8.317-.611 10.311 3.091l1.188 2.205c1.994 3.701.61 8.317-3.092 10.31-1.148.619-2.385.912-3.603.912z" fill="#66b49d"/></g><g><path d="m305.293 240.592c-.903 0-1.821-.162-2.715-.503-3.927-1.5-5.894-5.899-4.393-9.827l.842-2.205c1.5-3.927 5.899-5.896 9.827-4.393 3.927 1.499 5.894 5.899 4.393 9.827l-.842 2.205c-1.159 3.031-4.048 4.896-7.112 4.896z" fill="#66b49d"/></g><g><path d="m260.913 259.889c-3.935 0-7.269-3.029-7.58-7.018l-.172-2.205c-.328-4.191 2.804-7.854 6.995-8.182 4.195-.339 7.854 2.804 8.182 6.995l.172 2.205c.327 4.191-2.805 7.854-6.995 8.182-.202.016-.403.023-.602.023z" fill="#66b49d"/></g><g><path d="m217.083 265.19c-2.71 0-5.333-1.45-6.708-4.004l-1.187-2.205c-1.993-3.702-.608-8.317 3.093-10.31 3.7-1.995 8.318-.61 10.31 3.093l1.187 2.205c1.993 3.702.608 8.317-3.093 10.31-1.148.619-2.384.911-3.602.911z" fill="#66b49d"/></g></g></g></svg>