<svg id="Capa_1" enable-background="new 0 0 512 512" height="512" viewBox="0 0 512 512" width="512" xmlns="http://www.w3.org/2000/svg"><g><path d="m402.488 124.133h-39.527c-32.414 0-63.622 5.147-92.875 14.632l-5.28 49.936 115.248 115.249h55.216c9.486-29.254 14.633-60.461 14.633-92.875v-39.527c-.001-26.187-21.229-47.415-47.415-47.415z" fill="#365e7d"/><path d="m241.915 497.305-5.847-56.983-109.413-109.413-49.924 1.211c-9.486 29.254-14.633 60.461-14.633 92.875v39.527c0 26.186 21.228 47.414 47.414 47.414h39.527c32.412 0 63.625-5.126 92.875-14.611 0 .002 0 .002.001-.02z" fill="#365e7d"/><path d="m449.902 171.547c0-21.019-13.677-38.738-32.429-44.983-.006-.002-.013-.005-.019-.007 1.565 4.706 2.425 9.734 2.425 14.966v39.527c0 43.782-9.361 85.374-26.176 122.899h41.566c16.933-52.222 14.339-89.659 14.633-119.227z" fill="#2b4d66"/><path d="m237.833 457.524c-36.451 15.687-76.615 24.39-118.816 24.39l-39.528.001c-5.232 0-10.26-.86-14.966-2.425.001.002.001.003.002.005 6.433 19.337 24.573 32.443 44.988 32.443 48.452-.039 80.972 2.021 132.403-14.632z" fill="#2b4d66"/><path d="m76.73 332.12 165.185 165.185c91.452-29.654 163.701-101.903 193.355-193.355l-165.185-165.185c-91.452 29.654-163.701 101.904-193.355 193.355z" fill="#dd636e"/><path d="m405.247 273.926c-29.654 91.452-101.904 163.702-193.355 193.355l30.023 30.023h.001c91.451-29.654 163.7-101.903 193.354-193.354 0-.001 0-.001.001-.001z" fill="#c63d4f"/><g><path d="m205.859 375.903c-1.977 0-3.955-.755-5.464-2.263-3.017-3.018-3.017-7.909 0-10.927l100.283-100.283c3.018-3.016 7.909-3.016 10.927 0 3.017 3.018 3.017 7.909 0 10.927l-100.282 100.283c-1.509 1.508-3.487 2.263-5.464 2.263z" fill="#fff6f4"/></g><g><path d="m318.309 323.499c-1.977 0-3.955-.754-5.464-2.262l-60.046-60.046c-3.017-3.018-3.017-7.909 0-10.927 3.018-3.016 7.909-3.016 10.927 0l60.046 60.046c3.017 3.018 3.017 7.909 0 10.927-1.508 1.508-3.486 2.262-5.463 2.262z" fill="#fff6f4"/></g><g><path d="m286.024 355.785c-1.977 0-3.955-.754-5.464-2.263l-60.047-60.046c-3.017-3.018-3.017-7.909 0-10.927 3.018-3.016 7.909-3.016 10.927 0l60.047 60.046c3.017 3.018 3.017 7.909 0 10.927-1.509 1.508-3.486 2.263-5.463 2.263z" fill="#fff6f4"/></g><g><path d="m253.737 388.071c-1.977 0-3.955-.755-5.464-2.263l-60.046-60.046c-3.017-3.018-3.017-7.909 0-10.927 3.018-3.016 7.909-3.016 10.927 0l60.046 60.046c3.017 3.018 3.017 7.909 0 10.927-1.508 1.508-3.486 2.263-5.463 2.263z" fill="#fff6f4"/></g><path d="m278.502 194.791c-48.059 20.113-96.119 20.113-144.178 0-4.636-1.94-7.669-6.464-7.669-11.49v-115.502h159.516v115.501c0 5.026-3.033 9.55-7.669 11.491z" fill="#4a80aa"/><path d="m268.815 67.798v108.101c0 5.026-3.033 9.55-7.669 11.49-43.41 18.167-86.82 19.92-130.23 5.268.999.874 2.141 1.603 3.408 2.133 48.059 20.113 96.119 20.113 144.178 0 4.636-1.94 7.669-6.464 7.669-11.49v-115.502z" fill="#407093"/><path d="m329.983 72.478c-78.597 43.251-139.58 59.188-139.58 59.188l-106.478-58.568c-1.921-1.057-3.003-4.437-1.083-5.493l122.229-67.26c.835-.459 1.847-.459 2.682 0l122.229 67.26c1.921 1.057 1.921 3.817.001 4.873z" fill="#365e7d"/><path d="m329.983 67.605-122.229-67.26c-.835-.459-1.847-.459-2.682 0l-14.669 8.072 107.56 59.188c1.921 1.057 1.921 3.817 0 4.874l-107.56 59.188c14.194 7.332 15.002 9.365 17.351 8.072l122.229-67.26c1.92-1.058 1.92-3.817 0-4.874z" fill="#2b4d66"/><g><path d="m247.354 178.835c-4.267 0-7.726-3.459-7.726-7.726v-53.232l-44.701-42.218c-3.103-2.929-3.242-7.82-.312-10.921 2.929-3.104 7.821-3.241 10.921-.312l47.122 44.505c1.545 1.459 2.421 3.491 2.421 5.617v56.562c.001 4.266-3.458 7.725-7.725 7.725z" fill="#407093"/></g></g></svg>