<svg id="Capa_1" enable-background="new 0 0 512 512" height="512" viewBox="0 0 512 512" width="512" xmlns="http://www.w3.org/2000/svg"><g><g><path d="m390.807 270.339h-269.614c-7.858 0-14.228-6.37-14.228-14.228v-86.109c0-7.858 6.37-14.228 14.228-14.228h269.614c7.858 0 14.228 6.37 14.228 14.228v86.109c0 7.858-6.37 14.228-14.228 14.228z" fill="#9dc6fb"/></g><path d="m390.807 155.774h-21.633c7.858 0 14.228 6.37 14.228 14.228v86.109c0 7.858-6.37 14.228-14.227 14.228h21.631c7.858 0 14.228-6.37 14.228-14.228v-86.109c.001-7.858-6.369-14.228-14.227-14.228z" fill="#8993da"/><path d="m352.555 183.332h-193.11c-17.123 0-31.003-13.881-31.003-31.003v-96.435c0-30.869 25.024-55.894 55.894-55.894h112.191c7.231 0 13.946 3.748 17.741 9.903 1.753 2.842 5.643 3.421 8.148 1.213l2.62-2.31c6.434-5.675 14.718-8.806 23.297-8.806 19.454 0 35.225 15.771 35.225 35.225v117.104c0 17.123-13.88 31.003-31.003 31.003z" fill="#365e7d"/><g><path d="m348.333 0c-4.153 0-8.234.74-12.072 2.14 13.484 4.941 23.106 17.889 23.106 33.085v117.104c0 17.122-13.881 31.003-31.003 31.003h24.191c17.123 0 31.003-13.881 31.003-31.003v-117.104c0-19.454-15.771-35.225-35.225-35.225z" fill="#2b4d66"/></g><path d="m395.769 512h-279.538c-5.117 0-9.266-4.148-9.266-9.266v-196.846c0-29.916 14.484-56.45 36.821-72.971 5.796-4.287 16.003 10.813 22.741 7.99 8.058-3.376 12.825-24.334 21.866-25.253 3.049-.31 6.143-.468 9.274-.468h116.667c3.893 0 7.729.245 11.492.721 7.796.986 12.598 24.19 19.647 27.025 7.564 3.042 17.31-14.154 23.704-9.293 21.79 16.566 35.857 42.764 35.857 72.248v196.846c.001 5.119-4.147 9.267-9.265 9.267z" fill="#dd636e"/><path d="m314.334 215.186h-27.274c50.093 0 90.702 40.609 90.702 90.702v196.846c0 5.117-4.148 9.266-9.266 9.266h27.273c5.117 0 9.266-4.148 9.266-9.266v-196.846c0-50.093-40.608-90.702-90.701-90.702z" fill="#c63d4f"/><path d="m144.191 512h44.672v-296.387c-16.608 1.6-31.905 7.679-44.672 17.015z" fill="#d3effb"/><path d="m323.137 512h44.672v-279.372c-12.767-9.336-28.064-15.415-44.672-17.015z" fill="#d3effb"/><path d="m256 306.529c-20.809 0-37.678-16.869-37.678-37.678v-44.273h75.355v44.273c.001 20.809-16.868 37.678-37.677 37.678z" fill="#e2a770"/><g><path d="m163.847 97.353v65.843c0 50.894 41.258 92.153 92.153 92.153 50.894 0 92.153-41.258 92.153-92.153v-64.433c0-5.357-4.259-9.806-9.615-9.9-18.511-.327-38.047 5.506-58.351 15.959-3.514 1.809-7.715 1.511-11.041-.623-29.091-18.665-61.51-24.548-97.551-16.517-4.527 1.008-7.748 5.034-7.748 9.671z" fill="#f1d0a5"/></g><g><path d="m338.537 88.863c-6.126-.108-12.366.472-18.707 1.657 2.646 1.784 4.384 4.826 4.384 8.244v64.433c0 46.838-34.944 85.512-80.184 91.38 3.918.508 7.912.773 11.969.773 50.895 0 92.153-41.258 92.153-92.152v-64.435c.001-5.357-4.258-9.806-9.615-9.9z" fill="#f1b986"/></g><g><path d="m256 217.42c-7.404 0-14.809-1.95-22.162-5.849-3.771-1.999-5.205-6.676-3.206-10.446s6.674-5.206 10.446-3.206c10.042 5.326 19.804 5.326 29.844 0 3.772-2 8.447-.563 10.447 3.205 1.999 3.771.564 8.447-3.205 10.447-7.354 3.9-14.759 5.849-22.164 5.849z" fill="#c63d4f"/></g><g><g><path d="m214.14 163.5c-4.268 0-7.726-3.459-7.726-7.726v-7.448c0-4.268 3.459-7.726 7.726-7.726s7.726 3.459 7.726 7.726v7.448c.001 4.267-3.458 7.726-7.726 7.726z" fill="#2b4d66"/></g><g><path d="m297.859 163.5c-4.268 0-7.726-3.459-7.726-7.726v-7.448c0-4.268 3.459-7.726 7.726-7.726s7.726 3.459 7.726 7.726v7.448c0 4.267-3.459 7.726-7.726 7.726z" fill="#2b4d66"/></g></g></g></svg>