<svg id="Capa_1" enable-background="new 0 0 512 512" height="512" viewBox="0 0 512 512" width="512" xmlns="http://www.w3.org/2000/svg"><g><path d="m257.018 146.792c-117.374.493-211.604 95.141-211.603 212.516 0 39.555 10.808 76.583 29.631 108.295 30.306 51.059 101.474 59.983 142.232 16.807 17.326-18.353 41.895-29.874 69.271-29.874 16.61 0 32.223 4.252 45.813 11.727 52.567 28.913 118.255 1.097 132.24-57.243 3.823-15.947 5.847-32.594 5.847-49.713-.001-117.674-95.642-213.01-213.431-212.515z" fill="#f1d0a5"/><path d="m257.018 146.792c-4.895.02-9.745.22-14.555.562 110.089 7.984 196.924 99.827 196.924 211.952 0 17.119-2.025 33.766-5.847 49.713-8.848 36.91-38.392 61.593-72.214 67.431 45.357 7.841 91.78-19.48 103.274-67.431 3.823-15.948 5.847-32.594 5.847-49.713.001-117.673-95.64-213.009-213.429-212.514z" fill="#f1b986"/><circle cx="153.523" cy="419.441" fill="#9dc6fb" r="44.98"/><path d="m153.523 374.461c-4.373 0-8.596.636-12.593 1.8 18.71 5.448 32.387 22.712 32.387 43.18 0 20.469-13.677 37.732-32.387 43.18 3.998 1.164 8.22 1.8 12.593 1.8 24.842 0 44.98-20.138 44.98-44.98s-20.138-44.98-44.98-44.98z" fill="#8993da"/><circle cx="160.699" cy="287.781" fill="#f6e266" r="44.98"/><path d="m160.699 242.801c-4.373 0-8.596.636-12.593 1.8 18.71 5.448 32.387 22.712 32.387 43.18 0 20.469-13.677 37.732-32.387 43.18 3.998 1.164 8.22 1.8 12.593 1.8 24.842 0 44.98-20.138 44.98-44.98s-20.138-44.98-44.98-44.98z" fill="#ecbe6b"/><circle cx="312.951" cy="247.907" fill="#dd636e" r="44.98"/><path d="m312.951 202.927c-4.373 0-8.596.636-12.593 1.8 18.71 5.448 32.387 22.712 32.387 43.18 0 20.469-13.677 37.732-32.387 43.18 3.998 1.164 8.22 1.8 12.593 1.8 24.842 0 44.98-20.138 44.98-44.98s-20.138-44.98-44.98-44.98z" fill="#c63d4f"/><circle cx="380.249" cy="366.906" fill="#fff6f4" r="44.98"/><path d="m380.249 321.926c-4.373 0-8.596.636-12.593 1.8 18.71 5.448 32.387 22.712 32.387 43.18 0 20.469-13.677 37.732-32.387 43.18 3.997 1.164 8.22 1.8 12.593 1.8 24.842 0 44.98-20.138 44.98-44.98s-20.138-44.98-44.98-44.98z" fill="#d8e2f1"/><path d="m238.693 194.832c-48.07 20.117-96.139 20.117-144.209 0-4.637-1.941-7.671-6.466-7.671-11.493v-115.526h159.55v115.527c.001 5.026-3.032 9.551-7.67 11.492z" fill="#4a80aa"/><path d="m229.004 67.813v108.124c0 5.027-3.033 9.552-7.671 11.493-43.419 18.171-86.838 19.924-130.258 5.269.999.874 2.141 1.603 3.409 2.134 48.07 20.117 96.139 20.117 144.209 0 4.637-1.941 7.671-6.466 7.671-11.493v-115.527z" fill="#407093"/><path d="m290.185 72.494c-86.789 47.758-139.61 59.201-139.61 59.201l-107.582-59.201c-1.921-1.057-1.921-3.817 0-4.875l122.255-67.274c.835-.46 1.847-.46 2.682 0l122.255 67.275c1.921 1.056 1.921 3.817 0 4.874z" fill="#365e7d"/><path d="m290.185 67.619-122.255-67.274c-.835-.459-1.847-.459-2.682 0l-14.672 8.074 107.583 59.201c1.921 1.057 1.921 3.817 0 4.875l-107.583 59.201c14.197 7.334 15.006 9.367 17.355 8.074l122.255-67.275c1.92-1.058 1.92-3.819-.001-4.876z" fill="#2b4d66"/><g><path d="m207.538 178.872c-4.268 0-7.728-3.459-7.728-7.728v-53.243l-44.71-42.226c-3.103-2.93-3.243-7.821-.312-10.924 2.93-3.104 7.82-3.244 10.925-.312l47.132 44.514c1.546 1.459 2.421 3.492 2.421 5.618v56.574c0 4.268-3.46 7.727-7.728 7.727z" fill="#407093"/></g><g><path d="m266.281 406.038c-3.554 0-6.754-2.466-7.543-6.081l-6.296-28.827c-.911-4.17 1.731-8.288 5.9-9.199 4.173-.919 8.288 1.731 9.199 5.9l6.296 28.827c.911 4.17-1.731 8.288-5.9 9.199-.555.123-1.111.181-1.656.181z" fill="#2b4d66"/></g></g></svg>