<svg id="Capa_1" enable-background="new 0 0 512 512" height="512" viewBox="0 0 512 512" width="512" xmlns="http://www.w3.org/2000/svg"><g><path d="m397.919 268.204c0-77.725-62.482-140.857-139.958-141.906-77.809-1.054-142.499 61.563-143.858 139.367-.877 50.151 24.27 94.48 62.828 120.397 5.962 4.007 9.579 10.68 9.579 17.863v20.615l20.252 20.604h89.327l29.401-20.604v-20.616c0-7.169 3.595-13.842 9.546-17.839 37.924-25.476 62.883-68.761 62.883-117.881z" fill="#f6e266"/><path d="m257.961 126.298c-5.718-.077-11.363.198-16.919.789 71.286 7.534 126.833 67.834 126.833 141.117 0 49.12-24.959 92.404-62.883 117.88-5.951 3.997-9.546 10.671-9.546 17.839v41.22l30.044-20.604v-20.616c0-7.169 3.595-13.842 9.546-17.839 37.924-25.476 62.883-68.76 62.883-117.88 0-77.725-62.482-140.856-139.958-141.906z" fill="#ecbe6b"/><path d="m321.572 177.18c-43.715 18.295-87.429 18.295-131.144 0-4.217-1.765-6.976-5.88-6.976-10.452v-105.059h145.095v105.06c.001 4.572-2.758 8.687-6.975 10.451z" fill="#4a80aa"/><path d="m312.76 61.669v98.328c0 4.572-2.758 8.687-6.976 10.452-39.486 16.525-78.971 18.119-118.457 4.791.908.795 1.947 1.458 3.1 1.941 43.715 18.295 87.429 18.295 131.144 0 4.217-1.765 6.976-5.88 6.976-10.452v-105.06z" fill="#407093"/><path d="m368.398 65.926-126.961 53.837-97.836-53.837c-1.747-.961-1.747-3.472 0-4.433l111.179-61.18c.759-.418 1.68-.418 2.439 0l111.179 61.18c1.747.961 1.747 3.472 0 4.433z" fill="#365e7d"/><path d="m368.398 61.493-111.178-61.18c-.759-.418-1.68-.418-2.439 0l-13.343 7.342 97.836 53.837c1.747.961 1.747 3.472 0 4.433l-97.836 53.837 13.343 7.342c.759.418 1.68.418 2.439 0l111.179-61.18c1.746-.959 1.746-3.47-.001-4.431z" fill="#2b4d66"/><g><path d="m295.771 166.176c-4.268 0-7.726-3.459-7.726-7.726v-50.93l-40.441-38.194c-3.103-2.93-3.242-7.82-.312-10.922 2.93-3.104 7.82-3.241 10.922-.312l42.862 40.481c1.545 1.459 2.422 3.491 2.422 5.617v54.26c0 4.267-3.459 7.726-7.727 7.726z" fill="#407093"/></g><g><path d="m256 442.569c-4.268 0-7.726-3.459-7.726-7.726v-108.398c0-4.268 3.459-7.726 7.726-7.726s7.726 3.459 7.726 7.726v108.397c0 4.268-3.459 7.727-7.726 7.727z" fill="#4a80aa"/></g><g><path d="m256 331.86c-20.826 0-37.77-16.944-37.77-37.771 0-4.268 3.459-7.726 7.726-7.726s7.726 3.459 7.726 7.726c0 12.306 10.011 22.318 22.317 22.318s22.318-10.012 22.318-22.318c0-4.268 3.459-7.726 7.726-7.726 4.268 0 7.726 3.459 7.726 7.726.001 20.828-16.942 37.771-37.769 37.771z" fill="#4a80aa"/></g><path d="m281.074 512h-50.149c-24.53 0-44.416-19.886-44.416-44.416v-43.044h138.98v43.044c.001 24.53-19.884 44.416-44.415 44.416z" fill="#365e7d"/><path d="m295.446 424.54v43.044c0 24.53-19.886 44.416-44.416 44.416h30.044c24.53 0 44.415-19.886 44.415-44.416v-43.044z" fill="#2b4d66"/><g><path d="m279.277 479.79h-46.554c-4.268 0-7.726-3.459-7.726-7.726s3.459-7.726 7.726-7.726h46.554c4.268 0 7.726 3.459 7.726 7.726s-3.458 7.726-7.726 7.726z" fill="#2b4d66"/></g></g></svg>