<svg id="Capa_1" enable-background="new 0 0 512 512" height="512" viewBox="0 0 512 512" width="512" xmlns="http://www.w3.org/2000/svg"><g><path d="m11.818 123.764c-6.527 0-11.818 5.291-11.818 11.818v229.869c0 22.485 18.227 40.712 40.712 40.712h170.691c5.12 0 9.633 3.357 11.107 8.26l2.069 4.825c1.474 4.903 5.988 8.26 11.107 8.26h40.626c5.12 0 9.633-3.357 11.107-8.26l2.069-4.825c1.474-4.903 5.988-8.26 11.107-8.26h170.691c22.485 0 40.712-18.227 40.712-40.712v-229.869c0-6.527-5.291-11.818-11.818-11.818h-184.424l-60.338 82.148-67.696-82.148z" fill="#80e29d"/><g><path d="m500.182 123.764h-25.592c6.527 0 11.818 5.291 11.818 11.818v229.869c0 22.485-18.227 40.712-40.712 40.712h25.592c22.485 0 40.712-18.227 40.712-40.712v-229.869c0-6.527-5.291-11.818-11.818-11.818z" fill="#66b49d"/></g><path d="m462.264 361.445h-179.765c-14.635 0-26.499-11.864-26.499-26.499l-30.905-12.032v-169.299l30.905-13.126c0-30.926 25.071-55.997 55.997-55.997h150.268c3.879 0 7.024 3.145 7.024 7.024v262.906c-.001 3.879-3.146 7.023-7.025 7.023z" fill="#fff6f4"/><path d="m462.264 84.493h-23.592c3.879 0 7.024 3.145 7.024 7.024v262.906c0 3.879-3.145 7.024-7.024 7.024h23.592c3.879 0 7.024-3.145 7.024-7.024v-262.907c0-3.879-3.145-7.023-7.024-7.023z" fill="#d8e2f1"/><path d="m229.501 361.445h-179.765c-3.879 0-7.024-3.145-7.024-7.024v-262.905c0-3.879 3.145-7.024 7.024-7.024h150.268c30.926 0 55.997 25.071 55.997 55.997v194.457c-.001 14.635-11.865 26.499-26.5 26.499z" fill="#fff6f4"/><path d="m200.003 84.493h-24.231c30.926 0 55.997 25.071 55.997 55.997v194.457c0 14.635-11.864 26.499-26.499 26.499h24.231c14.635 0 26.499-11.864 26.499-26.499v-194.458c0-30.926-25.071-55.996-55.997-55.996z" fill="#d8e2f1"/><g><path d="m256 402.783c-4.268 0-7.726-3.459-7.726-7.726v-4.645c0-4.268 3.459-7.726 7.726-7.726s7.726 3.459 7.726 7.726v4.645c0 4.267-3.459 7.726-7.726 7.726z" fill="#66b49d"/></g><g><path d="m77.057 267.925c-1.977 0-3.955-.755-5.464-2.263-3.017-3.018-3.017-7.909 0-10.928 4.018-4.017 4.456-7.065 5.118-11.678.817-5.682 1.832-12.754 9.487-20.409 7.262-7.261 15.32-9.534 22.429-11.539 6.057-1.709 11.288-3.185 15.698-7.596 3.018-3.018 7.91-3.017 10.927-.001 3.018 3.017 3.018 7.909.001 10.927-7.262 7.263-15.32 9.536-22.43 11.542-6.056 1.708-11.288 3.184-15.698 7.595-4.017 4.017-4.455 7.065-5.117 11.678-.817 5.682-1.832 12.754-9.487 20.409-1.509 1.508-3.487 2.263-5.464 2.263z" fill="#80e29d"/></g><path d="m123.746 213.509c-15.057-15.057-15.057-39.468 0-54.525l23.631-23.631c15.057-15.057 39.468-15.057 54.525 0 15.057 15.057 15.057 39.468 0 54.525l-23.631 23.631c-15.057 15.057-39.468 15.057-54.525 0z" fill="#80e29d"/><path d="m202.498 135.981c1.381 11.361-2.278 23.218-10.998 31.938l-33.288 33.289c-9.871 9.871-23.763 13.27-36.404 10.198.619.717 1.258 1.423 1.939 2.104 15.056 15.057 39.468 15.057 54.525 0l23.631-23.631c14.85-14.852 15.041-38.798.595-53.898z" fill="#66b49d"/><g><path d="m147.947 197.034c-1.977 0-3.955-.755-5.464-2.263-3.017-3.018-3.017-7.909 0-10.928l9.571-9.571c3.018-3.016 7.909-3.016 10.928 0 3.017 3.018 3.017 7.909 0 10.928l-9.571 9.571c-1.509 1.509-3.487 2.263-5.464 2.263z" fill="#fff6f4"/></g><g><path d="m207.843 165.225c-4.126 0-7.549-3.26-7.715-7.42-.17-4.264 3.15-7.857 7.413-8.027l15.579-.62c4.215-.171 7.857 3.149 8.027 7.413s-3.15 7.857-7.413 8.027l-15.579.62c-.104.005-.209.007-.312.007z" fill="#66b49d"/></g><g><path d="m163.687 140.294c-3.367 0-6.464-2.218-7.429-5.619l-4.248-14.968c-1.165-4.105 1.218-8.377 5.323-9.542 4.105-1.167 8.377 1.217 9.542 5.323l4.248 14.968c1.165 4.105-1.218 8.377-5.323 9.542-.705.2-1.415.296-2.113.296z" fill="#80e29d"/></g><g><path d="m129.783 169.494c-1.08 0-2.178-.228-3.225-.709l-15.253-7.019c-3.876-1.784-5.572-6.373-3.789-10.249 1.785-3.876 6.367-5.571 10.249-3.789l15.253 7.019c3.876 1.784 5.572 6.373 3.789 10.249-1.302 2.83-4.1 4.498-7.024 4.498z" fill="#80e29d"/></g><g><path d="m102.6 200.096c-4.113 0-7.532-3.241-7.713-7.39-.185-4.263 3.12-7.869 7.383-8.055l15.984-.696c4.231-.184 7.87 3.121 8.055 7.383.185 4.263-3.12 7.869-7.383 8.055l-15.984.696c-.113.005-.228.007-.342.007z" fill="#80e29d"/></g><g><path d="m156.299 241.948c-4.089 0-7.501-3.206-7.71-7.335l-.778-15.328c-.216-4.262 3.063-7.891 7.325-8.108 4.235-.224 7.891 3.063 8.108 7.325l.778 15.328c.216 4.262-3.063 7.891-7.325 8.108-.133.007-.266.01-.398.01z" fill="#66b49d"/></g><g><path d="m199.072 213.419c-1.977 0-3.955-.755-5.463-2.263l-10.817-10.816c-3.018-3.017-3.018-7.909-.001-10.927 3.018-3.018 7.91-3.017 10.927-.001l10.817 10.816c3.018 3.017 3.018 7.909.001 10.927-1.509 1.51-3.487 2.264-5.464 2.264z" fill="#66b49d"/></g><g><path d="m192.579 297.13h-89.973c-4.268 0-7.726-3.459-7.726-7.726s3.459-7.726 7.726-7.726h89.973c4.268 0 7.726 3.459 7.726 7.726s-3.458 7.726-7.726 7.726z" fill="#d8e2f1"/></g><g><path d="m151.372 335.312h-48.766c-4.268 0-7.726-3.459-7.726-7.726 0-4.268 3.459-7.726 7.726-7.726h48.766c4.268 0 7.726 3.459 7.726 7.726s-3.459 7.726-7.726 7.726z" fill="#d8e2f1"/></g><g><path d="m407.63 297.13h-89.973c-4.268 0-7.726-3.459-7.726-7.726s3.459-7.726 7.726-7.726h89.973c4.268 0 7.726 3.459 7.726 7.726s-3.458 7.726-7.726 7.726z" fill="#d8e2f1"/></g><g><path d="m366.423 335.312h-48.766c-4.268 0-7.726-3.459-7.726-7.726 0-4.268 3.459-7.726 7.726-7.726h48.766c4.268 0 7.726 3.459 7.726 7.726.001 4.267-3.458 7.726-7.726 7.726z" fill="#d8e2f1"/></g><path d="m422.165 191.386c-2.084 6.448-14.177 7.257-18.314 12.113-4.289 5.034-3.243 17.05-9.04 20.015-5.796 2.965-14.928-4.916-21.52-4.384-6.359.513-14.092 9.845-20.54 7.761s-7.257-14.177-12.113-18.314c-5.034-4.289-17.05-3.243-20.015-9.04-2.965-5.796 4.916-14.928 4.384-21.52-.513-6.359-9.845-14.092-7.761-20.54s14.177-7.257 18.314-12.113c4.289-5.034 3.243-17.05 9.04-20.015 5.796-2.965 14.928 4.916 21.52 4.384 6.359-.513 14.092-9.845 20.54-7.761s7.257 14.177 12.113 18.314c5.034 4.289 17.05 3.243 20.015 9.04 2.965 5.796-4.916 14.928-4.384 21.52.514 6.359 9.845 14.092 7.761 20.54z" fill="#dd636e"/><path d="m414.405 170.846c-.532-6.592 7.349-15.723 4.384-21.52-2.965-5.796-14.982-4.751-20.015-9.04-4.856-4.137-5.665-16.23-12.113-18.314-6.098-1.971-13.343 6.262-19.49 7.597 1.764 4.016 3.204 8.504 5.801 10.717 5.034 4.289 17.051 3.243 20.015 9.04 2.965 5.796-4.916 14.928-4.384 21.52.513 6.359 9.845 14.092 7.761 20.54s-14.177 7.257-18.314 12.113c-3.089 3.625-3.421 10.858-5.524 15.737.257-.047.514-.086.767-.107 6.592-.532 15.723 7.349 21.52 4.384 5.796-2.965 4.751-14.982 9.04-20.015 4.138-4.856 16.23-5.665 18.314-12.113 2.082-6.447-7.249-14.18-7.762-20.539z" fill="#c63d4f"/></g></svg>