<svg id="Capa_1" enable-background="new 0 0 512 512" height="512" viewBox="0 0 512 512" width="512" xmlns="http://www.w3.org/2000/svg"><g><g><path d="m97.704 87.949c-.121 0-.241-.003-.362-.008-3.162-.148-5.915-2.207-6.95-5.198l-16.287-47.087c-1.396-4.037.744-8.442 4.781-9.838 4.038-1.399 8.442.744 9.838 4.781l9.95 28.766 13.364-29.435c1.766-3.889 6.351-5.613 10.24-3.845 3.889 1.765 5.611 6.351 3.845 10.24l-21.378 47.087c-1.259 2.772-4.02 4.537-7.041 4.537z" fill="#2b4d66"/></g><path d="m299.832 233.108-22.815-30.818c-3.39-4.579-5.219-10.125-5.219-15.823v-56.279h-215.367v295.913h122.579v-80.546h19.411c40.525 0 73.377-32.852 73.377-73.377 0-8.11 4.568-15.529 11.809-19.18l13.065-6.588c4.949-2.495 6.458-8.847 3.16-13.302z" fill="#f1d0a5"/><path d="m299.832 233.108-22.815-30.818c-3.39-4.579-5.219-10.126-5.219-15.823v-18.114-38.165h-25.509-189.858l38.061 48.964c0-5.964 4.835-10.799 10.799-10.799h122.885c10.004 0 18.114 8.11 18.114 18.114 0 5.697 1.83 11.244 5.219 15.823l14.109 19.058c7.847 10.6 4.257 25.712-7.519 31.65-7.242 3.652-11.809 11.07-11.809 19.18 0 40.525-32.852 73.377-73.377 73.377h-19.411v80.546h25.509v-80.546h19.411c40.525 0 73.377-32.852 73.377-73.377 0-8.11 4.568-15.529 11.809-19.18l13.065-6.588c4.948-2.495 6.457-8.847 3.159-13.302z" fill="#f1b986"/><g><path d="m209.793 211.022c-4.272 0-7.735-3.462-7.735-7.735v-13.292c0-4.272 3.463-7.735 7.735-7.735s7.735 3.462 7.735 7.735v13.292c0 4.272-3.463 7.735-7.735 7.735z" fill="#2b4d66"/></g><g><path d="m247.225 316.184c-22.467 0-41.561-8.424-54.617-16.418-3.643-2.23-4.788-6.991-2.558-10.635 2.231-3.643 6.992-4.787 10.635-2.558 13.954 8.542 35.844 17.69 60.894 12.735 4.189-.836 8.259 1.896 9.088 6.088.828 4.191-1.897 8.259-6.088 9.087-5.966 1.179-11.764 1.701-17.354 1.701z" fill="#c63d4f"/></g><path d="m204.705 488.504-74.898 22.9c-2.595.794-5.369.794-7.964 0l-74.898-22.9c-5.726-1.751-9.637-7.036-9.637-13.023v-42.776c0-3.647 2.956-6.603 6.603-6.603h163.827c3.647 0 6.603 2.956 6.603 6.603v42.776c.001 5.988-3.91 11.273-9.636 13.023z" fill="#dd636e"/><path d="m214.342 475.481v-42.776c0-3.647-2.956-6.603-6.603-6.603h-40.749c-7.833 24.807-23.376 59.205-53.028 82.894l7.881 2.41c2.595.794 5.369.794 7.964 0l74.898-22.9c5.726-1.752 9.637-7.037 9.637-13.025z" fill="#c63d4f"/><g><path d="m179.01 353.291h-51.018c-4.272 0-7.735-3.462-7.735-7.735s3.463-7.735 7.735-7.735h51.018c4.272 0 7.735 3.462 7.735 7.735s-3.464 7.735-7.735 7.735z" fill="#f1b986"/></g><path d="m257.208 59.589h-183.127c-37.878 0-68.585 30.706-68.585 68.585v20.411 82.435c0 37.928 30.746 68.674 68.674 68.674 11.223 0 20.322-9.098 20.322-20.322v-119.989c0-5.964 4.835-10.799 10.799-10.799h173.269c18.679 0 33.822-15.143 33.822-33.822 0-30.471-24.702-55.173-55.174-55.173z" fill="#365e7d"/><path d="m61.378 159.383v119.988c0 6.987-3.528 13.148-8.898 16.805 6.82 2.27 14.107 3.517 21.69 3.517 11.223 0 20.322-9.098 20.322-20.322v-119.988c0-5.964 4.835-10.799 10.799-10.799h-33.114c-5.964 0-10.799 4.835-10.799 10.799z" fill="#2b4d66"/><path d="m257.208 59.589h-33.114c30.472 0 55.173 24.702 55.173 55.173 0 18.679-15.143 33.822-33.822 33.822h33.114c18.68 0 33.822-15.143 33.822-33.822.001-30.471-24.701-55.173-55.173-55.173z" fill="#2b4d66"/><g><path d="m149.93 476.785h-48.21c-4.272 0-7.735-3.462-7.735-7.735 0-4.272 3.463-7.735 7.735-7.735h48.21c4.272 0 7.735 3.462 7.735 7.735s-3.463 7.735-7.735 7.735z" fill="#2b4d66"/></g><path d="m442.416 55.837-56.049-55.45c-.522-.516-1.362-.516-1.883 0l-56.049 55.45c-.85.841-.255 2.291.942 2.291h22.877c3.414 0 6.181 2.767 6.181 6.181v92.257c0 2.731 2.214 4.944 4.944 4.944h44.094c2.731 0 4.944-2.214 4.944-4.944v-92.257c0-3.414 2.767-6.181 6.181-6.181h22.877c1.196 0 1.791-1.449.941-2.291z" fill="#80e29d"/><g fill="#66b49d"><path d="m391.009 64.309v97.201h16.463c2.731 0 4.944-2.214 4.944-4.944v-92.257c0-3.414 2.767-6.181 6.181-6.181h-21.407c-3.414 0-6.181 2.768-6.181 6.181z"/><path d="m384.483.387-9.762 9.658 48.603 48.084h18.15c1.196 0 1.792-1.449.942-2.291l-56.049-55.45c-.522-.517-1.362-.517-1.884-.001z"/></g><g><g><g><path d="m476.497 182.889c-4.272 0-7.735-3.462-7.735-7.735v-74.932c0-4.272 3.462-7.735 7.735-7.735 4.272 0 7.735 3.462 7.735 7.735v74.932c0 4.273-3.463 7.735-7.735 7.735z" fill="#80e29d"/></g><g><path d="m498.764 116.854c-1.693 0-3.397-.553-4.823-1.692l-17.444-13.936-17.444 13.936c-3.34 2.667-8.204 2.122-10.871-1.215-2.667-3.338-2.123-8.205 1.215-10.871l22.272-17.794c2.824-2.256 6.832-2.256 9.656 0l22.272 17.794c3.338 2.666 3.881 7.533 1.215 10.871-1.527 1.912-3.777 2.907-6.048 2.907z" fill="#80e29d"/></g></g></g></g></svg>