<svg id="Capa_1" enable-background="new 0 0 512 512" height="512" viewBox="0 0 512 512" width="512" xmlns="http://www.w3.org/2000/svg"><g><path d="m126.741 148.478c-69.997 0-126.741 38.511-126.741 86.018 0 28.904 21.006 54.477 53.222 70.074.22.107.409.27.545.473l37.862 56.5c2.719 4.057 8.991 2.755 9.872-2.048l7.074-38.599c.129-.702.77-1.191 1.481-1.127 5.461.488 11.029.745 16.686.745 69.997 0 126.74-38.512 126.74-86.018s-56.745-86.018-126.741-86.018z" fill="#80e29d"/><g><path d="m126.741 148.478c-4.789 0-9.514.187-14.165.538 63.328 4.781 112.575 41.225 112.575 85.481 0 44.248-49.228 80.686-112.539 85.478 4.639.351 9.351.541 14.128.541 69.997 0 126.74-38.512 126.74-86.018s-56.743-86.02-126.739-86.02z" fill="#66b49d"/></g><path d="m482.349 0h-180.533c-16.376 0-29.651 13.275-29.651 29.651v105.946c0 16.376 13.275 29.651 29.651 29.651h10.764c.381 0 .746.158 1.007.435.261.278.396.651.372 1.032l-3.031 48.904c-.275 4.432 5.146 6.778 8.189 3.544l50.328-53.48c.261-.277.625-.435 1.006-.435h111.898c16.376 0 29.651-13.275 29.651-29.651v-105.946c0-16.376-13.275-29.651-29.651-29.651z" fill="#f6e266"/><g><path d="m482.349 0h-27.895c16.376 0 29.651 13.275 29.651 29.651v105.946c0 16.376-13.275 29.651-29.651 29.651h27.895c16.376 0 29.651-13.275 29.651-29.651v-105.946c0-16.376-13.275-29.651-29.651-29.651z" fill="#ecbe6b"/></g><path d="m512 296.854c0-.763-.619-1.382-1.382-1.382h-237.071c-.763 0-1.382.619-1.382 1.382v162.485c0 .763.619 1.382 1.382 1.382h25.704c.763 0 1.381.618 1.382 1.381l.031 45.248c.003 4.339 5.424 6.305 8.208 2.977l41.077-49.11c.263-.314.651-.495 1.06-.495h159.61c.763 0 1.382-.619 1.382-1.382v-162.486z" fill="#dd636e"/><g><path d="m482.196 295.472v165.248h28.422c.763 0 1.382-.619 1.382-1.382v-162.484c0-.763-.619-1.382-1.382-1.382z" fill="#c63d4f"/></g><g><path d="m200.054 219.222h-146.627c-4.268 0-7.726-3.459-7.726-7.726s3.459-7.726 7.726-7.726h146.627c4.268 0 7.726 3.459 7.726 7.726s-3.458 7.726-7.726 7.726z" fill="#fff6f4"/></g><g><path d="m158.847 257.51h-105.42c-4.268 0-7.726-3.459-7.726-7.726s3.459-7.726 7.726-7.726h105.419c4.268 0 7.726 3.459 7.726 7.726s-3.458 7.726-7.725 7.726z" fill="#fff6f4"/></g><g><path d="m465.396 66.072h-146.627c-4.268 0-7.726-3.459-7.726-7.726s3.459-7.726 7.726-7.726h146.627c4.268 0 7.726 3.459 7.726 7.726s-3.458 7.726-7.726 7.726z" fill="#fff6f4"/></g><g><path d="m424.189 104.362h-105.42c-4.268 0-7.726-3.459-7.726-7.726s3.459-7.726 7.726-7.726h105.419c4.268 0 7.726 3.459 7.726 7.726s-3.458 7.726-7.725 7.726z" fill="#fff6f4"/></g><g><path d="m465.396 359.982h-146.627c-4.268 0-7.726-3.459-7.726-7.726s3.459-7.726 7.726-7.726h146.627c4.268 0 7.726 3.459 7.726 7.726s-3.458 7.726-7.726 7.726z" fill="#fff6f4"/></g><g><path d="m424.189 398.271h-105.42c-4.268 0-7.726-3.459-7.726-7.726s3.459-7.726 7.726-7.726h105.419c4.268 0 7.726 3.459 7.726 7.726s-3.458 7.726-7.725 7.726z" fill="#fff6f4"/></g></g></svg>