<svg id="Capa_1" enable-background="new 0 0 512 512" height="512" viewBox="0 0 512 512" width="512" xmlns="http://www.w3.org/2000/svg"><g><path d="m323.9 271.945h-251.324v-181.419c0-49.996 40.53-90.526 90.527-90.526h70.272c49.995 0 90.525 40.53 90.525 90.526z" fill="#365e7d"/><path d="m233.374 0h-26.397c49.996 0 90.526 40.53 90.526 90.526v181.419h26.397v-181.419c0-49.996-40.53-90.526-90.526-90.526z" fill="#2b4d66"/><path d="m335.93 504.389h-275.383c-5.041 0-9.128-4.087-9.128-9.128v-193.92c0-49.348 40.005-89.353 89.353-89.353h114.933c49.348 0 89.353 40.005 89.353 89.353v193.92c0 5.041-4.087 9.128-9.128 9.128z" fill="#80e29d"/><path d="m255.705 211.987h-26.868c49.348 0 89.353 40.005 89.353 89.353v193.92c0 5.041-4.087 9.128-9.128 9.128h26.868c5.041 0 9.128-4.087 9.128-9.128v-193.92c0-49.348-40.005-89.353-89.353-89.353z" fill="#66b49d"/><g><path d="m198.24 512c-4.204 0-7.611-3.407-7.611-7.611v-137.822c0-4.204 3.407-7.612 7.611-7.612s7.611 3.407 7.611 7.612v137.822c0 4.204-3.407 7.611-7.611 7.611z" fill="#66b49d"/></g><path d="m198.244 211.985v183.437c-1.512 0-3.024-.436-4.333-1.319l-55.27-37.144c-1.979-1.33-2.781-3.846-1.928-6.079l6.191-16.238c.954-2.486-.162-5.287-2.557-6.444l-18.136-8.748c-1.634-.792-2.73-2.385-2.882-4.181l-8.413-98.168c9.337-3.308 19.384-5.115 29.857-5.115h57.471z" fill="#fff6f4"/><path d="m285.563 217.1-8.413 98.168c-.152 1.796-1.248 3.389-2.882 4.181l-18.136 8.748c-2.395 1.157-3.511 3.958-2.557 6.444l6.191 16.238c.852 2.233.051 4.75-1.928 6.079l-53.291 35.815-1.979 1.329c-1.309.873-2.811 1.319-4.323 1.319v-183.436h57.462c10.472 0 20.519 1.806 29.856 5.115z" fill="#fff6f4"/><path d="m198.238 334.035 28.617-29.535 27.54-89.034h-112.312l27.54 89.034z" fill="#e2a770"/><path d="m198.238 251.553c-50.138 0-90.783-40.645-90.783-90.783v-72.495c0-6.843 6.498-11.772 13.109-10.007 51.783 13.822 103.566 13.822 155.347 0 6.612-1.765 13.109 3.164 13.109 10.007v72.494c.001 50.139-40.644 90.784-90.782 90.784z" fill="#f1d0a5"/><g><path d="m276.032 78.23c-2.774.74-5.548 1.44-8.322 2.102v80.438c0 46.532-35.011 84.881-80.127 90.157 3.496.409 7.05.626 10.656.626 50.138 0 90.783-40.645 90.783-90.783v-72.499c-.001-6.792-6.428-11.791-12.99-10.041z" fill="#f1b986"/></g><g><g><path d="m219.568 151.793h-42.658c-4.204 0-7.611-3.407-7.611-7.611s3.407-7.611 7.611-7.611h42.658c4.204 0 7.611 3.407 7.611 7.611s-3.407 7.611-7.611 7.611z" fill="#2b4d66"/></g><g><path d="m141.849 151.793h-34.393c-4.204 0-7.611-3.407-7.611-7.611s3.407-7.611 7.611-7.611h34.393c4.204 0 7.611 3.407 7.611 7.611s-3.407 7.611-7.611 7.611z" fill="#2b4d66"/></g><g><path d="m289.022 151.793h-34.393c-4.204 0-7.611-3.407-7.611-7.611s3.407-7.611 7.611-7.611h34.393c4.204 0 7.611 3.407 7.611 7.611s-3.407 7.611-7.611 7.611z" fill="#2b4d66"/></g></g><g><path d="m198.239 214.188c-7.296 0-14.589-1.92-21.833-5.762-3.714-1.97-5.127-6.577-3.158-10.291 1.968-3.713 6.576-5.127 10.291-3.158 9.889 5.247 19.505 5.247 29.4 0 3.714-1.969 8.321-.556 10.29 3.159 1.969 3.714.556 8.321-3.159 10.29-7.242 3.841-14.538 5.762-21.831 5.762z" fill="#c63d4f"/></g><path d="m152.749 434.094h-66.343c-3.738 0-6.768-3.03-6.768-6.768v-18.47c0-3.738 3.03-6.768 6.768-6.768h66.343c3.738 0 6.768 3.03 6.768 6.768v18.47c.001 3.738-3.03 6.768-6.768 6.768z" fill="#fff6f4"/><path d="m152.749 402.088h-20.335c3.738 0 6.768 3.03 6.768 6.768v18.47c0 3.738-3.03 6.768-6.768 6.768h20.335c3.738 0 6.768-3.03 6.768-6.768v-18.47c.001-3.738-3.03-6.768-6.768-6.768z" fill="#d8e2f1"/><path d="m449.778 418.432h-160.596c-5.967 0-10.804-4.837-10.804-10.804v-31.988c0-5.967 4.837-10.804 10.804-10.804h160.596c5.967 0 10.804 4.837 10.804 10.804v31.988c-.001 5.967-4.838 10.804-10.804 10.804z" fill="#9dc6fb"/><path d="m449.778 364.837h-21.379c5.967 0 10.804 4.837 10.804 10.804v31.988c0 5.967-4.837 10.803-10.804 10.803h21.379c5.967 0 10.804-4.837 10.804-10.803v-31.988c-.001-5.967-4.838-10.804-10.804-10.804z" fill="#8993da"/><path d="m449.778 472.027h-160.596c-5.967 0-10.804-4.837-10.804-10.804v-31.988c0-5.967 4.837-10.804 10.804-10.804h160.596c5.967 0 10.804 4.837 10.804 10.804v31.988c-.001 5.967-4.838 10.804-10.804 10.804z" fill="#dd636e"/><path d="m449.778 418.432h-21.379c5.967 0 10.804 4.837 10.804 10.804v31.988c0 5.967-4.837 10.804-10.804 10.804h21.379c5.967 0 10.804-4.837 10.804-10.804v-31.988c-.001-5.967-4.838-10.804-10.804-10.804z" fill="#c63d4f"/><path d="m165.342 290.659c21.931 21.144 43.863 21.144 65.794 0l-32.258 104.288c-.194.628-1.084.628-1.278 0z" fill="#4a80aa"/><circle cx="158.814" cy="144.182" fill="#d3effb" r="27.114"/><circle cx="237.662" cy="144.182" fill="#d3effb" r="27.114"/><g fill="#b1e4f9"><path d="m237.662 117.068c-2.818 0-5.536.431-8.092 1.229 11.022 3.442 19.023 13.729 19.023 25.886s-8 22.444-19.023 25.886c2.556.798 5.273 1.229 8.092 1.229 14.975 0 27.114-12.139 27.114-27.114s-12.139-27.116-27.114-27.116z"/><path d="m158.814 117.068c-2.818 0-5.536.431-8.092 1.229 11.022 3.442 19.023 13.729 19.023 25.886s-8 22.444-19.023 25.886c2.555.798 5.273 1.229 8.092 1.229 14.975 0 27.114-12.139 27.114-27.114s-12.139-27.116-27.114-27.116z"/></g></g></svg>