<svg id="Capa_1" enable-background="new 0 0 512 512" height="512" viewBox="0 0 512 512" width="512" xmlns="http://www.w3.org/2000/svg"><g><path d="m11.818 123.764c-6.527 0-11.818 5.291-11.818 11.818v229.869c0 22.485 18.227 40.712 40.712 40.712h170.691c5.12 0 9.633 3.357 11.107 8.26l2.069 4.825c1.474 4.903 5.988 8.26 11.107 8.26h40.626c5.12 0 9.633-3.357 11.107-8.26l2.069-4.825c1.474-4.903 5.988-8.26 11.107-8.26h170.691c22.485 0 40.712-18.227 40.712-40.712v-229.869c0-6.527-5.291-11.818-11.818-11.818h-184.424l-60.338 82.148-67.696-82.148z" fill="#dd636e"/><g><path d="m500.182 123.764h-25.592c6.527 0 11.818 5.291 11.818 11.818v229.869c0 22.485-18.227 40.712-40.712 40.712h25.592c22.485 0 40.712-18.227 40.712-40.712v-229.869c0-6.527-5.291-11.818-11.818-11.818z" fill="#c63d4f"/></g><path d="m462.264 361.445h-179.765c-14.635 0-26.499-11.864-26.499-26.499l-30.905-12.032v-169.299l30.905-13.126c0-30.926 25.071-55.997 55.997-55.997h150.268c3.879 0 7.024 3.145 7.024 7.024v262.906c-.001 3.879-3.146 7.023-7.025 7.023z" fill="#fff6f4"/><path d="m462.264 84.493h-23.592c3.879 0 7.024 3.145 7.024 7.024v262.906c0 3.879-3.145 7.024-7.024 7.024h23.592c3.879 0 7.024-3.145 7.024-7.024v-262.907c0-3.879-3.145-7.023-7.024-7.023z" fill="#d8e2f1"/><path d="m256 334.946c0 14.635-11.864 26.499-26.499 26.499h-179.765c-3.879 0-7.024-3.145-7.024-7.024v-262.905c0-3.879 3.145-7.024 7.024-7.024h150.268c30.926 0 55.997 25.071 55.997 55.997v194.457z" fill="#fff6f4"/><path d="m256 140.489c0-30.926-25.071-55.997-55.997-55.997h-24.231c30.926 0 55.997 25.071 55.997 55.997v194.457c0 14.635-11.864 26.499-26.499 26.499h24.231c14.635 0 26.499-11.864 26.499-26.499z" fill="#d8e2f1"/><g><path d="m256 402.783c-4.268 0-7.726-3.459-7.726-7.726v-4.645c0-4.268 3.459-7.726 7.726-7.726s7.726 3.459 7.726 7.726v4.645c0 4.267-3.459 7.726-7.726 7.726z" fill="#c63d4f"/></g><g><path d="m192.579 297.129h-89.973c-4.268 0-7.726-3.459-7.726-7.726s3.459-7.726 7.726-7.726h89.973c4.268 0 7.726 3.459 7.726 7.726s-3.458 7.726-7.726 7.726z" fill="#d8e2f1"/></g><g><path d="m151.372 329.991h-48.766c-4.268 0-7.726-3.459-7.726-7.726s3.459-7.726 7.726-7.726h48.766c4.268 0 7.726 3.459 7.726 7.726s-3.459 7.726-7.726 7.726z" fill="#d8e2f1"/></g><g><path d="m407.63 302.449h-89.973c-4.268 0-7.726-3.459-7.726-7.726s3.459-7.726 7.726-7.726h89.973c4.268 0 7.726 3.459 7.726 7.726s-3.458 7.726-7.726 7.726z" fill="#d8e2f1"/></g><g><path d="m366.423 335.311h-48.766c-4.268 0-7.726-3.459-7.726-7.726s3.459-7.726 7.726-7.726h48.766c4.268 0 7.726 3.459 7.726 7.726s-3.458 7.726-7.726 7.726z" fill="#d8e2f1"/></g><path d="m90.869 134.492c-.514-.445-1.239-.549-1.857-.267s-1.014.899-1.014 1.579v100.742c0 .958.777 1.735 1.735 1.735h116.327c.725 0 1.373-.45 1.626-1.129s.058-1.444-.49-1.918z" fill="#f6e266"/><path d="m184.58 238.282h21.48c.725 0 1.373-.45 1.626-1.129s.058-1.444-.49-1.918l-116.327-100.743c-.514-.445-1.239-.549-1.857-.267s-1.014.899-1.014 1.579v18.835z" fill="#ecbe6b"/><circle cx="403.519" cy="152.183" fill="#9dc6fb" r="35.687"/><path d="m403.518 116.497c-3.293 0-6.478.455-9.505 1.29 15.093 4.162 26.181 17.98 26.181 34.396s-11.088 30.234-26.181 34.397c3.028.835 6.212 1.29 9.505 1.29 19.709 0 35.687-15.977 35.687-35.687 0-19.709-15.977-35.686-35.687-35.686z" fill="#8993da"/><path d="m346.853 249.512h-55.646c-2.794 0-5.059-2.265-5.059-5.059v-55.646c0-2.794 2.265-5.059 5.059-5.059h55.646c2.794 0 5.059 2.265 5.059 5.059v55.646c0 2.795-2.265 5.059-5.059 5.059z" fill="#80e29d"/><path d="m346.854 183.749h-18.416c2.794 0 5.059 2.265 5.059 5.059v55.646c0 2.794-2.265 5.059-5.059 5.059h18.416c2.794 0 5.059-2.265 5.059-5.059v-55.646c-.001-2.794-2.266-5.059-5.059-5.059z" fill="#66b49d"/></g></svg>