<svg id="Capa_1" enable-background="new 0 0 512 512" height="512" viewBox="0 0 512 512" width="512" xmlns="http://www.w3.org/2000/svg"><g><g><path d="m390.807 270.339h-269.614c-7.858 0-14.228-6.37-14.228-14.228v-86.109c0-7.858 6.37-14.228 14.228-14.228h269.614c7.858 0 14.228 6.37 14.228 14.228v86.109c0 7.858-6.37 14.228-14.228 14.228z" fill="#f6e266"/></g><path d="m390.807 155.774h-21.633c7.858 0 14.228 6.37 14.228 14.228v86.109c0 7.858-6.37 14.228-14.227 14.228h21.631c7.858 0 14.228-6.37 14.228-14.228v-86.109c.001-7.858-6.369-14.228-14.227-14.228z" fill="#ecbe6b"/><path d="m395.769 512h-279.538c-5.117 0-9.266-4.148-9.266-9.266v-196.846c0-29.916 14.484-56.45 36.821-72.971 5.796-4.287 16.003 10.813 22.741 7.99 8.058-3.376 12.825-24.334 21.866-25.253 3.049-.31 6.143-.468 9.274-.468h116.667c3.893 0 7.729.245 11.492.721 7.796.986 12.598 24.19 19.647 27.025 7.564 3.042 17.31-14.154 23.704-9.293 21.79 16.566 35.857 42.764 35.857 72.248v196.846c.001 5.119-4.147 9.267-9.265 9.267z" fill="#d3effb"/><path d="m314.334 215.186h-27.274c50.093 0 90.702 40.609 90.702 90.702v196.846c0 5.117-4.148 9.266-9.266 9.266h27.273c5.117 0 9.266-4.148 9.266-9.266v-196.846c0-50.093-40.608-90.702-90.701-90.702z" fill="#b1e4f9"/><path d="m144.191 512h44.672v-296.387c-16.608 1.6-31.905 7.679-44.672 17.015z" fill="#ecbe6b"/><path d="m323.137 512h44.672v-279.372c-12.767-9.336-28.064-15.415-44.672-17.015z" fill="#ecbe6b"/><path d="m256 306.529c-20.809 0-37.678-16.869-37.678-37.678v-44.273h75.355v44.273c.001 20.809-16.868 37.678-37.677 37.678z" fill="#e2a770"/><path d="m380.233 188.473c-10.015-47.062-2.426-78.043-1.195-119.064 1.14-37.97-29.24-69.409-67.227-69.409h-111.622c-37.987 0-68.367 31.439-67.227 69.409 1.232 41.021 8.82 72.002-1.195 119.064-1.441 6.771 2.539 13.529 9.18 15.482 92.881 27.303 137.231 27.301 230.106 0 6.641-1.952 10.621-8.711 9.18-15.482z" fill="#365e7d"/><path d="m380.233 188.473c-10.013-47.055-2.429-78.033-1.195-119.045 1.142-37.977-29.232-69.428-67.227-69.428h-23.693c37.987 0 68.367 31.439 67.227 69.409-.92 30.634-5.385 55.669-3.416 85.983 1.798 27.682-16.664 52.668-43.657 59.062-23.45 5.555-44.02 8.788-64.117 9.703 38.429 1.749 75.124-4.982 126.899-20.202 6.64-1.953 10.62-8.711 9.179-15.482z" fill="#2b4d66"/><g><path d="m163.847 97.353v65.843c0 50.894 41.258 92.153 92.153 92.153 50.894 0 92.153-41.258 92.153-92.153v-64.433c0-5.357-4.259-9.806-9.615-9.9-18.511-.327-49.379 5.506-69.683 15.959-3.514 1.809-7.715 1.511-11.041-.623-29.091-18.665-50.178-24.548-86.219-16.517-4.527 1.008-7.748 5.034-7.748 9.671z" fill="#f1d0a5"/></g><g><path d="m338.537 88.863c-6.126-.108-12.366.472-18.707 1.657 2.646 1.784 4.384 4.826 4.384 8.244v64.433c0 46.838-34.944 85.512-80.184 91.38 3.918.508 7.912.773 11.969.773 50.895 0 92.153-41.258 92.153-92.152v-64.435c.001-5.357-4.258-9.806-9.615-9.9z" fill="#f1b986"/></g><g><path d="m256 217.42c-7.404 0-14.809-1.95-22.162-5.849-3.771-1.999-5.205-6.676-3.206-10.446s6.674-5.206 10.446-3.206c10.042 5.326 19.804 5.326 29.844 0 3.773-2 8.447-.563 10.447 3.205 1.999 3.771.564 8.447-3.205 10.447-7.354 3.9-14.759 5.849-22.164 5.849z" fill="#c63d4f"/></g><g><g><path d="m214.14 163.5c-4.268 0-7.726-3.459-7.726-7.726v-7.448c0-4.268 3.459-7.726 7.726-7.726s7.726 3.459 7.726 7.726v7.448c.001 4.267-3.458 7.726-7.726 7.726z" fill="#2b4d66"/></g><g><path d="m297.859 163.5c-4.268 0-7.726-3.459-7.726-7.726v-7.448c0-4.268 3.459-7.726 7.726-7.726s7.726 3.459 7.726 7.726v7.448c0 4.267-3.459 7.726-7.726 7.726z" fill="#2b4d66"/></g></g><g><path d="m341.048 53.666c-.513 1.62-.853 3.449-1.02 5.388-.138 1.599-1.89 2.509-3.277 1.701-1.682-.98-3.373-1.755-4.993-2.268-9.839-3.116-20.341 2.334-23.457 12.172-3.116 9.839 2.334 20.341 12.172 23.457 1.62.513 3.449.853 5.388 1.02 1.599.138 2.509 1.89 1.701 3.277-.98 1.682-1.755 3.373-2.268 4.993-3.116 9.839 2.333 20.341 12.172 23.457s20.341-2.334 23.457-12.172c.513-1.62.853-3.449 1.02-5.388.138-1.599 1.89-2.509 3.277-1.701 1.682.98 3.373 1.755 4.993 2.268 9.839 3.116 20.341-2.334 23.457-12.172 3.116-9.839-2.334-20.341-12.172-23.457-1.62-.513-3.449-.853-5.388-1.02-1.599-.138-2.509-1.89-1.701-3.277.98-1.682 1.755-3.373 2.268-4.993 3.116-9.839-2.334-20.341-12.172-23.457-9.839-3.117-20.341 2.333-23.457 12.172z" fill="#dd636e"/></g><g><path d="m381.497 74.24c-1.619-.513-3.449-.853-5.388-1.02-1.599-.138-2.509-1.89-1.701-3.277.98-1.682 1.755-3.373 2.268-4.993 3.116-9.839-2.333-20.341-12.172-23.457-8.382-2.655-17.229.921-21.597 8.119 1.459.099 2.929.352 4.385.813 9.839 3.116 15.288 13.618 12.172 23.457-.513 1.619-1.288 3.311-2.268 4.992-.808 1.387.101 3.139 1.701 3.277 1.939.167 3.768.507 5.388 1.02 9.839 3.116 15.288 13.618 12.172 23.457-.461 1.456-1.101 2.803-1.86 4.053 8.399.572 16.417-4.603 19.071-12.985 3.118-9.838-2.332-20.34-12.171-23.456z" fill="#c63d4f"/></g></g></svg>