<svg id="Capa_1" enable-background="new 0 0 512 512" height="512" viewBox="0 0 512 512" width="512" xmlns="http://www.w3.org/2000/svg"><g><path d="m170.858 149.112c-15.994 0-28.959 12.965-28.959 28.959v52.169 12.395 117.263c0 12.19-9.976 21.913-22.165 21.829-.232-.002-.465-.002-.698-.001-35.211.129-64.25 28.732-64.883 63.938-.662 36.834 29.257 66.844 66.058 66.329 35.323-.494 64.205-30.679 64.205-66.005v-196.065c0-4.025 3.263-7.288 7.288-7.288h216.349c4.025 0 7.289 3.263 7.289 7.288v109.975c0 12.19-9.976 21.913-22.166 21.829-.232-.002-.464-.002-.697-.001-35.211.129-64.25 28.731-64.884 63.936-.663 36.835 29.256 66.845 66.057 66.331 35.323-.493 64.206-30.679 64.206-66.005v-203.353-12.395-52.169c0-15.994-12.965-28.959-28.959-28.959z" fill="#f6e266"/><g fill="#ecbe6b"><path d="m160.255 249.923v196.065c0 31.58-23.088 59.033-53.218 64.857 4.26.81 8.664 1.211 13.174 1.148 35.323-.494 64.205-30.679 64.205-66.005v-196.065c0-4.025 3.263-7.288 7.288-7.288h-24.161c-4.025 0-7.288 3.263-7.288 7.288z"/><path d="m428.899 149.112h-24.161c15.994 0 28.959 12.965 28.959 28.959v52.169 12.395 203.353c0 31.58-23.088 59.033-53.218 64.857 4.259.81 8.663 1.211 13.173 1.148 35.323-.493 64.206-30.679 64.206-66.005v-203.353-12.395-52.169c0-15.994-12.965-28.959-28.959-28.959z"/></g><path d="m370.37 194.867c-48.078 20.121-96.157 20.121-144.235 0-4.638-1.941-7.672-6.467-7.672-11.495v-115.547h159.579v115.548c0 5.028-3.033 9.553-7.672 11.494z" fill="#4a80aa"/><path d="m360.679 67.825v108.144c0 5.028-3.034 9.554-7.672 11.495-43.427 18.174-86.854 19.927-130.281 5.27.999.874 2.141 1.604 3.409 2.134 48.078 20.121 96.157 20.121 144.235 0 4.638-1.941 7.672-6.467 7.672-11.495v-115.548z" fill="#407093"/><path d="m421.871 72.507c-70.456 38.771-139.635 59.211-139.635 59.211l-107.602-59.211c-1.921-1.057-1.921-3.818 0-4.875l122.277-67.287c.835-.46 1.848-.46 2.683 0l122.277 67.287c1.922 1.057 1.922 3.818 0 4.875z" fill="#365e7d"/><path d="m421.871 67.631-122.277-67.286c-.835-.46-1.848-.46-2.683 0l-14.675 8.075 107.602 59.211c1.921 1.057 1.921 3.818 0 4.875l-107.602 59.211c14.2 7.335 15.008 9.368 17.358 8.075l122.277-67.287c1.922-1.055 1.922-3.816 0-4.874z" fill="#2b4d66"/><g><path d="m338.179 178.905c-4.269 0-7.729-3.46-7.729-7.729v-53.253l-44.718-42.235c-3.104-2.931-3.244-7.823-.312-10.925 2.931-3.105 7.823-3.243 10.925-.312l47.141 44.522c1.546 1.459 2.422 3.492 2.422 5.619v56.584c.001 4.269-3.46 7.729-7.729 7.729z" fill="#407093"/></g></g></svg>