<svg id="Capa_1" enable-background="new 0 0 512 512" height="512" viewBox="0 0 512 512" width="512" xmlns="http://www.w3.org/2000/svg"><g><path d="m424.678 128.021h-339.81c-33.765 0-61.137-27.372-61.137-61.137 0-33.765 27.372-61.137 61.137-61.137h328.253c3.499 0 6.336 2.837 6.336 6.336l11.557 109.604c-.001 3.498-2.837 6.334-6.336 6.334z" fill="#80e29d"/><path d="m400.734 5.746v122.275h23.944c3.499 0 6.336-2.837 6.336-6.336v-28.897l-10.31-22.183 10.31-29.259v-29.264c0-3.499-2.837-6.336-6.336-6.336z" fill="#66b49d"/><path d="m59.326 66.884c0-14.106 11.435-25.541 25.541-25.541h346.146v51.082h-346.146c-14.106 0-25.541-11.435-25.541-25.541z" fill="#fff6f4"/><path d="m400.734 41.343h30.28v51.082h-30.28z" fill="#d8e2f1"/><path d="m404.074 372.571h-339.81c-33.765 0-61.137-27.372-61.137-61.137 0-33.765 27.372-61.137 61.137-61.137h339.81c3.499 0 6.336 2.837 6.336 6.336v109.604c0 3.497-2.837 6.334-6.336 6.334z" fill="#f6e266"/><path d="m380.13 250.296v122.275h23.944c3.499 0 6.336-2.837 6.336-6.336v-109.603c0-3.499-2.837-6.336-6.336-6.336z" fill="#ecbe6b"/><path d="m38.723 311.434c0-14.106 11.435-25.541 25.541-25.541h346.146v51.082h-346.146c-14.106 0-25.541-11.435-25.541-25.541z" fill="#fff6f4"/><path d="m380.13 285.892h30.28v51.082h-30.28z" fill="#d8e2f1"/><path d="m6.336 250.296h317.545c33.765 0 61.137-27.372 61.137-61.137 0-33.765-27.372-61.137-61.137-61.137h-317.545c-3.499 0-6.336 2.837-6.336 6.336v29.642l14.313 27.251-14.313 23.235v29.474c0 3.5 2.837 6.336 6.336 6.336z" fill="#dd636e"/><path d="m323.881 128.021h-35.596c33.765 0 61.138 27.372 61.138 61.138 0 33.765-27.372 61.137-61.138 61.137h35.596c33.765 0 61.137-27.372 61.137-61.137 0-33.766-27.372-61.138-61.137-61.138z" fill="#c63d4f"/><path d="m349.423 189.159c0-14.106-11.435-25.541-25.541-25.541h-323.882v51.082h323.881c14.106 0 25.542-11.435 25.542-25.541z" fill="#fff6f4"/><path d="m323.882 163.617h-26.106c14.106 0 25.541 11.435 25.541 25.541s-11.435 25.541-25.541 25.541h26.106c14.106 0 25.541-11.435 25.541-25.541 0-14.105-11.436-25.541-25.541-25.541z" fill="#d8e2f1"/><path d="m512 203.488c0-68.633-56.124-124.158-124.98-123.183-66.091.935-120.12 54.677-121.388 120.763-.876 45.627 23.062 85.73 59.226 107.735 10.208 6.211 16.585 17.153 16.585 29.102v120.988c0 26.157 21.205 47.362 47.362 47.362 26.157 0 47.362-21.205 47.362-47.362v-120.987c0-11.724 5.997-22.733 16.043-28.776 35.823-21.546 59.79-60.793 59.79-105.642z" fill="#9dc6fb"/><path d="m387.02 80.305c-3.576.051-7.114.265-10.613.619 62.193 6.241 110.749 58.728 110.749 122.565 0 44.848-23.967 84.096-59.791 105.641-10.047 6.043-16.043 17.052-16.043 28.776v120.986c0 21.858-14.81 40.246-34.94 45.704 3.96 1.074 8.122 1.657 12.422 1.657 26.157 0 47.362-21.205 47.362-47.362v-120.986c0-11.724 5.997-22.733 16.043-28.776 35.824-21.545 59.791-60.793 59.791-105.641 0-68.633-56.124-124.158-124.98-123.183z" fill="#8993da"/><circle cx="388.804" cy="203.488" fill="#d3effb" r="83.928"/><path d="m388.804 119.56c-4.665 0-9.235.398-13.693 1.13 39.836 6.54 70.235 41.111 70.235 82.798 0 41.688-30.399 76.259-70.235 82.799 4.458.732 9.028 1.13 13.693 1.13 46.352 0 83.928-37.576 83.928-83.928s-37.575-83.929-83.928-83.929z" fill="#b1e4f9"/><g><path d="m388.804 346.75c-4.268 0-7.726-3.459-7.726-7.726v-12.718c0-4.268 3.459-7.726 7.726-7.726s7.726 3.459 7.726 7.726v12.718c.001 4.267-3.458 7.726-7.726 7.726z" fill="#8993da"/></g><g><path d="m441.159 456.692h-104.71c-4.268 0-7.726-3.459-7.726-7.726s3.459-7.726 7.726-7.726h104.71c4.268 0 7.726 3.459 7.726 7.726s-3.458 7.726-7.726 7.726z" fill="#2b4d66"/></g></g></svg>