<svg id="Capa_1" enable-background="new 0 0 512 512" height="512" viewBox="0 0 512 512" width="512" xmlns="http://www.w3.org/2000/svg"><g><path d="m426.394 397.319-340.788 47.039v-420.507c0-13.173 10.678-23.851 23.851-23.851h293.087c13.172 0 23.851 10.678 23.851 23.851v373.468z" fill="#f6e266"/><path d="m402.543 0h-29.017c13.173 0 23.851 10.678 23.851 23.851v373.468l-311.771 43.033v4.005l340.788-47.039v-373.467c0-13.173-10.678-23.851-23.851-23.851z" fill="#ecbe6b"/><path d="m426.394 397.319h-310.326c-16.824 0-30.462 13.638-30.462 30.462v33.153c0 16.824 13.638 30.462 30.462 30.462h286.475c13.172 0 23.851-10.678 23.851-23.851z" fill="#fff6f4"/><path d="m397.378 397.319v70.227c0 13.172-10.678 23.851-23.851 23.851h29.017c13.172 0 23.851-10.678 23.851-23.851v-70.227z" fill="#d8e2f1"/><path d="m301.484 511.75-20.217-6.183c-1.073-.328-2.219-.328-3.292 0l-20.217 6.183c-3.617 1.106-7.273-1.599-7.273-5.381v-47.126h58.271v47.126c.001 3.782-3.655 6.487-7.272 5.381z" fill="#dd636e"/><g><path d="m292.665 459.243v47.126c0 .911-.216 1.756-.588 2.504l9.408 2.877c3.617 1.106 7.273-1.599 7.273-5.381v-47.126z" fill="#c63d4f"/></g><g><g><g><path d="m256.649 193.743c-3.122 0-6.062-1.906-7.229-5l-46.855-124.153-47.293 124.174c-1.519 3.99-5.988 5.989-9.97 4.471-3.988-1.519-5.99-5.983-4.471-9.97l51.649-135.609c.022-.059.045-.118.068-.175 1.673-4.09 5.608-6.734 10.026-6.739h.011c4.413 0 8.349 2.636 10.028 6.718.029.07.057.141.083.211l51.179 135.615c1.507 3.993-.508 8.451-4.5 9.957-.897.339-1.82.5-2.726.5z" fill="#9dc6fb"/></g><g><path d="m240.799 159.967h-76.641c-4.268 0-7.726-3.459-7.726-7.726s3.459-7.726 7.726-7.726h76.641c4.268 0 7.726 3.459 7.726 7.726s-3.458 7.726-7.726 7.726z" fill="#9dc6fb"/></g></g><g><g><path d="m326.166 189.685c-25.095 0-45.51-20.415-45.51-45.51 0-25.094 20.415-45.509 45.51-45.509 25.094 0 45.509 20.415 45.509 45.509 0 25.095-20.416 45.51-45.509 45.51zm0-75.566c-16.573 0-30.057 13.483-30.057 30.056s13.484 30.057 30.057 30.057 30.056-13.484 30.056-30.057-13.483-30.056-30.056-30.056z" fill="#9dc6fb"/></g><g><path d="m363.948 194.708c-4.268 0-7.726-3.459-7.726-7.726v-85.614c0-4.268 3.459-7.726 7.726-7.726s7.726 3.459 7.726 7.726v85.614c.001 4.268-3.458 7.726-7.726 7.726z" fill="#9dc6fb"/></g></g></g><path d="m330.121 281.615h-148.242c-4.77 0-8.637-3.867-8.637-8.637v-31.051c0-4.77 3.867-8.637 8.637-8.637h148.243c4.77 0 8.637 3.867 8.637 8.637v31.051c0 4.77-3.867 8.637-8.638 8.637z" fill="#9dc6fb"/><path d="m330.121 233.289h-25.19c4.77 0 8.637 3.867 8.637 8.637v31.051c0 4.77-3.867 8.637-8.637 8.637h25.19c4.77 0 8.637-3.867 8.637-8.637v-31.051c.001-4.769-3.866-8.637-8.637-8.637z" fill="#8993da"/><g><path d="m318.079 325.763h-124.159c-4.268 0-7.726-3.459-7.726-7.726s3.459-7.726 7.726-7.726h124.159c4.268 0 7.726 3.459 7.726 7.726s-3.458 7.726-7.726 7.726z" fill="#2b4d66"/></g><g><path d="m318.079 360.682h-124.159c-4.268 0-7.726-3.459-7.726-7.726s3.459-7.726 7.726-7.726h124.159c4.268 0 7.726 3.459 7.726 7.726s-3.458 7.726-7.726 7.726z" fill="#2b4d66"/></g><g><path d="m373.527 41.404h-30.228c-4.268 0-7.726-3.459-7.726-7.726s3.459-7.726 7.726-7.726h30.228c4.268 0 7.726 3.459 7.726 7.726s-3.459 7.726-7.726 7.726z" fill="#dd636e"/></g><g><g><path d="m379.733 437.198h-247.466c-4.268 0-7.726-3.459-7.726-7.726s3.459-7.726 7.726-7.726h247.466c4.268 0 7.726 3.459 7.726 7.726s-3.458 7.726-7.726 7.726z" fill="#d8e2f1"/></g><g><path d="m379.733 466.969h-247.466c-4.268 0-7.726-3.459-7.726-7.726s3.459-7.726 7.726-7.726h247.466c4.268 0 7.726 3.459 7.726 7.726s-3.458 7.726-7.726 7.726z" fill="#d8e2f1"/></g></g></g></svg>