<svg id="Capa_1" enable-background="new 0 0 512 512" height="512" viewBox="0 0 512 512" width="512" xmlns="http://www.w3.org/2000/svg"><g><path d="m408.765 397.319-331.926 40.141-5.904-8.221-2.958-.728-.001-404.66c0-13.173 10.679-23.851 23.851-23.851h293.087c13.172 0 23.851 10.678 23.851 23.851z" fill="#9dc6fb"/><path d="m384.914 0h-29.017c13.173 0 23.851 10.678 23.851 23.851v373.468l-311.772 43.033v4.005l340.788-47.039v-373.467c.001-13.173-10.678-23.851-23.85-23.851z" fill="#8993da"/><path d="m408.765 397.319h-310.326c-16.824 0-30.462 13.638-30.462 30.462v33.153c0 16.824 13.638 30.462 30.462 30.462h286.475c13.172 0 23.851-10.678 23.851-23.851z" fill="#fff6f4"/><path d="m379.748 397.319v70.227c0 13.172-10.678 23.851-23.851 23.851h29.017c13.172 0 23.851-10.678 23.851-23.851v-70.227z" fill="#d8e2f1"/><path d="m437.57 107.533-28.805 3.727v-67.917l28.805 3.727c3.691.478 6.454 3.621 6.454 7.343v45.778c0 3.721-2.763 6.864-6.454 7.342z" fill="#dd636e"/><path d="m437.57 210.754-28.805 3.727v-67.917l28.805 3.727c3.691.478 6.454 3.621 6.454 7.343v45.778c0 3.721-2.763 6.864-6.454 7.342z" fill="#f6e266"/><path d="m437.57 313.974-28.805 3.727v-67.917l28.805 3.727c3.691.478 6.454 3.621 6.454 7.343v45.778c0 3.721-2.763 6.865-6.454 7.342z" fill="#80e29d"/><path d="m347.45 136.294h-218.16c-1.807 0-3.272-1.465-3.272-3.272v-77.585c0-1.807 1.465-3.272 3.272-3.272h218.16c1.807 0 3.272 1.465 3.272 3.272v77.585c.001 1.807-1.464 3.272-3.272 3.272z" fill="#fff6f4"/><path d="m347.45 52.165h-22.924c1.807 0 3.272 1.465 3.272 3.272v77.585c0 1.807-1.465 3.272-3.272 3.272h22.924c1.807 0 3.272-1.465 3.272-3.272v-77.585c.001-1.807-1.464-3.272-3.272-3.272z" fill="#d8e2f1"/><g><path d="m294.181 101.956h-111.62c-4.268 0-7.726-3.459-7.726-7.726s3.459-7.726 7.726-7.726h111.62c4.268 0 7.726 3.459 7.726 7.726s-3.459 7.726-7.726 7.726z" fill="#2b4d66"/></g><g><g><path d="m278.681 209.302h-80.621c-4.268 0-7.726-3.459-7.726-7.726s3.459-7.726 7.726-7.726h80.621c4.268 0 7.726 3.459 7.726 7.726s-3.459 7.726-7.726 7.726z" fill="#2b4d66"/></g><g><path d="m307.921 255.366h-139.101c-4.268 0-7.726-3.459-7.726-7.726s3.459-7.726 7.726-7.726h139.102c4.268 0 7.726 3.459 7.726 7.726s-3.459 7.726-7.727 7.726z" fill="#2b4d66"/></g></g><path d="m283.855 511.75-20.217-6.183c-1.073-.328-2.219-.328-3.292 0l-20.217 6.183c-3.617 1.106-7.273-1.599-7.273-5.381v-47.126h58.271v47.126c.001 3.782-3.656 6.487-7.272 5.381z" fill="#dd636e"/><g><path d="m275.035 459.243v47.126c0 .911-.216 1.756-.588 2.504l9.408 2.877c3.617 1.106 7.273-1.599 7.273-5.381v-47.126z" fill="#c63d4f"/></g><g><g><path d="m362.103 437.199h-247.466c-4.268 0-7.726-3.459-7.726-7.726 0-4.268 3.459-7.726 7.726-7.726h247.466c4.268 0 7.726 3.459 7.726 7.726.001 4.267-3.458 7.726-7.726 7.726z" fill="#d8e2f1"/></g><g><path d="m362.103 466.969h-247.466c-4.268 0-7.726-3.459-7.726-7.726s3.459-7.726 7.726-7.726h247.466c4.268 0 7.726 3.459 7.726 7.726s-3.458 7.726-7.726 7.726z" fill="#d8e2f1"/></g></g></g></svg>