<svg id="Capa_1" enable-background="new 0 0 512 512" height="512" viewBox="0 0 512 512" width="512" xmlns="http://www.w3.org/2000/svg"><g><path d="m201.111 5.894h76.036v463.746h-76.036z" fill="#dd636e" transform="matrix(.64 .768 -.768 .64 268.718 -98.15)"/><path d="m23.352 244.212h463.746v25.746h-463.746z" fill="#c63d4f" transform="matrix(.768 -.64 .64 .768 -105.424 222.959)"/><path d="m467.096 47.816c-13.441-16.131-37.414-18.311-53.544-4.871l-20.622 17.183 48.674 58.415 20.622-17.183c16.13-13.441 18.311-37.414 4.87-53.544z" fill="#dd636e"/><path d="m467.096 47.816c-2.893-3.472-6.276-6.293-9.961-8.456 5.332 14.64 1.269 31.673-11.39 42.221l-20.622 17.183-32.193-38.636 48.674 58.415 20.622-17.183c16.13-13.441 18.311-37.414 4.87-53.544z" fill="#c63d4f"/><path d="m36.654 356.992-19.13 60.239c-1.045 3.292 1.676 6.558 5.102 6.123l62.702-7.947z" fill="#f1d0a5"/><path d="m68.847 395.628-46.327 5.872-4.996 15.732c-1.045 3.292 1.676 6.558 5.102 6.123l62.702-7.947z" fill="#f1b986"/><g><path d="m445.959 131.465c-2.156 0-4.296-.925-5.779-2.716l-57.377-69.259c-2.643-3.189-2.199-7.917.991-10.56 3.188-2.643 7.916-2.2 10.56.991l57.376 69.259c2.643 3.189 2.199 7.917-.991 10.56-1.4 1.159-3.095 1.725-4.78 1.725z" fill="#2b4d66"/></g><g><path d="m89.727 369.759c-2.149 0-4.282-.919-5.766-2.699-2.652-3.182-2.222-7.911.96-10.562l298.812-248.982c3.181-2.651 7.912-2.222 10.562.961 2.651 3.182 2.222 7.911-.961 10.562l-298.81 248.982c-1.402 1.167-3.104 1.738-4.797 1.738z" fill="#fff6f4"/></g><path d="m346.934 504.5h-124.578c-6.242 0-11.303-5.06-11.303-11.303v-474.394c0-6.242 5.06-11.303 11.303-11.303h113.275c6.242 0 11.303 5.06 11.303 11.303z" fill="#f6e266"/><path d="m321.323 7.5v497h25.61v-485.697c0-6.242-5.06-11.303-11.303-11.303z" fill="#ecbe6b"/><g><g><path d="m231.007 55.421h-19.954c-4.142 0-7.5-3.357-7.5-7.5s3.358-7.5 7.5-7.5h19.954c4.142 0 7.5 3.357 7.5 7.5s-3.358 7.5-7.5 7.5z" fill="#ecbe6b"/></g><g><path d="m231.007 97.036h-19.954c-4.142 0-7.5-3.357-7.5-7.5s3.358-7.5 7.5-7.5h19.954c4.142 0 7.5 3.357 7.5 7.5s-3.358 7.5-7.5 7.5z" fill="#ecbe6b"/></g><g><path d="m241.007 138.652h-29.954c-4.142 0-7.5-3.357-7.5-7.5s3.358-7.5 7.5-7.5h29.954c4.142 0 7.5 3.357 7.5 7.5s-3.357 7.5-7.5 7.5z" fill="#ecbe6b"/></g><g><path d="m231.007 180.269h-19.954c-4.142 0-7.5-3.357-7.5-7.5s3.358-7.5 7.5-7.5h19.954c4.142 0 7.5 3.357 7.5 7.5s-3.358 7.5-7.5 7.5z" fill="#ecbe6b"/></g><g><path d="m231.007 221.884h-19.954c-4.142 0-7.5-3.357-7.5-7.5s3.358-7.5 7.5-7.5h19.954c4.142 0 7.5 3.357 7.5 7.5s-3.358 7.5-7.5 7.5z" fill="#ecbe6b"/></g><g><path d="m241.007 263.5h-29.954c-4.142 0-7.5-3.357-7.5-7.5s3.358-7.5 7.5-7.5h29.954c4.142 0 7.5 3.357 7.5 7.5s-3.357 7.5-7.5 7.5z" fill="#ecbe6b"/></g><g><path d="m231.007 305.116h-19.954c-4.142 0-7.5-3.357-7.5-7.5s3.358-7.5 7.5-7.5h19.954c4.142 0 7.5 3.357 7.5 7.5s-3.358 7.5-7.5 7.5z" fill="#ecbe6b"/></g><g><path d="m231.007 346.731h-19.954c-4.142 0-7.5-3.357-7.5-7.5s3.358-7.5 7.5-7.5h19.954c4.142 0 7.5 3.357 7.5 7.5s-3.358 7.5-7.5 7.5z" fill="#ecbe6b"/></g><g><path d="m241.007 388.348h-29.954c-4.142 0-7.5-3.357-7.5-7.5s3.358-7.5 7.5-7.5h29.954c4.142 0 7.5 3.357 7.5 7.5s-3.357 7.5-7.5 7.5z" fill="#ecbe6b"/></g><g><path d="m231.007 429.964h-19.954c-4.142 0-7.5-3.357-7.5-7.5s3.358-7.5 7.5-7.5h19.954c4.142 0 7.5 3.357 7.5 7.5s-3.358 7.5-7.5 7.5z" fill="#ecbe6b"/></g><g><path d="m231.007 471.58h-19.954c-4.142 0-7.5-3.357-7.5-7.5s3.358-7.5 7.5-7.5h19.954c4.142 0 7.5 3.357 7.5 7.5s-3.358 7.5-7.5 7.5z" fill="#ecbe6b"/></g></g><g><path d="m261.557 512c-4.143 0-7.5-3.357-7.5-7.5v-497c0-4.143 3.357-7.5 7.5-7.5s7.5 3.357 7.5 7.5v497c0 4.143-3.357 7.5-7.5 7.5z" fill="#ecbe6b"/></g><path d="m486.424 504.5h-139.49v-56.707h147.769v48.428c0 4.573-3.707 8.279-8.279 8.279z" fill="#9dc6fb"/><path d="m470.814 447.793v56.707h15.61c4.572 0 8.278-3.706 8.278-8.278v-48.428h-23.888z" fill="#8993da"/><path d="m486.424 289.959h-139.49v157.834h147.769v-149.555c0-4.572-3.707-8.279-8.279-8.279z" fill="#dd636e"/><path d="m470.814 289.959v157.834h23.888v-149.555c0-4.572-3.706-8.278-8.278-8.278h-15.61z" fill="#c63d4f"/></g></svg>