<svg id="Capa_1" enable-background="new 0 0 512 512" height="512" viewBox="0 0 512 512" width="512" xmlns="http://www.w3.org/2000/svg"><g><path d="m427.521 233.404-22.79-30.785c-3.386-4.574-5.214-10.115-5.214-15.806v-56.219h-215.138v295.598h122.449v-80.46h19.39c40.482 0 73.299-32.817 73.299-73.299 0-8.101 4.563-15.512 11.797-19.16l13.051-6.581c4.944-2.492 6.451-8.837 3.156-13.288z" fill="#f1d0a5"/><path d="m427.521 233.404-22.79-30.785c-3.386-4.574-5.214-10.115-5.214-15.806v-18.094-38.125h-25.482-189.656l38.02 48.912c0-5.958 4.83-10.787 10.787-10.787h122.755c9.993 0 18.094 8.101 18.094 18.094 0 5.691 1.828 11.232 5.214 15.806l14.094 19.038c7.839 10.588 4.252 25.685-7.511 31.616-7.234 3.648-11.797 11.059-11.797 19.16 0 40.482-32.817 73.299-73.299 73.299h-19.39v80.46h25.482v-80.46h19.39c40.482 0 73.299-32.817 73.299-73.299 0-8.102 4.563-15.512 11.797-19.16l13.051-6.581c4.944-2.492 6.451-8.837 3.156-13.288z" fill="#f1b986"/><g><path d="m337.578 211.342c-4.268 0-7.726-3.459-7.726-7.726v-13.278c0-4.268 3.459-7.726 7.726-7.726 4.268 0 7.726 3.459 7.726 7.726v13.278c.001 4.267-3.458 7.726-7.726 7.726z" fill="#2b4d66"/></g><g><path d="m374.971 316.392c-22.443 0-41.516-8.415-54.559-16.4-3.639-2.227-4.784-6.984-2.555-10.624 2.227-3.639 6.983-4.782 10.624-2.555 13.941 8.533 35.814 17.668 60.828 12.721 4.187-.835 8.25 1.894 9.078 6.08s-1.894 8.252-6.08 9.078c-5.961 1.179-11.754 1.7-17.336 1.7z" fill="#c63d4f"/></g><path d="m332.496 488.529-74.819 22.876c-2.593.793-5.363.793-7.955 0l-74.819-22.876c-5.72-1.749-9.626-7.028-9.626-13.009v-42.731c0-3.643 2.953-6.596 6.596-6.596h163.653c3.643 0 6.596 2.953 6.596 6.596v42.731c0 5.981-3.906 11.261-9.626 13.009z" fill="#dd636e"/><path d="m342.122 475.52v-42.731c0-3.643-2.953-6.596-6.596-6.596h-40.706c-7.824 24.781-23.351 59.142-52.971 82.806l7.873 2.407c2.593.793 5.363.793 7.955 0l74.819-22.876c5.72-1.749 9.626-7.029 9.626-13.01z" fill="#c63d4f"/><g><path d="m306.828 353.459h-50.964c-4.268 0-7.726-3.459-7.726-7.726s3.459-7.726 7.726-7.726h50.964c4.268 0 7.726 3.459 7.726 7.726s-3.459 7.726-7.726 7.726z" fill="#f1b986"/></g><path d="m384.943 60.07h-182.933c-37.838 0-68.512 30.674-68.512 68.512v20.389 82.347c0 37.887 30.713 68.601 68.601 68.601 11.211 0 20.3-9.089 20.3-20.3v-119.861c0-5.958 4.83-10.787 10.787-10.787h173.085c18.66 0 33.786-15.127 33.786-33.786.001-30.44-24.675-55.115-55.114-55.115z" fill="#365e7d"/><path d="m189.321 159.758v119.861c0 6.98-3.525 13.134-8.889 16.787 6.813 2.267 14.092 3.513 21.667 3.513 11.211 0 20.3-9.089 20.3-20.3v-119.861c0-5.958 4.83-10.788 10.787-10.788h-33.078c-5.958.001-10.787 4.83-10.787 10.788z" fill="#2b4d66"/><path d="m384.943 60.07h-33.078c30.439 0 55.115 24.676 55.115 55.115 0 18.66-15.126 33.786-33.786 33.786h33.078c18.66 0 33.786-15.127 33.786-33.786 0-30.44-24.676-55.115-55.115-55.115z" fill="#2b4d66"/><g><path d="m277.779 476.823h-48.16c-4.268 0-7.726-3.459-7.726-7.726s3.459-7.726 7.726-7.726h48.16c4.268 0 7.726 3.459 7.726 7.726s-3.458 7.726-7.726 7.726z" fill="#2b4d66"/></g><circle cx="251.403" cy="61.556" fill="#f6e266" r="61.556"/><path d="m251.403 0c-5.578 0-10.977.755-16.115 2.146 28.424 5.446 49.907 30.428 49.907 60.44 0 28.418-19.263 52.326-45.441 59.41 3.773.723 7.664 1.115 11.649 1.115 33.996 0 61.556-27.559 61.556-61.556s-27.56-61.555-61.556-61.555z" fill="#ecbe6b"/><g><g><path d="m271.401 94.613c-3.122 0-6.062-1.906-7.229-5l-12.71-33.68-12.836 33.701c-1.519 3.989-5.987 5.99-9.97 4.471-3.988-1.519-5.99-5.983-4.471-9.97l19.022-49.945c.022-.058.044-.115.067-.172 1.368-3.348 4.589-5.514 8.205-5.518h.01c3.613 0 6.834 2.158 8.207 5.5.029.069.056.14.082.209l18.849 49.947c1.507 3.993-.508 8.451-4.5 9.957-.897.339-1.819.5-2.726.5z" fill="#fff6f4"/></g><g><path d="m265.564 82.172h-28.226c-4.268 0-7.726-3.459-7.726-7.726 0-4.268 3.459-7.726 7.726-7.726h28.226c4.268 0 7.726 3.459 7.726 7.726s-3.458 7.726-7.726 7.726z" fill="#fff6f4"/></g></g><circle cx="133.498" cy="196.976" fill="#9dc6fb" r="61.556"/><path d="m133.498 135.421c-5.578 0-10.977.755-16.115 2.146 28.424 5.446 49.907 30.428 49.907 60.44 0 28.418-19.263 52.326-45.441 59.41 3.773.723 7.664 1.115 11.649 1.115 33.996 0 61.556-27.559 61.556-61.556s-27.56-61.555-61.556-61.555z" fill="#8993da"/><g><g><path d="m160.136 187.721h-51.943c-4.268 0-7.726-3.459-7.726-7.726s3.459-7.726 7.726-7.726h51.943c4.268 0 7.726 3.459 7.726 7.726s-3.458 7.726-7.726 7.726z" fill="#fff6f4"/></g><g><path d="m120.212 234.678c-3.33 0-6.402-2.169-7.401-5.523-1.218-4.09 1.11-8.392 5.199-9.61 31.728-9.451 26.672-36.884 26.442-38.048-.831-4.185 1.889-8.252 6.075-9.081 4.187-.835 8.252 1.889 9.081 6.075.218 1.099 2.027 11.075-1.524 22.871-3.376 11.21-12.304 26.034-35.664 32.992-.735.219-1.478.324-2.208.324z" fill="#fff6f4"/></g><g><path d="m146.287 232.171c-1.77 0-3.548-.605-5.002-1.841l-22.539-19.175c-3.251-2.766-3.644-7.642-.879-10.891s7.642-3.643 10.891-.879l22.539 19.175c3.251 2.766 3.644 7.642.879 10.891-1.527 1.796-3.701 2.72-5.889 2.72z" fill="#fff6f4"/></g><g><path d="m134.165 187.72c-4.268 0-7.726-3.459-7.726-7.726v-10.296c0-4.268 3.459-7.726 7.726-7.726s7.726 3.459 7.726 7.726v10.296c0 4.267-3.459 7.726-7.726 7.726z" fill="#fff6f4"/></g></g><g><g><path d="m103.703 103.139c-.359 0-.722-.025-1.088-.076-4.226-.596-7.169-4.503-6.573-8.728 3.987-28.297 23.233-51.76 50.228-61.233 4.025-1.411 8.436.706 9.849 4.732 1.412 4.026-.706 8.436-4.732 9.849-21.522 7.552-36.866 26.255-40.043 48.807-.545 3.86-3.852 6.649-7.641 6.649z" fill="#2b4d66"/></g><g><path d="m100.844 113.205c-.839 0-1.682-.137-2.494-.413-2.18-.743-3.913-2.421-4.73-4.573l-7.044-18.574c-1.513-3.99.495-8.451 4.485-9.964 3.989-1.514 8.451.494 9.964 4.485l3.732 9.842 8.945-5.495c3.638-2.232 8.394-1.096 10.628 2.539 2.233 3.636 1.097 8.394-2.539 10.628l-16.901 10.383c-1.232.754-2.635 1.142-4.046 1.142z" fill="#2b4d66"/></g><g><path d="m148.366 61.902c-1.089 0-2.194-.231-3.246-.719-3.87-1.796-5.553-6.389-3.758-10.261l4.39-9.464-9.356-4.855c-3.787-1.966-5.264-6.63-3.299-10.418 1.965-3.789 6.631-5.265 10.418-3.299l15.915 8.26c3.669 1.904 5.189 6.359 3.45 10.11l-7.5 16.169c-1.308 2.818-4.099 4.477-7.014 4.477z" fill="#2b4d66"/></g></g></g></svg>