<svg id="Capa_1" enable-background="new 0 0 512 512" height="512" viewBox="0 0 512 512" width="512" xmlns="http://www.w3.org/2000/svg"><g><path d="m512 336.59c0 5.906-4.788 10.694-10.694 10.694h-490.612c-5.906-.001-10.694-4.789-10.694-10.694v-308.861c0-5.906 4.788-10.694 10.694-10.694h490.613c5.906 0 10.694 4.788 10.694 10.694v308.861z" fill="#fff6f4"/><path d="m501.306 17.035h-21.118c5.906 0 10.694 4.788 10.694 10.694v308.861c0 5.906-4.788 10.694-10.694 10.694h21.118c5.906 0 10.694-4.788 10.694-10.694v-308.861c0-5.906-4.788-10.694-10.694-10.694z" fill="#d8e2f1"/><path d="m469.408 257.174c.77-.021 1.384-.652 1.384-1.422v-147.186c0-.771-.613-1.402-1.383-1.423-25.919-.72-46.798-21.599-47.518-47.518-.021-.77-.652-1.384-1.422-1.384h-328.938c-.771 0-1.401.613-1.422 1.384-.72 25.918-21.599 46.798-47.518 47.518-.77.021-1.384.652-1.384 1.422v147.186c0 .771.613 1.401 1.384 1.422 25.918.72 46.798 21.599 47.518 47.518.021.77.652 1.384 1.422 1.384h330.341c0-26.554 21.158-48.168 47.536-48.901z" fill="#d3effb"/><path d="m421.891 59.626c-.021-.77-.652-1.384-1.422-1.384h-18.287c0 19.588 11.513 36.487 28.141 44.301 12.527 5.886 20.78 18.187 20.78 32.028v95.177c0 13.841-8.253 26.142-20.78 32.028-16.628 7.813-28.141 24.713-28.141 44.301h19.69c0-26.555 21.159-48.169 47.537-48.902.77-.021 1.384-.652 1.384-1.422v-147.187c0-.771-.613-1.402-1.383-1.423-25.92-.719-46.799-21.598-47.519-47.517z" fill="#b1e4f9"/><path d="m378.255 130.394h-244.51c-3.885 0-7.035-3.15-7.035-7.035v-23.012c0-3.885 3.15-7.035 7.035-7.035h244.511c3.885 0 7.035 3.15 7.035 7.035v23.012c-.001 3.886-3.15 7.035-7.036 7.035z" fill="#dd636e"/><path d="m378.255 93.312h-20.053c3.885 0 7.035 3.15 7.035 7.035v23.012c0 3.885-3.15 7.035-7.035 7.035h20.053c3.885 0 7.035-3.15 7.035-7.035v-23.012c0-3.885-3.15-7.035-7.035-7.035z" fill="#c63d4f"/><path d="m429.574 493.642-49.171-34.978c-2.457-1.747-5.75-1.747-8.207 0l-49.171 34.978c-4.687 3.334-11.183-.017-11.183-5.769v-147.22h128.915v147.22c0 5.752-6.496 9.103-11.183 5.769z" fill="#dd636e"/><g><path d="m419.633 340.654v145.916l9.942 7.072c4.687 3.334 11.183-.017 11.183-5.769v-147.22h-21.125z" fill="#c63d4f"/></g><circle cx="376.3" cy="324.864" fill="#f6e266" r="85.582"/><path d="m461.882 324.864c0-47.266-38.316-85.582-85.582-85.582-3.934 0-7.799.289-11.593.803 41.779 5.661 73.989 41.448 73.989 84.779s-32.211 79.118-73.989 84.779c3.793.514 7.658.803 11.593.803 47.266 0 85.582-38.316 85.582-85.582z" fill="#ecbe6b"/><path d="m426.84 324.864c0 6.397-7.731 11.212-10.038 16.775-2.391 5.767-.419 14.617-4.765 18.963s-13.196 2.373-18.963 4.765c-5.563 2.307-10.377 10.038-16.775 10.038-6.397 0-11.212-7.731-16.775-10.038-5.767-2.391-14.617-.419-18.963-4.765s-2.373-13.196-4.765-18.963c-2.307-5.563-10.038-10.377-10.038-16.775 0-6.397 7.731-11.212 10.038-16.775 2.391-5.767.419-14.617 4.765-18.963s13.196-2.373 18.963-4.765c5.563-2.307 10.377-10.038 16.775-10.038 6.397 0 11.212 7.731 16.775 10.038 5.767 2.391 14.617.419 18.963 4.765s2.373 13.196 4.765 18.963c2.307 5.563 10.038 10.377 10.038 16.775z" fill="#dd636e"/><path d="m416.802 308.089c-2.391-5.767-.419-14.617-4.765-18.963s-13.196-2.373-18.963-4.765c-5.563-2.307-10.377-10.038-16.775-10.038-3.888 0-7.191 2.855-10.432 5.613 2.093 1.78 4.16 3.52 6.342 4.425 5.767 2.391 14.617.419 18.963 4.765s2.373 13.196 4.765 18.963c2.307 5.563 10.038 10.377 10.038 16.775 0 6.397-7.731 11.212-10.038 16.775-2.391 5.767-.419 14.617-4.765 18.963s-13.196 2.373-18.963 4.765c-2.182.905-4.25 2.645-6.342 4.425 3.242 2.758 6.544 5.613 10.432 5.613 6.397 0 11.212-7.731 16.775-10.038 5.767-2.391 14.617-.419 18.963-4.765s2.373-13.196 4.765-18.963c2.307-5.563 10.038-10.378 10.038-16.775s-7.731-11.212-10.038-16.775z" fill="#c63d4f"/><g><path d="m300.774 184.904h-89.548c-4.268 0-7.726-3.459-7.726-7.726s3.459-7.726 7.726-7.726h89.548c4.268 0 7.726 3.459 7.726 7.726s-3.458 7.726-7.726 7.726z" fill="#2b4d66"/></g><g><path d="m336.085 219.559h-160.171c-4.268 0-7.726-3.459-7.726-7.726 0-4.268 3.459-7.726 7.726-7.726h160.171c4.268 0 7.726 3.459 7.726 7.726 0 4.268-3.458 7.726-7.726 7.726z" fill="#2b4d66"/></g><g><path d="m376.299 339.361c-4.268 0-7.726-3.459-7.726-7.726v-13.542c0-4.268 3.459-7.726 7.726-7.726s7.726 3.459 7.726 7.726v13.542c.001 4.267-3.458 7.726-7.726 7.726z" fill="#f6e266"/></g></g></svg>