<svg id="Capa_1" enable-background="new 0 0 512 512" height="512" viewBox="0 0 512 512" width="512" xmlns="http://www.w3.org/2000/svg"><g><path d="m484.322 416.203h-456.644v-280.987c0-6.308 5.114-11.421 11.421-11.421h433.8c6.308 0 11.422 5.114 11.422 11.421v280.987z" fill="#4a80aa"/><path d="m484.322 135.216c0-6.308-5.114-11.421-11.421-11.421h-18.776c6.308 0 11.422 5.114 11.422 11.421v236.68c0 14.647-11.874 26.52-26.52 26.52h-411.349v17.786h437.867 18.776v-17.786-263.2z" fill="#407093"/><path d="m58.584 416.203v-259.768c0-.958.777-1.735 1.735-1.735h391.361c.958 0 1.735.777 1.735 1.735v259.767h-394.831z" fill="#d3effb"/><path d="m428.395 154.7v224.919c0 10.382-8.416 18.798-18.798 18.798h-351.013v17.786h369.811 25.021v-17.786-241.982c0-.958-.777-1.735-1.735-1.735z" fill="#b1e4f9"/><path d="m498.121 474.985h-484.242c-7.665 0-13.879-6.214-13.879-13.879v-31.025c0-7.665 6.214-13.879 13.879-13.879h484.242c7.665 0 13.879 6.214 13.879 13.879v31.025c0 7.665-6.214 13.879-13.879 13.879z" fill="#365e7d"/><path d="m498.121 416.202h-24.268c7.665 0 13.879 6.214 13.879 13.879v31.025c0 7.665-6.214 13.879-13.879 13.879h24.268c7.665 0 13.879-6.214 13.879-13.879v-31.025c0-7.665-6.214-13.879-13.879-13.879z" fill="#2b4d66"/><path d="m293.267 445.594h-74.533c-3.045 0-5.818-1.751-7.128-4.5l-11.857-24.891h112.502l-11.857 24.891c-1.309 2.749-4.083 4.5-7.127 4.5z" fill="#4a80aa"/><path d="m305.909 389.202h-99.818c-2.291 0-4.148-1.857-4.148-4.148v-36.188c0-2.291 1.857-4.148 4.148-4.148h99.818c2.291 0 4.148 1.857 4.148 4.148v36.188c0 2.291-1.857 4.148-4.148 4.148z" fill="#80e29d"/><path d="m305.909 344.718h-17.754c2.291 0 4.148 1.857 4.148 4.148v36.188c0 2.291-1.857 4.148-4.148 4.148h17.754c2.291 0 4.148-1.857 4.148-4.148v-36.188c0-2.291-1.857-4.148-4.148-4.148z" fill="#66b49d"/><path d="m182.703 266.48h-52.571c-6.176 0-11.182-5.006-11.182-11.182v-207.101c0-6.176 5.006-11.182 11.182-11.182h52.571c6.176 0 11.182 5.006 11.182 11.182v207.101c0 6.175-5.007 11.182-11.182 11.182z" fill="#9dc6fb"/><path d="m182.703 37.015h-15.985c6.176 0 11.182 5.006 11.182 11.182v207.101c0 6.176-5.006 11.182-11.182 11.182h15.985c6.176 0 11.182-5.006 11.182-11.182v-207.101c0-6.176-5.007-11.182-11.182-11.182z" fill="#8993da"/><g><path d="m156.417 191.973c-4.268 0-7.726-3.459-7.726-7.726v-107.936c0-4.268 3.459-7.726 7.726-7.726s7.726 3.459 7.726 7.726v107.936c.001 4.267-3.458 7.726-7.726 7.726z" fill="#8993da"/></g><path d="m393.05 255.298c0 6.176-5.006 11.182-11.182 11.182h-39.751c-6.176 0-11.182-5.006-11.182-11.182v-207.101c0-6.176 5.006-11.182 11.182-11.182h39.751c6.176 0 11.182 5.006 11.182 11.182z" fill="#f6e266"/><path d="m393.05 48.197c0-6.176-5.006-11.182-11.182-11.182h-15.985c6.176 0 11.182 5.006 11.182 11.182v207.101c0 6.176-5.006 11.182-11.182 11.182h15.985c6.176 0 11.182-5.006 11.182-11.182z" fill="#ecbe6b"/><path d="m319.753 266.48h-52.571c-6.176 0-11.182-5.006-11.182-11.182v-207.101c0-6.176 5.006-11.182 11.182-11.182h52.571c6.176 0 11.182 5.006 11.182 11.182v207.101c0 6.175-5.007 11.182-11.182 11.182z" fill="#dd636e"/><path d="m319.753 37.015h-15.985c6.176 0 11.182 5.006 11.182 11.182v207.101c0 6.176-5.006 11.182-11.182 11.182h15.985c6.176 0 11.182-5.006 11.182-11.182v-207.101c0-6.176-5.007-11.182-11.182-11.182z" fill="#c63d4f"/><path d="m244.818 266.48h-39.751c-6.176 0-11.182-5.006-11.182-11.182v-181.462c0-6.176 5.006-11.182 11.182-11.182h39.751c6.176 0 11.182 5.006 11.182 11.182v181.461c0 6.176-5.007 11.183-11.182 11.183z" fill="#80e29d"/><path d="m244.818 62.654h-15.985c6.176 0 11.182 5.006 11.182 11.182v181.461c0 6.176-5.006 11.182-11.182 11.182h15.985c6.176 0 11.182-5.006 11.182-11.182v-181.461c0-6.175-5.007-11.182-11.182-11.182z" fill="#66b49d"/><path d="m294.493 217.799-1.399 8.035c-1.637 9.402-9.798 16.265-19.342 16.265h-35.505c-9.544 0-17.705-6.863-19.342-16.265l-1.399-8.035c-.611-3.507-3.654-6.066-7.214-6.066h-108.68c-2.704 0-4.896 2.192-4.896 4.896v64.774c0 11.513 9.333 20.845 20.845 20.845h276.878c11.513 0 20.845-9.333 20.845-20.845v-64.774c0-2.704-2.192-4.896-4.896-4.896h-108.681c-3.559-.001-6.603 2.559-7.214 6.066z" fill="#365e7d"/><path d="m195.072 217.798 1.399 8.035c1.637 9.402 9.798 16.265 19.342 16.265h22.434c-9.544 0-17.705-6.863-19.342-16.265l-1.399-8.035c-.611-3.507-3.654-6.066-7.214-6.066h-22.434c3.56 0 6.604 2.56 7.214 6.066z" fill="#2b4d66"/><path d="m410.388 211.732h-22.434c2.704 0 4.896 2.192 4.896 4.896v64.774c0 11.512-9.333 20.845-20.845 20.845h22.434c11.513 0 20.845-9.333 20.845-20.845v-64.774c0-2.704-2.192-4.896-4.896-4.896z" fill="#2b4d66"/><g><path d="m279.915 280.562h-47.83c-4.268 0-7.726-3.459-7.726-7.726s3.459-7.726 7.726-7.726h47.83c4.268 0 7.726 3.459 7.726 7.726s-3.458 7.726-7.726 7.726z" fill="#2b4d66"/></g><g><path d="m294.364 191.973c-4.268 0-7.726-3.459-7.726-7.726v-107.936c0-4.268 3.459-7.726 7.726-7.726s7.726 3.459 7.726 7.726v107.936c0 4.267-3.459 7.726-7.726 7.726z" fill="#c63d4f"/></g></g></svg>