<svg id="Capa_1" enable-background="new 0 0 512 512" height="512" viewBox="0 0 512 512" width="512" xmlns="http://www.w3.org/2000/svg"><g><g><path d="m275.782 58.1c-4.268 0-7.726-3.459-7.726-7.726v-36.029c0-4.268 3.459-7.726 7.726-7.726 4.268 0 7.726 3.459 7.726 7.726v36.028c.001 4.268-3.458 7.727-7.726 7.727z" fill="#2b4d66"/></g><g><path d="m146.277 156.784c-3.055 0-5.948-1.823-7.165-4.829l-15.922-39.326c-1.601-3.955.307-8.46 4.263-10.061 3.957-1.603 8.46.308 10.061 4.263l15.922 39.326c1.601 3.955-.307 8.46-4.263 10.061-.949.384-1.931.566-2.896.566z" fill="#2b4d66"/></g><g><path d="m124.396 130.113c-2.719 0-5.356-1.438-6.767-3.985-2.066-3.733-.716-8.435 3.017-10.502l18.605-10.301c3.734-2.064 8.435-.715 10.502 3.017 2.066 3.733.716 8.435-3.017 10.502l-18.605 10.301c-1.186.656-2.469.968-3.735.968z" fill="#365e7d"/></g><g><path d="m403.982 160.012c-.965 0-1.947-.182-2.896-.566-3.956-1.602-5.863-6.106-4.263-10.061l17.228-42.554c1.602-3.954 6.104-5.865 10.061-4.263 3.956 1.602 5.863 6.106 4.263 10.061l-17.228 42.554c-1.218 3.005-4.11 4.829-7.165 4.829z" fill="#2b4d66"/></g><g><path d="m427.17 130.113c-1.266 0-2.549-.311-3.735-.968l-18.605-10.301c-3.733-2.067-5.083-6.769-3.017-10.502 2.067-3.732 6.767-5.085 10.502-3.017l18.605 10.301c3.733 2.067 5.083 6.769 3.017 10.502-1.411 2.547-4.048 3.985-6.767 3.985z" fill="#365e7d"/></g><path d="m348.401 129.393h16.32c66.684 0 109.17 71.179 77.593 129.912-8.798 16.364-19.553 32.24-32.265 47.629h-111.051z" fill="#f6e266"/><path d="m348.401 129.393-49.403 177.542h58.513c13.171-34.71 24.304-69.42 33.379-104.131 6.407-24.503 4.666-48.816-3.274-70.464-7.226-1.91-14.884-2.947-22.895-2.947z" fill="#ecbe6b"/><path d="m203.165 129.393h-16.32c-66.684 0-109.17 71.179-77.593 129.912 8.798 16.364 19.553 32.24 32.265 47.629h111.051z" fill="#f6e266"/><path d="m203.165 129.393h-16.32c-8.012 0-15.669 1.037-22.896 2.947-7.94 21.648-9.68 45.961-3.274 70.464 9.075 34.711 20.208 69.421 33.379 104.131h58.513z" fill="#ecbe6b"/><path d="m184.631 201.227c9.213 35.236 21.09 70.472 35.633 105.708h111.038c14.543-35.236 26.421-70.472 35.633-105.708 15.571-59.557-29.593-117.709-91.152-117.709-61.559.001-106.724 58.153-91.152 117.709z" fill="#dd636e"/><path d="m184.631 201.227c9.213 35.236 21.09 70.472 35.633 105.708h111.038c14.543-35.236 26.421-70.472 35.633-105.708 15.571-59.557-29.593-117.709-91.152-117.709-61.559.001-106.724 58.153-91.152 117.709z" fill="#dd636e"/><path d="m275.783 83.519c-4.665 0-9.233.339-13.69.982 54.363 7.843 91.854 61.682 77.462 116.726-9.213 35.236-21.09 70.472-35.633 105.708h27.38c14.543-35.236 26.42-70.471 35.633-105.708 15.571-59.556-29.593-117.708-91.152-117.708z" fill="#c63d4f"/><path d="m267.014 94.666-16.706-24.068c-2.541-3.66-2.541-8.513 0-12.173l16.706-24.068c4.246-6.117 13.292-6.117 17.538 0l16.706 24.068c2.541 3.66 2.541 8.513 0 12.173l-16.706 24.068c-4.246 6.117-13.292 6.117-17.538 0z" fill="#f6e266"/><path d="m301.257 58.425-16.706-24.067c-4.246-6.117-13.292-6.117-17.538 0l-4.153 5.982 12.553 18.085c2.54 3.66 2.54 8.513 0 12.173l-12.553 18.085 4.153 5.982c4.246 6.117 13.292 6.117 17.538 0l16.706-24.067c2.541-3.659 2.541-8.512 0-12.173z" fill="#ecbe6b"/><path d="m269.082 233.647-12.765-18.391c-1.941-2.797-1.941-6.505 0-9.302l12.765-18.391c3.244-4.674 10.157-4.674 13.401 0l12.765 18.391c1.941 2.797 1.941 6.505 0 9.302l-12.765 18.391c-3.244 4.674-10.156 4.674-13.401 0z" fill="#f6e266"/><g><path d="m255.898 317.549c-3.436 0-6.569-2.307-7.473-5.787l-6.321-24.342c-1.073-4.13 1.405-8.347 5.536-9.419 4.137-1.072 8.347 1.406 9.42 5.536l6.321 24.342c1.073 4.13-1.405 8.347-5.536 9.419-.651.169-1.305.251-1.947.251z" fill="#f6e266"/></g><g><path d="m295.667 317.549c-.643 0-1.296-.08-1.947-.251-4.131-1.072-6.61-5.29-5.536-9.419l6.321-24.342c1.073-4.129 5.292-6.614 9.42-5.536 4.131 1.072 6.61 5.29 5.536 9.419l-6.321 24.342c-.904 3.479-4.039 5.787-7.473 5.787z" fill="#f6e266"/></g><g><path d="m460.464 362.74h-369.363v-24.638c0-17.213 13.954-31.167 31.167-31.167h307.028c17.213 0 31.167 13.954 31.167 31.167v24.638z" fill="#365e7d"/><path d="m429.297 306.935h-33.288c17.213 0 31.167 13.954 31.167 31.167v24.638h33.288v-24.638c0-17.213-13.954-31.167-31.167-31.167z" fill="#2b4d66"/></g><path d="m504.035 505.381h-427.179c-42.446 0-76.856-34.41-76.856-76.856 0-42.447 34.41-76.856 76.856-76.856h427.179c4.399 0 7.965 3.566 7.965 7.965v137.784c0 4.397-3.566 7.963-7.965 7.963z" fill="#80e29d"/><path d="m473.935 351.668v153.713h30.101c4.399 0 7.965-3.566 7.965-7.965v-137.784c0-4.399-3.566-7.965-7.965-7.965h-30.101z" fill="#66b49d"/><path d="m44.748 428.525c0-17.733 14.375-32.108 32.108-32.108h435.144v64.216h-435.144c-17.733 0-32.108-14.376-32.108-32.108z" fill="#fff6f4"/><path d="m473.935 396.416h38.065v64.216h-38.065z" fill="#d8e2f1"/><g><path d="m482.666 436.251h-370.956c-4.268 0-7.726-3.459-7.726-7.726s3.459-7.726 7.726-7.726h370.956c4.268 0 7.726 3.459 7.726 7.726s-3.459 7.726-7.726 7.726z" fill="#d8e2f1"/></g></g></svg>