<svg id="Capa_1" enable-background="new 0 0 512 512" height="512" viewBox="0 0 512 512" width="512" xmlns="http://www.w3.org/2000/svg"><g><path d="m484.322 372.813h-456.644v-280.987c0-6.308 5.114-11.421 11.421-11.421h433.8c6.308 0 11.422 5.114 11.422 11.421v280.987z" fill="#4a80aa"/><path d="m484.322 91.826c0-6.308-5.114-11.421-11.421-11.421h-18.776c6.308 0 11.422 5.114 11.422 11.421v236.68c0 14.647-11.874 26.52-26.52 26.52h-411.349v17.786h437.867 18.776v-17.786-263.2z" fill="#407093"/><path d="m58.584 372.813v-259.768c0-.958.777-1.735 1.735-1.735h391.361c.958 0 1.735.777 1.735 1.735v259.767h-394.831z" fill="#d3effb"/><path d="m428.395 111.31v224.919c0 10.382-8.416 18.798-18.798 18.798h-351.013v17.786h369.811 25.021v-17.786-241.982c0-.958-.777-1.735-1.735-1.735z" fill="#b1e4f9"/><path d="m498.121 431.595h-484.242c-7.665 0-13.879-6.214-13.879-13.879v-31.025c0-7.665 6.214-13.879 13.879-13.879h484.242c7.665 0 13.879 6.214 13.879 13.879v31.025c0 7.665-6.214 13.879-13.879 13.879z" fill="#365e7d"/><path d="m498.121 372.813h-24.268c7.665 0 13.879 6.214 13.879 13.879v31.025c0 7.665-6.214 13.879-13.879 13.879h24.268c7.665 0 13.879-6.214 13.879-13.879v-31.025c0-7.666-6.214-13.879-13.879-13.879z" fill="#2b4d66"/><path d="m293.267 402.204h-74.533c-3.045 0-5.818-1.751-7.128-4.5l-11.857-24.891h112.502l-11.857 24.891c-1.309 2.749-4.083 4.5-7.127 4.5z" fill="#4a80aa"/><path d="m305.909 345.812h-99.818c-2.291 0-4.148-1.857-4.148-4.148v-36.188c0-2.291 1.857-4.148 4.148-4.148h99.818c2.291 0 4.148 1.857 4.148 4.148v36.188c0 2.291-1.857 4.148-4.148 4.148z" fill="#80e29d"/><path d="m305.909 301.328h-17.754c2.291 0 4.148 1.857 4.148 4.148v36.188c0 2.291-1.857 4.148-4.148 4.148h17.754c2.291 0 4.148-1.857 4.148-4.148v-36.188c0-2.291-1.857-4.148-4.148-4.148z" fill="#66b49d"/><path d="m286.325 205.668-56.475-45.802c-4.059-3.292-10.121-.403-10.121 4.823v91.605c0 5.226 6.062 8.115 10.121 4.823l56.475-45.802c3.064-2.486 3.064-7.162 0-9.647z" fill="#dd636e"/><path d="m286.325 205.668-56.475-45.802c-4.059-3.292-10.121-.403-10.121 4.823v5.94l43.204 35.039c3.064 2.485 3.064 7.161 0 9.646l-43.204 35.039v5.94c0 5.226 6.062 8.115 10.121 4.823l56.475-45.802c3.064-2.485 3.064-7.161 0-9.646z" fill="#c63d4f"/><g><g><path d="m166.805 159.383h-67.843c-4.268 0-7.726-3.459-7.726-7.726s3.459-7.726 7.726-7.726h67.843c4.268 0 7.726 3.459 7.726 7.726s-3.458 7.726-7.726 7.726z" fill="#2b4d66"/></g><g><path d="m135.9 193.379h-36.938c-4.268 0-7.726-3.459-7.726-7.726s3.459-7.726 7.726-7.726h36.938c4.268 0 7.726 3.459 7.726 7.726s-3.458 7.726-7.726 7.726z" fill="#2b4d66"/></g><g><g><path d="m413.037 159.383h-67.842c-4.268 0-7.726-3.459-7.726-7.726s3.459-7.726 7.726-7.726h67.842c4.268 0 7.726 3.459 7.726 7.726s-3.459 7.726-7.726 7.726z" fill="#2b4d66"/></g><g><path d="m413.037 193.379h-36.937c-4.268 0-7.726-3.459-7.726-7.726s3.459-7.726 7.726-7.726h36.937c4.268 0 7.726 3.459 7.726 7.726s-3.459 7.726-7.726 7.726z" fill="#2b4d66"/></g></g></g></g></svg>