<svg id="Capa_1" enable-background="new 0 0 512 512" height="512" viewBox="0 0 512 512" width="512" xmlns="http://www.w3.org/2000/svg"><g><path d="m333.651 267.365c0-77.993-62.697-141.341-140.439-142.394-78.076-1.058-142.989 61.775-144.354 139.846-.88 50.324 24.354 94.806 63.044 120.812 5.982 4.021 9.612 10.717 9.612 17.925v20.686l20.322 20.675h89.635l29.502-20.675v-20.687c0-7.194 3.608-13.889 9.579-17.901 38.054-25.564 63.099-68.998 63.099-118.287z" fill="#f6e266"/><path d="m193.212 124.971c-5.738-.078-11.402.199-16.977.792 71.531 7.56 127.27 68.067 127.27 141.603 0 49.289-25.045 92.722-63.099 118.286-5.971 4.011-9.579 10.707-9.579 17.901v41.362l30.147-20.675v-20.687c0-7.193 3.608-13.889 9.579-17.901 38.054-25.564 63.099-68.997 63.099-118.286-.001-77.993-62.698-141.342-140.44-142.395z" fill="#ecbe6b"/><g><path d="m191.243 452.667c-4.282 0-7.753-3.471-7.753-7.753v-119.107c0-4.282 3.471-7.753 7.753-7.753s7.753 3.471 7.753 7.753v119.108c0 4.282-3.47 7.752-7.753 7.752z" fill="#4a80aa"/></g><g><path d="m191.243 331.24c-20.898 0-37.9-17.002-37.9-37.9 0-4.282 3.471-7.753 7.753-7.753s7.753 3.471 7.753 7.753c0 12.348 10.046 22.394 22.394 22.394s22.395-10.046 22.395-22.394c0-4.282 3.471-7.753 7.753-7.753s7.753 3.471 7.753 7.753c0 20.898-17.002 37.9-37.901 37.9z" fill="#4a80aa"/></g><path d="m216.405 512h-50.322c-24.615 0-44.569-19.954-44.569-44.569v-43.192h139.459v43.192c0 24.615-19.954 44.569-44.568 44.569z" fill="#365e7d"/><path d="m230.826 424.239v43.192c0 24.615-19.954 44.569-44.569 44.569h30.147c24.614 0 44.568-19.954 44.568-44.569v-43.192z" fill="#2b4d66"/><g><path d="m214.601 479.679h-46.715c-4.282 0-7.753-3.471-7.753-7.753s3.471-7.753 7.753-7.753h46.715c4.282 0 7.753 3.471 7.753 7.753s-3.471 7.753-7.753 7.753z" fill="#2b4d66"/></g><path d="m463.164 160.644c0-69.013-55.946-124.959-124.959-124.959h-95.302c-2.872 0-5.2-2.328-5.2-5.2v-28.691c0-.677-.381-1.297-.986-1.602-.605-.305-1.33-.244-1.874.159l-96.016 70.949c-6.619 4.891-6.619 14.791 0 19.682l96.017 70.949c.545.402 1.27.464 1.874.159.605-.305.986-.925.986-1.602v-36.905c0-2.872 2.328-5.2 5.2-5.2h95.302c23.34 0 42.261 18.921 42.261 42.261v63.69c0 23.34-18.921 42.261-42.261 42.261h-4.895c.162 30.794-9.435 59.335-25.901 82.698h30.795c69.013 0 124.959-55.946 124.959-124.959z" fill="#80e29d"/><g><path d="m351.84 277.702c0-4.438-.213-8.827-.611-13.162-4.104 1.328-8.478 2.055-13.025 2.055h-4.895c.162 30.794-9.435 59.335-25.901 82.698h25.145c12.261-21.032 19.287-45.49 19.287-71.591z" fill="#66b49d"/></g><g><path d="m338.205 35.686h-27.234c69.013 0 124.959 55.946 124.959 124.959v63.69c0 69.013-55.946 124.959-124.959 124.959h27.234c69.013 0 124.959-55.946 124.959-124.959v-63.69c0-69.013-55.946-124.959-124.959-124.959z" fill="#66b49d"/></g></g></svg>