<svg id="Capa_1" enable-background="new 0 0 512 512" height="512" viewBox="0 0 512 512" width="512" xmlns="http://www.w3.org/2000/svg"><g><ellipse cx="256" cy="319.142" fill="#f6e266" rx="192.858" ry="192.857" transform="matrix(.707 -.707 .707 .707 -150.687 274.494)"/><path d="m256 126.285c-4.037 0-8.041.139-12.017.384 101.341 6.226 180.826 90.532 180.826 192.474 0 102.473-79.924 186.265-180.834 192.474 3.979.244 7.986.383 12.025.383 106.512 0 192.857-86.345 192.857-192.858 0-105.943-85.845-192.857-192.857-192.857z" fill="#ecbe6b"/><ellipse cx="256" cy="319.143" fill="#fff6f4" rx="146.543" ry="146.543" transform="matrix(.707 -.707 .707 .707 -150.687 274.494)"/><path d="m256 172.6c-4.237 0-8.429.19-12.574.543 75.351 6.4 133.953 69.7 133.953 146 0 76.694-58.919 139.617-133.96 145.999 4.148.353 8.343.543 12.582.543 80.933 0 146.542-65.609 146.542-146.543 0-80.501-65.23-146.542-146.543-146.542z" fill="#d8e2f1"/><path d="m321.572 177.18c-43.715 18.295-87.429 18.295-131.144 0-4.217-1.765-6.976-5.88-6.976-10.452v-105.059h145.095v105.06c.001 4.572-2.758 8.687-6.975 10.451z" fill="#4a80aa"/><path d="m312.76 61.669v98.328c0 4.572-2.758 8.687-6.976 10.452-39.486 16.525-78.971 18.119-118.457 4.791.908.795 1.947 1.458 3.1 1.941 43.715 18.295 87.429 18.295 131.144 0 4.217-1.765 6.976-5.88 6.976-10.452v-105.06z" fill="#407093"/><path d="m368.399 65.926c-63.992 35.214-126.961 53.837-126.961 53.837l-97.836-53.837c-1.747-.961-1.747-3.472 0-4.433l111.178-61.18c.759-.418 1.68-.418 2.439 0l111.179 61.18c1.748.961 1.748 3.472.001 4.433z" fill="#365e7d"/><path d="m368.399 61.493-111.179-61.18c-.759-.418-1.68-.418-2.439 0l-13.343 7.342 97.836 53.837c1.747.961 1.747 3.472 0 4.433l-97.836 53.837c12.911 6.669 13.646 8.518 15.782 7.342l111.179-61.18c1.747-.959 1.747-3.47 0-4.431z" fill="#2b4d66"/><g><path d="m295.771 166.177c-4.268 0-7.726-3.459-7.726-7.726v-50.93l-40.441-38.194c-3.103-2.93-3.242-7.82-.312-10.922 2.929-3.104 7.82-3.241 10.922-.312l42.862 40.481c1.545 1.459 2.422 3.491 2.422 5.617v54.26c0 4.267-3.459 7.726-7.727 7.726z" fill="#407093"/></g><g><path d="m256 230.732c-4.268 0-7.726-3.459-7.726-7.726v-6.504c0-4.268 3.459-7.726 7.726-7.726s7.726 3.459 7.726 7.726v6.504c0 4.267-3.459 7.726-7.726 7.726z" fill="#2b4d66"/></g><g><path d="m358.642 326.869h-6.505c-4.268 0-7.726-3.459-7.726-7.726 0-4.268 3.459-7.726 7.726-7.726h6.505c4.268 0 7.726 3.459 7.726 7.726s-3.459 7.726-7.726 7.726z" fill="#2b4d66"/></g><g><path d="m256 429.511c-4.268 0-7.726-3.459-7.726-7.726v-6.505c0-4.268 3.459-7.726 7.726-7.726s7.726 3.459 7.726 7.726v6.505c0 4.267-3.459 7.726-7.726 7.726z" fill="#2b4d66"/></g><g><path d="m159.863 326.869h-6.504c-4.268 0-7.726-3.459-7.726-7.726 0-4.268 3.459-7.726 7.726-7.726h6.504c4.268 0 7.726 3.459 7.726 7.726s-3.458 7.726-7.726 7.726z" fill="#2b4d66"/></g><g><path d="m297.351 326.869h-41.351c-4.268 0-7.726-3.459-7.726-7.726v-63.143c0-4.268 3.459-7.726 7.726-7.726s7.726 3.459 7.726 7.726v55.416h33.625c4.268 0 7.726 3.459 7.726 7.726 0 4.268-3.459 7.727-7.726 7.727z" fill="#ecbe6b"/></g><path d="m281.287 384.337h-50.574c-4.847 0-8.776-3.929-8.776-8.776v-13.184c0-4.847 3.929-8.776 8.776-8.776h50.574c4.847 0 8.776 3.929 8.776 8.776v13.184c0 4.847-3.929 8.776-8.776 8.776z" fill="#f6e266"/><path d="m281.287 353.601h-18.334c4.847 0 8.776 3.929 8.776 8.776v13.184c0 4.847-3.929 8.776-8.776 8.776h18.334c4.847 0 8.776-3.929 8.776-8.776v-13.184c0-4.847-3.929-8.776-8.776-8.776z" fill="#ecbe6b"/></g></svg>